<svg id="svg" version="1.1" xmlns="http://www.w3.org/2000/svg" xmlns:xlink="http://www.w3.org/1999/xlink" width="400" height="375.8793969849246" viewBox="0, 0, 400,375.8793969849246"><g id="svgg"><path id="path0" d="M198.933 32.269 C 197.309 33.311,193.579 33.660,190.644 33.045 C 187.709 32.429,184.693 32.920,183.942 34.135 C 183.191 35.350,180.843 35.794,178.725 35.122 C 176.423 34.391,174.874 34.849,174.874 36.261 C 174.874 37.559,173.606 38.134,172.056 37.539 C 170.506 36.945,168.621 37.074,167.868 37.827 C 167.115 38.580,165.896 39.228,165.159 39.267 C 164.422 39.306,161.784 40.469,159.296 41.850 C 156.809 43.232,154.745 43.652,154.710 42.784 C 154.675 41.916,153.318 42.962,151.695 45.108 C 150.072 47.254,148.744 48.212,148.744 47.236 C 148.744 46.261,147.460 47.219,145.891 49.365 C 144.322 51.511,142.173 53.266,141.115 53.266 C 138.296 53.266,122.697 68.862,123.774 70.604 C 124.278 71.419,122.665 73.505,120.189 75.239 C 117.714 76.973,116.568 78.419,117.643 78.453 C 118.718 78.487,117.996 79.447,116.038 80.587 C 114.080 81.727,113.003 83.508,113.644 84.546 C 114.285 85.583,113.799 86.432,112.563 86.432 C 111.327 86.432,110.816 87.242,111.428 88.232 C 112.039 89.221,111.094 90.586,109.328 91.264 C 107.496 91.966,106.610 93.785,107.266 95.494 C 107.899 97.143,107.487 98.492,106.351 98.492 C 105.215 98.492,104.844 99.397,105.528 100.503 C 106.211 101.608,105.715 102.513,104.426 102.513 C 103.137 102.513,102.603 103.869,103.239 105.528 C 103.876 107.186,103.592 108.543,102.609 108.543 C 101.015 108.543,97.711 118.386,97.549 123.618 C 97.515 124.724,96.305 126.875,94.859 128.400 C 93.414 129.924,92.707 132.412,93.289 133.928 C 93.870 135.443,93.625 136.683,92.743 136.683 C 90.863 136.683,81.171 156.821,81.910 159.192 C 82.186 160.078,81.357 160.804,80.067 160.804 C 78.777 160.804,78.286 161.369,78.976 162.059 C 79.667 162.749,78.234 164.980,75.794 167.017 C 73.353 169.054,72.193 170.751,73.215 170.787 C 74.237 170.824,72.974 173.088,70.410 175.817 C 67.845 178.547,64.968 180.299,64.015 179.710 C 63.063 179.121,61.743 180.049,61.082 181.771 C 60.421 183.493,59.071 184.401,58.081 183.789 C 57.091 183.178,56.281 183.689,56.281 184.925 C 56.281 186.161,55.439 186.652,54.410 186.015 C 53.381 185.379,51.962 185.793,51.256 186.935 C 50.551 188.076,49.131 188.490,48.102 187.854 C 47.073 187.218,46.231 187.690,46.231 188.902 C 46.231 190.115,44.196 190.932,41.709 190.718 C 39.221 190.504,35.151 190.470,32.663 190.642 L 28.141 190.955 28.141 271.092 L 28.141 351.230 44.266 351.230 C 53.135 351.230,60.909 350.391,61.543 349.367 C 62.176 348.342,65.236 348.062,68.342 348.744 C 71.609 349.461,74.565 349.053,75.355 347.775 C 76.106 346.559,78.377 346.091,80.402 346.734 C 82.427 347.376,84.675 346.946,85.397 345.778 C 86.119 344.609,87.489 344.135,88.442 344.724 C 89.395 345.312,90.752 344.860,91.457 343.719 C 92.163 342.577,93.582 342.163,94.611 342.799 C 95.640 343.435,96.482 342.945,96.482 341.709 C 96.482 340.473,97.314 339.975,98.330 340.603 C 99.347 341.232,101.500 340.423,103.116 338.808 C 104.732 337.192,106.614 336.430,107.298 337.114 C 107.983 337.799,108.543 337.250,108.543 335.895 C 108.543 334.540,109.347 333.928,110.329 334.535 C 111.312 335.142,114.536 332.465,117.495 328.586 C 120.454 324.707,123.618 321.992,124.526 322.553 C 125.435 323.115,127.411 322.053,128.918 320.195 C 131.271 317.294,131.232 317.032,128.643 318.345 C 126.985 319.185,128.794 317.041,132.663 313.578 C 136.533 310.116,139.472 306.436,139.196 305.401 C 138.920 304.365,139.651 303.518,140.822 303.518 C 141.993 303.518,142.450 302.708,141.839 301.718 C 141.227 300.728,142.136 299.378,143.858 298.717 C 145.580 298.056,146.425 296.605,145.737 295.492 C 145.049 294.378,145.498 293.467,146.734 293.467 C 147.970 293.467,148.422 292.563,147.739 291.457 C 147.055 290.352,147.508 289.447,148.744 289.447 C 149.980 289.447,150.432 288.543,149.749 287.437 C 149.065 286.332,149.518 285.427,150.754 285.427 C 151.990 285.427,152.442 284.523,151.759 283.417 C 151.076 282.312,151.571 281.407,152.860 281.407 C 154.149 281.407,154.683 280.050,154.047 278.392 C 153.411 276.734,153.820 275.377,154.956 275.377 C 156.092 275.377,156.462 274.472,155.779 273.367 C 155.096 272.261,155.591 271.357,156.880 271.357 C 158.169 271.357,158.703 270.000,158.067 268.342 C 157.431 266.683,157.883 265.327,159.072 265.327 C 160.261 265.327,160.713 263.970,160.077 262.312 C 159.441 260.653,159.893 259.296,161.082 259.296 C 162.271 259.296,162.724 257.940,162.087 256.281 C 161.451 254.623,161.903 253.266,163.092 253.266 C 164.281 253.266,164.734 251.910,164.097 250.251 C 163.461 248.593,163.870 247.236,165.006 247.236 C 166.142 247.236,166.551 246.394,165.915 245.365 C 165.279 244.336,165.693 242.917,166.834 242.211 C 167.976 241.506,168.389 240.086,167.753 239.057 C 167.117 238.028,167.608 237.186,168.844 237.186 C 170.080 237.186,170.532 236.281,169.849 235.176 C 169.166 234.070,169.618 233.166,170.854 233.166 C 172.090 233.166,172.543 232.261,171.859 231.156 C 171.176 230.050,171.628 229.146,172.864 229.146 C 174.100 229.146,174.553 228.241,173.869 227.136 C 173.186 226.030,173.638 225.126,174.874 225.126 C 176.110 225.126,176.559 224.215,175.871 223.101 C 175.183 221.988,176.028 220.536,177.751 219.876 C 179.473 219.215,180.470 218.008,179.967 217.194 C 179.464 216.381,181.756 213.716,185.059 211.273 C 188.387 208.813,190.455 205.842,189.695 204.613 C 188.904 203.333,189.238 202.959,190.483 203.729 C 191.671 204.463,194.404 202.824,196.557 200.087 C 198.710 197.350,201.044 195.684,201.743 196.383 C 202.443 197.083,203.015 196.546,203.015 195.191 C 203.015 193.836,203.857 193.248,204.886 193.884 C 205.915 194.520,207.273 194.206,207.903 193.186 C 208.534 192.167,210.950 191.829,213.273 192.437 C 220.612 194.356,221.044 189.762,221.064 109.548 L 221.084 31.156 211.484 30.765 C 206.205 30.550,200.557 31.227,198.933 32.269 M221.106 270.352 L 221.106 351.759 302.513 351.759 L 383.920 351.759 383.920 270.352 L 383.920 188.945 302.513 188.945 L 221.106 188.945 221.106 270.352 " stroke="none" fill-rule="evenodd"></path></g></svg>