<svg width="202" height="26" viewBox="0 0 202 26" fill="none" xmlns="http://www.w3.org/2000/svg"><path d="M1.68 18.5V7.3h4.368c.981 0 1.819.155 2.512.464.693.31 1.227.757 1.6 1.344.373.587.56 1.285.56 2.096 0 .81-.187 1.51-.56 2.096-.373.576-.907 1.024-1.6 1.344-.693.31-1.53.464-2.512.464H2.56l.72-.752V18.5h-1.6zm1.6-3.984l-.72-.8H6c1.024 0 1.797-.219 2.32-.656.533-.437.8-1.056.8-1.856s-.267-1.419-.8-1.856c-.523-.437-1.296-.656-2.32-.656H2.56l.72-.8v6.624zm13.167 4.08c-.853 0-1.61-.187-2.272-.56a4.167 4.167 0 01-1.568-1.536c-.384-.661-.576-1.408-.576-2.24 0-.843.192-1.59.576-2.24a4.05 4.05 0 011.568-1.52c.662-.373 1.419-.56 2.272-.56.843 0 1.595.187 2.256.56.672.363 1.195.87 1.568 1.52.384.64.576 1.387.576 2.24 0 .843-.192 1.59-.576 2.24a4.02 4.02 0 01-1.568 1.536c-.661.373-1.413.56-2.256.56zm0-1.344a2.87 2.87 0 001.456-.368 2.598 2.598 0 001.024-1.04c.246-.459.368-.987.368-1.584 0-.608-.122-1.13-.368-1.568a2.598 2.598 0 00-1.024-1.04 2.868 2.868 0 00-1.456-.368c-.544 0-1.029.123-1.456.368a2.74 2.74 0 00-1.024 1.04c-.256.437-.384.96-.384 1.568 0 .597.128 1.125.384 1.584a2.74 2.74 0 001.024 1.04c.427.245.912.368 1.456.368zM24.53 18.5l-3.152-8.48h1.456l2.8 7.68h-.688l2.912-7.68h1.296l2.848 7.68h-.672l2.864-7.68h1.376l-3.168 8.48H30.93l-2.672-7.008h.448L26.001 18.5H24.53zm16.14.096c-.906 0-1.706-.187-2.4-.56a4.105 4.105 0 01-1.6-1.536c-.373-.65-.56-1.397-.56-2.24 0-.843.182-1.59.544-2.24a4 4 0 011.52-1.52c.651-.373 1.382-.56 2.192-.56.822 0 1.547.181 2.176.544.63.363 1.12.875 1.473 1.536.362.65.543 1.413.543 2.288 0 .064-.005.139-.016.224 0 .085-.005.165-.015.24H37.31v-1.104h6.416l-.623.384c.01-.544-.102-1.03-.336-1.456a2.496 2.496 0 00-.977-.992c-.405-.245-.88-.368-1.424-.368a2.75 2.75 0 00-1.424.368 2.47 2.47 0 00-.976 1.008c-.234.427-.352.917-.352 1.472v.256c0 .565.129 1.072.385 1.52.266.437.634.779 1.104 1.024.469.245 1.008.368 1.616.368.5 0 .954-.085 1.36-.256a2.98 2.98 0 001.087-.768l.849.992c-.385.448-.864.79-1.44 1.024-.566.235-1.2.352-1.904.352zm6.021-.096v-8.48h1.472v2.304l-.144-.576a2.604 2.604 0 011.184-1.344c.555-.31 1.238-.464 2.048-.464v1.488a1.162 1.162 0 00-.192-.016h-.16c-.821 0-1.472.245-1.952.736-.48.49-.72 1.2-.72 2.128V18.5H46.69zm10.151.096c-.906 0-1.706-.187-2.4-.56a4.105 4.105 0 01-1.6-1.536c-.373-.65-.56-1.397-.56-2.24 0-.843.182-1.59.544-2.24a4 4 0 011.52-1.52c.651-.373 1.382-.56 2.192-.56.822 0 1.547.181 2.176.544.63.363 1.12.875 1.472 1.536.363.65.544 1.413.544 2.288 0 .064-.005.139-.016.224 0 .085-.005.165-.016.24h-7.216v-1.104h6.416l-.624.384c.011-.544-.101-1.03-.336-1.456a2.496 2.496 0 00-.976-.992c-.405-.245-.88-.368-1.424-.368a2.75 2.75 0 00-1.424.368 2.47 2.47 0 00-.976 1.008c-.234.427-.352.917-.352 1.472v.256c0 .565.128 1.072.384 1.52a2.77 2.77 0 001.104 1.024c.47.245 1.008.368 1.616.368.502 0 .955-.085 1.36-.256.416-.17.779-.427 1.088-.768l.848.992c-.384.448-.864.79-1.44 1.024-.565.235-1.2.352-1.904.352zm9.525 0c-.821 0-1.557-.181-2.208-.544a4 4 0 01-1.52-1.52c-.373-.65-.56-1.408-.56-2.272 0-.864.187-1.616.56-2.256a4 4 0 011.52-1.52c.65-.363 1.387-.544 2.208-.544.715 0 1.36.16 1.936.48.576.32 1.035.8 1.376 1.44.352.64.528 1.44.528 2.4s-.17 1.76-.512 2.4c-.33.64-.784 1.125-1.36 1.456-.576.32-1.232.48-1.968.48zm.128-1.344c.534 0 1.014-.123 1.44-.368a2.598 2.598 0 001.024-1.04c.256-.459.384-.987.384-1.584 0-.608-.128-1.13-.384-1.568a2.598 2.598 0 00-1.024-1.04 2.837 2.837 0 00-1.44-.368 2.87 2.87 0 00-1.456.368 2.74 2.74 0 00-1.024 1.04c-.256.437-.384.96-.384 1.568 0 .597.128 1.125.384 1.584a2.74 2.74 0 001.024 1.04c.427.245.912.368 1.456.368zM69.39 18.5v-2.288l.096-1.968-.16-1.968V6.628h1.536V18.5H69.39zm13.171.096c-.725 0-1.381-.16-1.968-.48-.576-.33-1.034-.816-1.376-1.456-.33-.64-.496-1.44-.496-2.4s.171-1.76.512-2.4c.352-.64.816-1.12 1.392-1.44a3.977 3.977 0 011.936-.48c.832 0 1.568.181 2.208.544.64.363 1.147.87 1.52 1.52.374.64.56 1.392.56 2.256 0 .864-.186 1.621-.56 2.272a4.001 4.001 0 01-1.52 1.52c-.64.363-1.376.544-2.208.544zm-4.496-.096V6.628h1.536v5.648l-.16 1.968.096 1.968V18.5h-1.472zm4.368-1.248a2.87 2.87 0 001.456-.368 2.598 2.598 0 001.024-1.04c.256-.459.384-.987.384-1.584 0-.608-.128-1.13-.384-1.568a2.598 2.598 0 00-1.024-1.04 2.868 2.868 0 00-1.456-.368 2.93 2.93 0 00-1.456.368 2.74 2.74 0 00-1.024 1.04c-.245.437-.368.96-.368 1.568 0 .597.123 1.125.368 1.584a2.74 2.74 0 001.024 1.04 2.93 2.93 0 001.456.368zm6.672 4.448c-.405 0-.8-.07-1.184-.208a2.701 2.701 0 01-.992-.576l.656-1.152c.214.203.448.357.704.464a2.1 2.1 0 00.816.16c.374 0 .683-.096.928-.288.246-.192.475-.533.688-1.024l.528-1.168.16-.192 3.328-7.696h1.504l-4.112 9.328c-.245.597-.522 1.067-.832 1.408-.298.341-.63.581-.992.72-.362.15-.762.224-1.2.224zm2.016-2.928L87.25 10.02h1.6l3.296 7.552-1.024 1.2z" fill="#CCD5E1"></path><g clip-path="url(#clip0_156_3639)" fill="#CCD5E1"><path d="M112.313 0A7.349 7.349 0 00105 7.389v2.44h5.942V6.295a1.275 1.275 0 01.37-.895 1.263 1.263 0 01.894-.37h.214a1.263 1.263 0 011.264 1.265v9.479a5.94 5.94 0 005.942-5.943V7.389a7.4 7.4 0 00-2.142-5.224A7.248 7.248 0 00112.313 0z"></path><path d="M112.42 20.571h-.214a1.26 1.26 0 01-.894-.37 1.277 1.277 0 01-.37-.894v-9.48A5.943 5.943 0 00105 15.772v2.406a7.316 7.316 0 0010.13 6.826 7.313 7.313 0 004.497-6.826v-2.406h-5.942v3.536a1.274 1.274 0 01-.371.894 1.252 1.252 0 01-.894.37zm17.363-13.067h-2.082V18.07h6.112v-1.993h-4.03V7.504zm10.699 3.913a2.969 2.969 0 00-2.46-1.102 3.415 3.415 0 00-2.588 1.156 4.251 4.251 0 000 5.66 3.418 3.418 0 002.588 1.155c1.057 0 1.877-.367 2.46-1.102v.891h1.947v-7.548h-1.947v.89zm-.596 4.416a2.033 2.033 0 01-1.501.596 2.011 2.011 0 01-1.495-.596 2.288 2.288 0 010-3.065 2.017 2.017 0 011.495-.596 2.039 2.039 0 011.501.596 2.265 2.265 0 010 3.065zm7.56-.24l-1.969-5.072h-2.128l3.093 7.306a2.32 2.32 0 01-.732 1.117 1.959 1.959 0 01-1.245.333v1.811a3.581 3.581 0 002.419-.657c.648-.489 1.168-1.272 1.561-2.35l2.751-7.56h-2.083l-1.667 5.073zm7.963-5.28a3.843 3.843 0 00-2.867 1.141 4.173 4.173 0 00.015 5.698c.755.755 1.756 1.132 3.003 1.133 1.449 0 2.546-.539 3.29-1.615l-1.569-.906a1.997 1.997 0 01-1.691.754c-1.157 0-1.866-.473-2.128-1.418h5.69c.049-.264.074-.532.076-.8a3.985 3.985 0 00-1.079-2.839 3.604 3.604 0 00-2.74-1.147zm-1.977 3.277a1.91 1.91 0 01.679-1.125 2.051 2.051 0 011.298-.4 1.97 1.97 0 011.185.378c.366.281.611.691.687 1.147h-3.849zm9.101-1.77v-1.298h-1.947v7.548h1.947v-3.608c0-.724.234-1.243.702-1.555a2.294 2.294 0 011.593-.362V10.37a2.74 2.74 0 00-1.397.363 2.033 2.033 0 00-.898 1.086zm11.786-2.682V7.504h-6.925v1.992h4.286l-4.398 6.91v1.664h7.121v-1.992h-4.482l4.398-6.94zm4.68 1.176a3.837 3.837 0 00-2.868 1.14 4.175 4.175 0 00.015 5.698c.755.755 1.756 1.132 3.004 1.133 1.448 0 2.545-.539 3.29-1.615l-1.57-.906a1.982 1.982 0 01-1.69.754c-1.157 0-1.867-.473-2.128-1.418h5.69c.048-.264.074-.532.075-.8a3.98 3.98 0 00-1.079-2.839 3.591 3.591 0 00-2.739-1.147zm-1.977 3.276a1.91 1.91 0 01.679-1.125 2.05 2.05 0 011.298-.4c.425-.006.841.127 1.185.378.366.281.611.691.686 1.147h-3.848zm9.101-1.77v-1.298h-1.947v7.548h1.947v-3.608c0-.724.233-1.243.702-1.555a2.292 2.292 0 011.592-.362V10.37a2.737 2.737 0 00-1.396.363c-.42.243-.738.629-.898 1.086zm6.734-1.507a3.954 3.954 0 00-3.843 3.218 3.952 3.952 0 002.394 4.403 3.958 3.958 0 005.428-4.063 3.963 3.963 0 00-1.142-2.403 3.853 3.853 0 00-2.837-1.155zm1.463 5.48a1.984 1.984 0 01-1.463.587 1.963 1.963 0 01-1.458-.588 2.211 2.211 0 010-2.989 1.965 1.965 0 011.458-.588 1.986 1.986 0 011.463.588 2.193 2.193 0 010 2.99zm6.619-.045h-2.37v2.325h2.37v-2.325z"></path></g><defs><clipPath id="clip0_156_3639"><path fill="#fff" transform="translate(105)" d="M0 0h96.087v26H0z"></path></clipPath></defs></svg>