<svg id="svg" version="1.1" xmlns="http://www.w3.org/2000/svg" xmlns:xlink="http://www.w3.org/1999/xlink" width="400" height="394.7119924457035" viewBox="0, 0, 400,394.7119924457035"><g id="svgg"><path id="path0" d="M283.097 39.349 C 270.628 40.606,258.114 45.710,247.781 53.755 C 244.905 55.994,222.852 77.777,222.852 78.379 C 222.852 78.738,259.804 115.722,305.111 160.709 L 319.937 175.430 329.214 166.185 C 346.195 149.263,351.234 142.231,355.442 129.592 C 371.304 81.941,333.118 34.308,283.097 39.349 M318.271 74.525 C 325.667 78.279,326.695 88.780,320.151 93.720 C 309.802 101.533,296.704 88.983,303.871 78.123 C 306.802 73.683,313.376 72.040,318.271 74.525 M278.155 79.068 C 286.220 82.760,287.115 93.753,279.755 98.724 C 273.981 102.624,266.422 100.622,263.296 94.366 C 258.521 84.811,268.426 74.614,278.155 79.068 M152.219 148.631 L 103.683 197.168 152.314 245.798 L 200.944 294.428 249.575 245.798 L 298.205 197.168 249.670 148.631 C 222.975 121.936,201.049 100.094,200.944 100.094 C 200.840 100.094,178.913 121.936,152.219 148.631 M312.059 113.704 C 317.565 115.233,321.179 121.531,319.788 127.169 C 316.546 140.308,297.466 138.151,297.466 124.646 C 297.466 116.922,304.542 111.617,312.059 113.704 M70.416 230.493 C 49.864 251.258,43.756 263.108,42.813 284.042 C 40.192 342.254,108.551 376.812,154.297 340.401 C 157.381 337.946,179.037 316.566,179.037 315.977 C 179.037 315.617,82.589 219.405,81.985 219.162 C 81.846 219.106,76.640 224.205,70.416 230.493 M98.122 259.508 C 107.079 263.984,106.485 276.756,97.156 280.279 C 89.805 283.054,81.842 277.559,81.858 269.722 C 81.875 261.199,90.574 255.736,98.122 259.508 M132.998 294.514 C 140.816 297.972,142.183 308.836,135.443 313.931 C 126.435 320.739,113.826 311.528,117.809 301.049 C 120.153 294.879,127.083 291.897,132.998 294.514 M93.424 299.263 C 100.505 302.505,102.324 311.852,96.949 317.382 C 89.730 324.810,77.378 319.861,77.378 309.540 C 77.378 301.082,85.722 295.737,93.424 299.263 " stroke="none" fill="#04fb43" fill-rule="evenodd"></path><path id="path1" d="M280.642 8.137 C 272.354 8.883,264.868 10.439,258.725 12.693 C 257.370 13.191,256.057 13.598,255.808 13.598 C 255.381 13.598,254.715 13.875,249.669 16.156 C 244.403 18.537,238.530 21.669,237.369 22.715 C 236.941 23.102,236.461 23.418,236.305 23.418 C 236.033 23.418,230.004 27.604,229.014 28.479 C 228.756 28.708,228.325 29.072,228.058 29.289 C 224.380 32.270,212.732 43.785,160.664 95.913 C 98.161 158.489,73.958 182.692,56.280 200.298 C 43.957 212.570,36.115 220.627,34.372 222.804 C 33.645 223.712,32.753 224.727,32.389 225.059 C 32.025 225.392,31.728 225.824,31.728 226.020 C 31.728 226.216,31.465 226.646,31.143 226.975 C 30.378 227.756,27.459 231.853,26.658 233.267 C 26.314 233.875,25.625 235.052,25.126 235.883 C 23.890 237.944,19.053 247.746,18.695 248.914 C 18.536 249.433,18.174 250.194,17.891 250.603 C 17.607 251.013,17.375 251.605,17.375 251.918 C 17.375 252.231,17.051 253.341,16.654 254.384 C 12.380 265.631,10.228 287.655,12.263 299.324 C 12.581 301.153,12.842 303.053,12.842 303.547 C 12.842 304.570,14.078 310.141,15.176 314.070 C 15.826 316.394,16.855 319.441,18.749 324.646 C 19.051 325.477,20.479 328.547,21.921 331.469 C 24.311 336.310,25.275 338.021,27.412 341.221 C 27.812 341.820,28.310 342.591,28.517 342.934 C 28.725 343.278,29.114 343.808,29.381 344.112 C 29.649 344.416,30.998 346.171,32.380 348.011 C 38.078 355.602,48.720 365.265,57.614 370.925 C 59.076 371.855,60.605 372.832,61.014 373.095 C 61.422 373.359,62.351 373.844,63.078 374.172 C 63.805 374.500,64.655 374.986,64.967 375.251 C 65.642 375.827,74.144 379.603,74.764 379.603 C 75.001 379.603,75.862 379.943,76.676 380.359 C 77.491 380.774,78.482 381.114,78.879 381.114 C 79.277 381.114,80.355 381.447,81.275 381.854 C 84.344 383.212,95.508 385.460,102.310 386.090 C 107.105 386.534,121.813 386.262,124.646 385.677 C 125.581 385.484,127.535 385.129,128.990 384.888 C 133.265 384.180,140.130 382.588,141.602 381.964 C 142.352 381.646,143.475 381.255,144.098 381.095 C 152.917 378.833,167.521 370.409,176.959 362.140 C 180.102 359.387,202.254 337.467,222.823 316.756 C 232.291 307.222,244.527 294.984,250.013 289.560 C 255.499 284.136,267.227 272.399,276.075 263.478 C 284.923 254.557,307.890 231.526,327.113 212.297 C 362.602 176.798,366.761 172.559,366.761 171.886 C 366.761 171.679,367.101 171.327,367.517 171.105 C 367.932 170.882,368.272 170.452,368.272 170.147 C 368.272 169.843,368.431 169.594,368.625 169.594 C 368.819 169.594,369.908 168.277,371.044 166.667 C 372.181 165.057,373.374 163.450,373.696 163.096 C 374.294 162.438,376.405 158.791,379.118 153.730 C 393.359 127.166,394.025 92.041,380.806 64.778 C 378.275 59.559,377.274 57.656,376.716 57.005 C 376.434 56.677,376.204 56.282,376.204 56.126 C 376.204 55.573,372.138 49.723,368.756 45.412 C 365.455 41.204,357.657 33.245,353.919 30.270 C 352.568 29.195,351.124 27.999,350.708 27.612 C 349.611 26.590,342.353 21.907,341.867 21.907 C 341.640 21.907,341.454 21.761,341.454 21.582 C 341.454 21.045,330.254 15.641,325.590 13.929 C 311.254 8.664,296.255 6.731,280.642 8.137 M297.102 39.306 C 341.059 43.588,369.447 87.520,355.442 129.592 C 351.234 142.231,346.195 149.263,329.214 166.185 L 319.937 175.430 305.111 160.709 C 259.804 115.722,222.852 78.738,222.852 78.379 C 222.852 77.777,244.905 55.994,247.781 53.755 C 262.021 42.668,279.386 37.581,297.102 39.306 M309.474 73.953 C 301.657 76.747,299.256 86.196,304.817 92.280 C 313.202 101.455,327.833 92.701,323.901 80.862 C 322.024 75.212,315.155 71.922,309.474 73.953 M270.511 78.339 C 263.672 80.065,260.106 87.984,263.296 94.366 C 268.644 105.069,284.797 101.260,284.797 89.296 C 284.797 82.002,277.666 76.533,270.511 78.339 M249.670 148.631 L 298.205 197.168 249.575 245.798 L 200.944 294.428 152.314 245.798 L 103.683 197.168 152.219 148.631 C 178.913 121.936,200.840 100.094,200.944 100.094 C 201.049 100.094,222.975 121.936,249.670 148.631 M303.767 114.465 C 299.542 116.576,297.466 119.931,297.466 124.646 C 297.466 138.151,316.546 140.308,319.788 127.169 C 322.058 117.969,312.277 110.213,303.767 114.465 M130.637 267.420 C 157.257 293.907,179.037 315.757,179.037 315.977 C 179.037 316.566,157.381 337.946,154.297 340.401 C 119.869 367.804,68.316 355.982,49.459 316.359 C 38.409 293.143,41.129 266.009,56.579 245.304 C 59.006 242.052,81.457 218.950,81.985 219.162 C 82.124 219.218,104.017 240.934,130.637 267.420 M89.404 258.902 C 77.816 263.036,80.201 280.075,92.486 280.922 C 102.556 281.616,108.341 269.675,101.636 262.038 C 98.868 258.885,93.390 257.481,89.404 258.902 M124.789 294.155 C 117.001 296.939,114.597 306.451,120.146 312.523 C 127.157 320.194,139.754 315.382,139.754 305.032 C 139.754 297.183,132.027 291.566,124.789 294.155 M86.012 298.408 C 75.680 300.998,74.202 315.110,83.772 319.809 C 93.311 324.493,103.600 314.210,98.961 304.627 C 96.705 299.967,90.905 297.181,86.012 298.408 " stroke="none" fill="#040404" fill-rule="evenodd"></path></g></svg>