<svg id="svg" xmlns="http://www.w3.org/2000/svg" xmlns:xlink="http://www.w3.org/1999/xlink" width="400" height="139.57055214723925" viewBox="0, 0, 400,139.57055214723925"><g id="svgg"><path id="path0" d="M62.832 11.427 C 61.550 13.470,58.573 20.541,56.601 26.227 C 56.133 27.577,55.705 28.732,55.650 28.795 C 55.402 29.077,50.839 25.487,44.785 20.246 C 36.000 12.641,33.643 10.736,33.021 10.736 C 30.761 10.736,30.967 27.732,33.282 32.209 C 34.017 33.630,33.813 33.681,32.676 32.362 C 31.496 30.993,31.346 31.253,31.944 33.629 C 32.419 35.515,31.963 36.905,30.034 39.453 C 28.207 41.867,28.210 41.878,30.452 40.967 C 31.418 40.574,32.209 40.323,32.209 40.409 C 32.209 40.895,29.020 44.904,26.699 47.334 L 24.008 50.153 25.179 50.983 C 27.435 52.582,28.250 55.975,27.036 58.718 C 25.673 61.800,23.830 63.396,9.853 73.595 C 5.120 77.049,5.165 77.253,12.182 84.293 C 17.916 90.046,18.853 90.583,23.125 90.559 C 25.887 90.543,26.679 90.381,34.049 88.314 C 38.520 87.061,44.301 87.267,47.194 88.782 C 47.841 89.121,47.490 89.195,44.348 89.383 C 41.137 89.575,38.161 89.960,36.777 90.361 C 36.441 90.459,36.330 90.743,36.427 91.251 C 36.634 92.338,35.855 94.365,34.061 97.401 C 32.112 100.701,32.087 100.681,35.852 98.792 C 37.554 97.938,39.010 97.239,39.088 97.239 C 39.166 97.239,38.896 97.968,38.488 98.859 C 37.039 102.025,36.923 107.082,38.232 110.056 L 38.734 111.196 39.098 109.509 C 39.670 106.861,40.432 104.814,41.437 103.230 C 42.526 101.513,42.776 101.562,42.349 103.410 C 41.579 106.753,42.171 112.938,43.513 115.552 L 44.081 116.661 44.254 113.929 C 44.466 110.571,45.024 108.934,46.981 105.937 C 48.637 103.401,49.117 103.125,48.189 105.244 C 44.785 113.016,48.041 122.637,56.589 130.061 C 59.859 132.902,59.823 132.891,59.314 130.926 C 57.866 125.346,59.916 119.201,64.781 114.535 C 67.747 111.691,68.261 111.540,66.987 113.890 C 65.194 117.201,64.351 120.301,64.343 123.620 C 64.335 127.075,64.799 128.872,65.144 126.717 C 65.605 123.835,67.783 120.909,71.806 117.770 C 77.415 113.393,79.450 111.585,80.829 109.750 C 83.792 105.808,85.048 102.247,85.094 97.652 C 85.126 94.497,85.336 94.334,86.104 96.871 C 87.328 100.920,86.597 105.971,84.214 109.929 C 82.899 112.113,83.561 111.818,86.124 109.077 C 89.433 105.541,90.971 102.042,91.343 97.212 L 91.564 94.325 92.539 96.012 C 93.075 96.940,93.752 98.646,94.042 99.803 C 94.646 102.212,94.742 102.145,95.766 98.593 C 96.357 96.543,96.466 95.441,96.467 91.505 L 96.469 86.845 97.470 88.591 C 98.534 90.448,99.693 93.765,99.693 94.953 C 99.693 96.506,100.282 95.906,100.742 93.884 C 101.566 90.258,101.363 85.968,100.129 80.982 C 99.928 80.169,102.918 82.984,104.690 85.276 L 105.520 86.350 105.344 84.816 C 105.061 82.364,104.039 79.231,102.561 76.288 C 101.806 74.785,101.248 73.496,101.320 73.424 C 101.565 73.179,104.434 74.280,106.689 75.484 L 108.930 76.680 108.069 75.078 C 106.944 72.984,102.923 68.987,99.841 66.900 C 96.719 64.786,96.652 64.722,97.892 65.023 C 102.125 66.053,107.020 67.226,107.608 67.353 C 110.258 67.922,98.273 57.053,91.943 53.146 C 89.808 51.828,89.852 51.724,92.370 52.132 C 94.554 52.486,97.313 52.514,99.373 52.201 L 100.740 51.994 93.655 48.006 C 86.718 44.102,85.688 43.315,88.037 43.712 C 90.694 44.161,88.577 42.006,84.579 40.194 L 82.607 39.299 82.402 37.097 C 82.135 34.227,81.796 33.584,81.316 35.039 C 81.120 35.633,80.516 36.744,79.974 37.506 L 78.988 38.893 78.988 35.474 L 78.988 32.055 77.252 28.471 C 74.756 23.319,69.700 15.963,65.536 11.426 C 64.051 9.809,63.848 9.809,62.832 11.427 M69.144 27.463 C 69.487 27.721,69.425 27.940,68.804 28.661 L 68.045 29.544 67.339 28.659 L 66.633 27.774 67.289 26.953 C 67.884 26.207,67.981 26.178,68.335 26.639 C 68.549 26.919,68.914 27.289,69.144 27.463 M43.625 27.664 C 43.156 28.132,42.810 27.786,43.070 27.109 C 43.224 26.709,43.357 26.670,43.630 26.943 C 43.903 27.215,43.901 27.387,43.625 27.664 M208.589 29.717 C 208.589 29.922,198.202 77.106,197.388 80.598 L 197.228 81.288 209.909 81.288 L 222.589 81.288 223.505 77.071 L 224.420 72.853 216.717 72.699 L 209.013 72.546 211.229 62.577 L 213.444 52.607 213.470 59.586 L 213.497 66.564 217.438 66.564 L 221.380 66.564 225.142 59.340 C 227.212 55.366,228.944 52.157,228.992 52.208 C 229.058 52.279,226.745 62.808,225.956 66.028 C 225.834 66.524,226.244 66.564,231.394 66.563 L 236.963 66.562 240.927 48.695 C 243.108 38.868,244.953 30.515,245.029 30.132 L 245.166 29.435 238.658 29.518 L 232.150 29.601 226.428 39.262 L 220.706 48.922 220.625 39.185 L 220.544 29.448 214.566 29.448 C 211.279 29.448,208.589 29.569,208.589 29.717 M248.310 29.831 C 248.168 30.227,243.558 51.733,243.558 51.998 C 243.558 52.080,247.078 52.147,251.380 52.147 C 255.737 52.147,259.202 52.268,259.202 52.420 C 259.202 52.570,258.512 55.746,257.669 59.479 C 256.825 63.212,256.135 66.333,256.135 66.415 C 256.135 66.497,258.620 66.564,261.656 66.564 C 264.693 66.564,267.178 66.504,267.178 66.431 C 267.178 66.358,268.972 58.189,271.166 48.278 C 273.359 38.366,275.153 30.072,275.153 29.845 C 275.153 29.513,274.102 29.450,269.711 29.517 L 264.268 29.601 263.039 35.352 L 261.810 41.103 259.001 41.104 C 256.484 41.104,256.205 41.049,256.315 40.567 C 257.307 36.210,258.589 30.174,258.589 29.857 C 258.589 29.281,248.516 29.256,248.310 29.831 M287.378 33.673 L 285.031 37.883 294.096 37.965 C 299.081 38.009,303.221 37.986,303.295 37.912 C 303.424 37.782,303.098 35.363,302.413 31.365 L 302.084 29.448 295.904 29.455 L 289.724 29.463 287.378 33.673 M67.772 37.766 C 67.516 38.244,67.344 38.290,66.833 38.016 C 66.236 37.697,66.232 37.653,66.739 37.093 C 67.438 36.321,68.259 36.856,67.772 37.766 M54.233 37.791 C 54.777 38.335,54.680 39.508,54.064 39.830 C 53.217 40.274,52.147 39.716,52.147 38.829 C 52.147 37.700,53.479 37.037,54.233 37.791 M283.213 42.234 C 282.913 42.686,279.685 48.311,276.039 54.734 L 269.410 66.411 275.571 66.494 C 278.959 66.540,281.894 66.515,282.092 66.439 C 282.291 66.363,284.158 62.980,286.242 58.922 L 290.031 51.543 291.921 51.538 L 293.811 51.534 293.982 52.684 C 294.076 53.317,294.388 56.699,294.674 60.199 L 295.195 66.564 301.279 66.564 C 304.624 66.564,307.362 66.530,307.362 66.488 C 307.362 66.446,306.604 60.890,305.678 54.141 C 304.752 47.393,303.992 41.768,303.991 41.641 C 303.989 41.515,299.436 41.411,293.872 41.411 L 283.756 41.411 283.213 42.234 M77.504 44.346 C 77.760 45.012,77.111 45.639,76.646 45.174 C 76.254 44.781,76.497 43.865,76.994 43.865 C 77.173 43.865,77.403 44.081,77.504 44.346 M36.963 47.239 C 36.815 47.479,36.638 47.497,36.434 47.293 C 36.265 47.124,36.227 46.824,36.350 46.626 C 36.498 46.386,36.675 46.368,36.879 46.572 C 37.048 46.741,37.086 47.041,36.963 47.239 M72.326 51.202 C 72.650 51.637,73.523 52.223,74.265 52.503 C 75.383 52.925,75.508 53.047,75.000 53.215 C 72.415 54.073,71.678 54.896,71.283 57.365 C 71.056 58.784,70.761 58.549,70.426 56.681 C 70.148 55.132,68.925 53.749,67.616 53.503 C 66.069 53.213,66.116 52.955,67.826 52.348 C 69.466 51.765,69.872 51.197,70.595 48.466 L 70.961 47.086 71.349 48.748 C 71.562 49.662,72.001 50.766,72.326 51.202 M58.995 48.343 C 58.877 48.651,58.710 48.710,58.514 48.514 C 58.162 48.162,58.502 47.456,58.904 47.704 C 59.053 47.797,59.094 48.084,58.995 48.343 M48.984 55.691 C 49.169 56.250,47.285 58.780,46.044 59.641 C 44.861 60.461,40.093 61.667,39.677 61.252 C 39.023 60.597,41.455 56.506,42.951 55.746 C 44.145 55.139,48.787 55.097,48.984 55.691 M84.606 56.518 C 84.690 57.247,84.595 57.362,83.906 57.362 C 83.058 57.362,82.638 56.752,82.941 55.960 C 83.259 55.132,84.494 55.546,84.606 56.518 M61.840 60.920 C 61.704 61.275,61.534 61.350,61.330 61.146 C 61.161 60.977,61.115 60.599,61.227 60.307 C 61.363 59.952,61.533 59.877,61.738 60.081 C 61.907 60.250,61.953 60.628,61.840 60.920 M27.324 65.115 C 27.286 65.482,26.865 65.411,26.733 65.015 C 26.666 64.813,26.776 64.702,26.979 64.770 C 27.181 64.837,27.336 64.993,27.324 65.115 M86.661 66.538 C 86.237 66.962,86.138 66.966,85.896 66.575 C 85.486 65.912,86.134 65.211,86.713 65.691 C 87.086 66.000,87.078 66.120,86.661 66.538 M81.565 66.375 C 81.838 66.704,81.806 66.842,81.424 66.989 C 80.712 67.262,80.675 67.241,80.675 66.564 C 80.675 65.851,81.062 65.769,81.565 66.375 M69.632 66.718 C 69.632 66.971,69.494 67.178,69.325 67.178 C 69.156 67.178,69.018 66.971,69.018 66.718 C 69.018 66.465,69.156 66.258,69.325 66.258 C 69.494 66.258,69.632 66.465,69.632 66.718 M57.450 69.360 C 56.932 69.878,56.317 69.385,56.782 68.825 C 57.039 68.515,57.250 68.477,57.472 68.699 C 57.693 68.920,57.687 69.123,57.450 69.360 M46.319 71.305 C 46.319 71.688,45.154 72.904,45.010 72.672 C 44.967 72.603,44.669 72.234,44.348 71.853 C 43.770 71.167,43.772 71.151,44.501 70.375 L 45.237 69.591 45.778 70.259 C 46.076 70.626,46.319 71.097,46.319 71.305 M90.324 71.451 C 90.551 71.818,89.974 72.182,89.566 71.929 C 89.222 71.717,89.448 71.166,89.877 71.166 C 90.026 71.166,90.227 71.294,90.324 71.451 M38.650 72.086 C 38.650 72.255,38.443 72.393,38.190 72.393 C 37.937 72.393,37.730 72.255,37.730 72.086 C 37.730 71.917,37.937 71.779,38.190 71.779 C 38.443 71.779,38.650 71.917,38.650 72.086 M128.408 73.236 C 128.158 74.067,126.687 80.724,126.687 81.023 C 126.687 81.169,130.936 81.288,136.128 81.288 C 146.215 81.288,146.933 81.391,146.933 82.832 C 146.933 84.202,145.782 84.356,135.521 84.356 L 125.920 84.356 123.215 96.549 C 121.726 103.255,120.440 108.984,120.357 109.279 C 120.215 109.776,120.607 109.816,125.581 109.816 L 130.958 109.816 131.255 108.666 C 131.419 108.033,132.210 104.520,133.013 100.860 L 134.473 94.205 140.933 94.112 C 148.390 94.004,149.599 93.669,152.307 90.960 C 157.870 85.398,156.654 74.396,150.327 73.039 C 147.414 72.414,128.604 72.583,128.408 73.236 M163.685 73.215 C 163.497 73.822,161.963 80.871,161.963 81.130 C 161.963 81.217,166.311 81.288,171.626 81.288 C 181.709 81.288,182.538 81.399,182.511 82.745 C 182.482 84.170,181.118 84.356,170.686 84.356 C 165.382 84.356,161.043 84.438,161.043 84.539 C 161.043 84.769,155.844 108.549,155.634 109.279 C 155.492 109.776,155.882 109.816,160.863 109.816 C 166.194 109.816,166.247 109.809,166.403 109.126 C 166.489 108.746,167.188 105.537,167.956 101.994 C 168.724 98.451,169.450 95.314,169.569 95.022 C 169.712 94.671,170.663 97.072,172.390 102.154 L 174.995 109.816 180.433 109.816 C 184.647 109.816,185.841 109.730,185.741 109.433 C 185.132 107.624,181.256 93.797,181.337 93.721 C 181.394 93.667,182.339 93.248,183.436 92.790 C 188.453 90.695,190.491 87.751,190.491 82.598 C 190.491 77.673,189.218 74.747,186.536 73.506 C 184.477 72.554,163.972 72.293,163.685 73.215 M230.368 72.820 C 230.368 72.886,229.954 74.764,229.448 76.994 C 228.942 79.223,228.528 81.102,228.528 81.168 C 228.528 81.234,230.676 81.288,233.303 81.288 C 237.709 81.288,238.065 81.330,237.914 81.825 C 237.590 82.882,231.902 108.952,231.902 109.380 C 231.902 109.740,232.832 109.816,237.264 109.816 L 242.626 109.816 242.838 108.974 C 242.954 108.511,244.372 102.127,245.990 94.787 L 248.930 81.442 253.670 81.288 L 258.409 81.135 259.377 76.917 L 260.344 72.699 245.356 72.699 C 237.113 72.699,230.368 72.754,230.368 72.820 M265.524 73.236 C 265.275 74.067,263.804 80.724,263.804 81.023 C 263.804 81.169,269.376 81.288,276.187 81.288 L 288.570 81.288 288.925 79.525 C 289.121 78.554,289.538 76.622,289.852 75.230 L 290.424 72.699 278.055 72.699 C 266.540 72.699,265.674 72.736,265.524 73.236 M300.767 80.998 C 296.887 85.552,293.725 89.448,293.742 89.657 C 293.759 89.866,295.201 94.487,296.947 99.926 L 300.122 109.816 312.125 109.816 L 324.129 109.816 324.965 105.752 C 325.426 103.516,325.878 101.377,325.971 100.997 L 326.140 100.307 317.070 100.307 L 307.999 100.307 307.702 99.156 C 307.539 98.524,306.983 96.370,306.467 94.370 L 305.529 90.735 306.369 89.726 C 306.831 89.170,308.658 87.055,310.429 85.025 L 313.650 81.334 321.961 81.311 L 330.272 81.288 331.288 77.377 C 331.847 75.226,332.367 73.294,332.443 73.083 C 332.552 72.780,329.978 72.701,320.202 72.709 L 307.822 72.719 300.767 80.998 M338.837 73.236 C 338.587 74.067,337.117 80.724,337.117 81.023 C 337.117 81.169,342.689 81.288,349.500 81.288 L 361.883 81.288 362.238 79.525 C 362.433 78.554,362.851 76.622,363.165 75.230 L 363.737 72.699 351.368 72.699 C 339.853 72.699,338.987 72.736,338.837 73.236 M369.973 73.850 C 369.810 74.482,368.001 82.592,365.953 91.871 C 363.905 101.150,362.160 108.985,362.075 109.282 C 361.928 109.793,362.631 109.818,374.892 109.743 L 387.864 109.663 388.693 105.982 C 389.149 103.957,389.608 101.852,389.713 101.304 L 389.905 100.307 382.217 100.307 L 374.528 100.307 374.694 99.617 C 375.048 98.139,380.675 72.924,380.675 72.815 C 380.675 72.751,378.334 72.699,375.472 72.699 L 370.269 72.699 369.973 73.850 M87.811 73.803 C 88.088 74.080,87.707 74.869,87.391 74.673 C 87.240 74.580,87.117 74.305,87.117 74.062 C 87.117 73.610,87.482 73.474,87.811 73.803 M60.429 76.401 C 60.429 77.133,59.614 77.517,58.949 77.097 C 58.252 76.658,58.190 76.210,58.750 75.650 C 59.375 75.024,60.429 75.496,60.429 76.401 M25.903 76.353 C 26.235 76.890,25.732 77.654,25.289 77.286 C 25.066 77.101,24.959 76.752,25.051 76.511 C 25.242 76.014,25.647 75.939,25.903 76.353 M36.707 78.088 C 36.962 78.754,36.313 79.381,35.849 78.916 C 35.456 78.524,35.699 77.607,36.196 77.607 C 36.376 77.607,36.605 77.824,36.707 78.088 M53.681 79.090 C 53.681 79.489,53.316 79.755,53.020 79.572 C 52.702 79.376,52.976 78.834,53.392 78.834 C 53.551 78.834,53.681 78.949,53.681 79.090 M73.926 79.583 C 73.926 79.826,73.798 80.105,73.641 80.202 C 73.276 80.427,72.909 79.853,73.160 79.448 C 73.442 78.991,73.926 79.077,73.926 79.583 M91.368 81.534 L 91.980 82.394 91.332 83.417 L 90.684 84.440 89.975 83.554 C 89.124 82.490,89.115 82.376,89.801 81.432 C 90.488 80.486,90.628 80.496,91.368 81.534 M76.874 82.447 C 77.656 82.871,78.552 85.626,77.970 85.820 C 77.771 85.886,77.607 86.212,77.607 86.544 C 77.607 87.982,73.112 88.461,72.384 87.101 C 70.685 83.925,73.747 80.751,76.874 82.447 M56.288 85.276 C 56.140 85.516,55.963 85.534,55.759 85.330 C 55.590 85.161,55.552 84.861,55.675 84.663 C 55.823 84.422,56.000 84.405,56.204 84.609 C 56.373 84.778,56.411 85.078,56.288 85.276 M194.350 96.549 C 192.879 103.255,191.607 108.984,191.523 109.279 C 191.379 109.784,192.107 109.816,203.780 109.816 L 216.191 109.816 216.375 109.082 C 216.658 107.957,221.779 84.656,221.779 84.496 C 221.779 84.419,219.812 84.356,217.408 84.356 L 213.037 84.357 211.423 91.773 C 210.536 95.851,209.760 99.238,209.700 99.298 C 209.640 99.358,208.077 99.368,206.227 99.320 L 202.863 99.233 204.483 92.025 C 205.374 88.060,206.110 84.712,206.119 84.586 C 206.128 84.459,204.085 84.356,201.579 84.356 L 197.024 84.356 194.350 96.549 M260.301 96.549 C 258.830 103.255,257.558 108.984,257.474 109.279 C 257.330 109.784,258.058 109.816,269.731 109.816 L 282.142 109.816 282.326 109.082 C 282.609 107.957,287.730 84.656,287.730 84.496 C 287.730 84.419,285.763 84.356,283.359 84.356 L 278.988 84.357 277.374 91.773 C 276.487 95.851,275.711 99.238,275.651 99.298 C 275.591 99.358,274.028 99.368,272.178 99.320 L 268.814 99.233 270.434 92.025 C 271.325 88.060,272.061 84.712,272.070 84.586 C 272.079 84.459,270.036 84.356,267.530 84.356 L 262.975 84.356 260.301 96.549 M333.614 96.549 C 332.143 103.255,330.871 108.984,330.787 109.279 C 330.643 109.784,331.371 109.816,343.044 109.816 L 355.455 109.816 355.639 109.082 C 355.922 107.957,361.043 84.656,361.043 84.496 C 361.043 84.419,359.076 84.356,356.672 84.356 L 352.301 84.357 350.687 91.773 C 349.800 95.851,349.024 99.238,348.964 99.298 C 348.904 99.358,347.341 99.368,345.491 99.320 L 342.127 99.233 343.747 92.025 C 344.638 88.060,345.374 84.712,345.383 84.586 C 345.392 84.459,343.349 84.356,340.843 84.356 L 336.288 84.356 333.614 96.549 M84.356 86.945 C 84.356 87.188,84.227 87.467,84.070 87.564 C 83.706 87.789,83.339 87.215,83.589 86.810 C 83.871 86.353,84.356 86.439,84.356 86.945 M65.927 95.156 L 66.978 95.680 66.234 95.964 C 65.224 96.350,64.510 97.199,63.982 98.640 C 63.616 99.640,63.536 99.715,63.517 99.080 C 63.484 97.969,62.401 96.354,61.445 95.990 L 60.621 95.677 61.584 95.091 C 62.640 94.449,63.492 93.064,63.506 91.963 C 63.512 91.509,63.758 91.858,64.197 92.945 C 64.716 94.233,65.126 94.756,65.927 95.156 M48.943 95.732 C 49.259 96.244,48.548 96.830,48.125 96.407 C 47.771 96.053,47.992 95.399,48.466 95.399 C 48.615 95.399,48.830 95.549,48.943 95.732 M76.994 104.728 C 76.994 105.338,76.223 105.866,75.652 105.647 C 75.067 105.423,74.979 104.101,75.537 103.901 C 76.072 103.709,76.994 104.232,76.994 104.728 M59.487 106.515 L 60.123 106.960 59.473 107.544 C 59.116 107.866,58.722 108.400,58.599 108.731 C 58.386 109.300,58.352 109.292,57.985 108.578 C 57.772 108.162,57.314 107.597,56.968 107.322 C 56.340 106.823,56.340 106.822,56.958 106.626 C 57.298 106.518,57.750 106.053,57.964 105.592 C 58.342 104.777,58.359 104.772,58.602 105.412 C 58.739 105.774,59.138 106.270,59.487 106.515 M55.368 115.900 C 55.368 116.455,54.768 116.353,54.649 115.778 C 54.582 115.459,54.697 115.318,54.955 115.404 C 55.182 115.480,55.368 115.703,55.368 115.900 " stroke="none" fill-rule="evenodd"></path></g></svg>