<svg id="svg" xmlns="http://www.w3.org/2000/svg" xmlns:xlink="http://www.w3.org/1999/xlink" width="400" height="432.9199549041714" viewBox="0, 0, 400,432.9199549041714"><g id="svgg"><path id="path0" d="M357.501 16.986 L 337.662 33.944 334.246 51.786 C 332.367 61.600,330.792 69.743,330.745 69.884 C 330.483 70.671,289.490 89.046,275.874 94.480 C 258.279 101.502,254.286 102.454,247.012 101.363 C 240.576 100.397,202.466 93.341,201.859 93.003 C 201.828 92.985,208.121 80.813,215.844 65.953 L 229.886 38.934 233.714 36.568 C 247.641 27.958,253.207 26.127,261.443 27.447 L 262.570 27.628 262.570 37.094 C 262.570 46.147,262.629 47.125,263.175 47.125 C 263.339 47.125,263.342 47.037,263.184 46.843 C 263.058 46.688,262.992 46.257,263.038 45.885 C 263.084 45.513,263.192 41.271,263.278 36.458 L 263.433 27.707 264.355 27.854 C 265.212 27.992,270.286 28.929,271.815 29.232 C 272.788 29.425,272.456 29.131,268.249 26.065 C 265.214 23.853,264.760 23.448,265.205 23.343 C 265.492 23.275,267.546 22.814,269.769 22.318 C 273.609 21.462,274.437 21.222,273.713 21.174 C 273.537 21.162,271.794 21.036,269.840 20.892 L 266.287 20.631 271.711 15.671 C 274.695 12.943,277.406 10.486,277.736 10.213 C 278.066 9.939,278.280 9.660,278.212 9.591 C 278.144 9.523,266.840 14.973,253.093 21.703 L 228.098 33.939 223.397 40.927 C 208.146 63.597,204.687 67.708,200.589 68.037 C 197.175 68.311,195.454 67.275,180.183 55.748 C 173.562 50.751,168.097 46.710,168.039 46.768 C 167.981 46.826,171.454 50.506,175.757 54.947 L 183.581 63.021 176.064 63.134 L 168.546 63.247 162.909 64.895 C 159.808 65.801,156.577 66.747,155.728 66.997 C 153.214 67.735,154.100 67.700,159.192 66.859 C 161.835 66.423,164.691 66.065,165.539 66.065 L 167.080 66.065 167.080 79.436 C 167.080 89.831,167.017 92.870,166.798 93.091 C 166.572 93.319,166.596 93.345,166.920 93.221 C 167.142 93.137,167.298 93.156,167.267 93.264 C 167.191 93.527,167.813 94.476,168.062 94.476 C 168.171 94.476,168.093 94.222,167.889 93.911 C 167.494 93.307,167.494 91.275,167.894 72.966 L 168.047 65.999 171.791 66.137 C 182.257 66.521,192.849 70.273,197.555 75.261 C 199.022 76.816,199.775 78.045,199.775 78.884 C 199.775 79.138,192.608 91.529,183.849 106.421 L 167.923 133.495 170.076 137.943 C 181.331 161.194,186.115 180.143,183.297 190.311 C 180.441 200.620,166.616 209.713,149.176 212.754 C 146.740 213.178,146.796 213.232,146.788 210.485 C 146.759 200.423,143.963 185.939,141.040 180.712 C 138.755 176.625,133.679 173.981,110.742 164.929 C 106.233 163.150,102.492 161.643,102.429 161.580 C 102.367 161.517,104.098 154.208,106.277 145.337 L 110.239 129.208 107.683 123.511 C 100.741 108.041,97.197 100.916,94.170 96.340 C 90.113 90.208,89.613 86.822,92.005 81.676 C 94.327 76.682,101.720 69.072,110.992 62.133 C 111.953 61.413,112.740 60.752,112.740 60.663 C 112.740 60.574,110.029 61.292,106.717 62.259 C 103.405 63.225,100.656 63.978,100.610 63.932 C 100.564 63.886,103.283 60.179,106.653 55.695 C 110.024 51.211,112.730 47.491,112.667 47.428 C 112.604 47.365,111.259 48.286,109.678 49.475 C 108.097 50.664,106.769 51.602,106.726 51.559 C 106.683 51.516,107.211 49.017,107.899 46.005 C 109.305 39.851,109.312 39.679,108.050 41.981 C 106.107 45.526,82.489 89.577,82.151 90.285 L 81.792 91.037 86.008 96.195 C 95.231 107.480,100.586 116.528,101.785 122.855 C 103.091 129.750,100.620 142.325,95.374 155.468 C 93.721 159.611,93.574 159.914,93.281 159.790 C 92.608 159.507,67.296 147.841,67.223 147.780 C 67.178 147.743,66.453 142.913,65.611 137.047 C 61.250 106.643,60.659 104.878,52.462 97.801 C 47.654 93.649,46.577 92.651,46.253 92.045 C 45.421 90.493,46.057 84.043,47.987 74.474 L 49.042 69.242 60.728 58.615 C 67.156 52.770,72.365 47.938,72.305 47.878 C 72.244 47.817,66.478 52.052,59.491 57.288 C 52.504 62.524,46.771 66.818,46.752 66.831 C 46.733 66.844,46.150 69.909,45.457 73.643 C 43.176 85.924,40.990 91.372,37.969 92.309 C 36.682 92.708,25.873 90.543,7.592 86.225 C 3.645 85.292,0.311 84.564,0.184 84.606 C 0.058 84.648,6.559 87.158,14.631 90.182 C 22.704 93.207,29.281 95.710,29.247 95.743 C 29.214 95.777,25.181 97.290,20.286 99.107 C 15.392 100.923,11.285 102.516,11.161 102.647 C 11.007 102.810,11.043 102.848,11.274 102.768 C 26.514 97.493,43.734 97.404,50.228 102.566 C 56.884 107.857,60.540 124.105,60.154 146.678 L 60.050 152.769 97.263 167.654 L 134.476 182.539 141.861 216.241 C 145.922 234.778,149.250 250.050,149.256 250.179 C 149.263 250.333,146.084 250.553,140.079 250.813 C 124.384 251.494,124.078 251.526,129.144 251.955 L 132.018 252.198 132.018 262.514 C 132.018 270.616,132.079 272.830,132.300 272.830 C 132.506 272.830,132.584 272.236,132.589 270.631 C 132.602 266.848,132.997 252.498,133.090 252.404 C 133.442 252.053,149.641 253.772,150.088 254.208 C 150.855 254.956,175.898 289.366,179.393 294.476 C 191.837 312.664,198.645 324.820,198.650 328.861 C 198.653 330.972,187.144 340.559,166.178 355.910 C 164.008 357.499,162.196 358.830,162.151 358.868 C 162.107 358.906,162.824 360.135,163.744 361.599 C 173.184 376.616,175.811 386.803,172.140 394.153 C 169.157 400.124,160.569 409.489,150.646 417.592 C 147.723 419.978,147.357 419.945,157.088 418.179 C 179.854 414.049,190.110 413.104,193.687 414.808 C 197.212 416.487,198.946 419.954,198.938 425.304 C 198.935 427.021,199.007 427.680,199.185 427.574 C 199.323 427.492,201.426 426.185,203.857 424.668 C 225.432 411.211,244.385 413.727,253.268 431.229 C 254.321 433.303,254.328 433.298,254.764 429.977 C 255.629 423.392,258.611 417.045,261.265 416.141 C 266.715 414.284,285.809 416.075,312.925 420.988 C 317.058 421.736,320.541 422.315,320.667 422.273 C 320.792 422.231,319.034 421.346,316.760 420.305 C 311.142 417.733,295.062 409.776,290.079 407.102 C 280.245 401.825,269.990 393.907,252.643 378.198 L 244.295 370.638 245.818 363.278 C 248.335 351.118,249.701 343.395,250.181 338.614 C 250.367 336.771,250.461 336.939,246.910 332.807 C 234.909 318.845,229.713 310.540,230.299 306.259 C 230.806 302.560,237.469 293.919,248.507 282.644 L 252.707 278.354 266.297 253.041 L 279.887 227.727 282.841 225.541 C 287.839 221.841,291.294 220.474,295.603 220.490 C 300.157 220.507,303.819 222.261,317.198 230.835 L 320.867 233.187 320.745 243.087 C 320.675 248.729,320.707 252.988,320.820 252.988 C 321.118 252.988,321.288 249.874,321.454 241.432 C 321.536 237.246,321.636 233.822,321.677 233.822 C 321.717 233.822,324.147 235.451,327.077 237.443 C 330.007 239.435,332.449 241.019,332.504 240.965 C 332.558 240.910,327.976 236.834,322.322 231.906 C 316.667 226.978,312.074 222.913,312.115 222.872 C 312.155 222.832,315.585 221.285,319.736 219.435 C 333.452 213.322,340.451 209.422,343.157 206.386 C 346.059 203.130,349.428 194.435,353.802 178.918 C 354.955 174.825,355.916 171.447,355.938 171.410 C 356.028 171.259,365.595 167.651,368.320 166.741 C 374.869 164.552,377.686 164.159,381.284 164.931 C 382.936 165.285,388.112 166.719,389.123 167.103 L 389.632 167.296 389.611 180.767 C 389.599 188.486,389.502 194.403,389.383 194.625 C 389.150 195.060,389.414 195.333,389.889 195.150 C 390.136 195.055,390.207 192.521,390.274 181.339 C 390.320 173.807,390.377 167.620,390.402 167.591 C 390.427 167.563,391.854 168.043,393.574 168.658 C 396.197 169.598,397.299 169.877,396.825 169.482 C 396.773 169.439,394.878 168.016,392.613 166.319 L 388.495 163.233 389.250 162.056 C 389.665 161.409,392.264 157.397,395.024 153.141 C 397.785 148.885,399.994 145.353,399.934 145.293 C 399.873 145.232,396.959 148.283,393.458 152.073 C 389.958 155.862,386.992 158.963,386.868 158.963 C 385.938 158.963,352.728 162.643,352.607 162.759 C 352.521 162.841,349.391 171.280,345.651 181.511 C 341.911 191.742,338.734 200.232,338.591 200.378 C 338.448 200.524,332.088 204.292,324.458 208.752 L 310.584 216.860 299.092 214.301 C 292.770 212.894,287.465 211.713,287.303 211.677 C 287.086 211.630,308.203 194.397,310.914 192.409 C 312.877 190.969,308.921 193.136,297.754 199.618 L 284.472 207.328 265.855 236.569 L 247.238 265.811 227.959 275.850 C 212.996 283.643,208.622 285.829,208.418 285.617 C 208.090 285.277,185.570 250.996,185.423 250.613 C 185.364 250.460,186.179 248.305,187.233 245.824 C 192.935 232.407,198.866 217.068,201.426 209.121 C 204.430 199.792,204.226 198.417,196.948 179.030 C 188.962 157.760,188.924 154.977,196.640 156.600 C 202.930 157.923,219.338 165.594,233.702 173.928 C 235.311 174.861,236.672 175.579,236.728 175.523 C 236.856 175.395,240.009 177.739,212.627 157.608 C 199.419 147.898,188.574 139.921,188.525 139.881 C 188.136 139.560,190.743 130.251,192.431 125.934 C 197.809 112.179,204.329 106.948,217.998 105.422 C 228.675 104.229,243.894 105.462,248.919 107.927 C 252.085 109.480,256.290 114.131,259.723 119.878 L 261.318 122.548 261.268 135.344 C 261.235 143.796,261.294 148.114,261.443 148.065 C 261.726 147.972,261.933 141.694,261.988 131.567 L 262.030 123.901 263.160 126.123 C 263.781 127.345,264.333 128.301,264.386 128.248 C 264.439 128.195,263.306 123.914,261.868 118.733 C 260.430 113.553,259.341 109.231,259.447 109.130 C 260.198 108.410,288.852 99.308,291.353 98.994 C 300.788 97.811,314.804 99.925,337.880 106.010 C 347.801 108.625,356.551 110.780,362.007 111.950 C 366.517 112.917,375.053 114.527,375.156 114.430 C 375.195 114.393,373.235 112.602,370.800 110.451 L 366.372 106.539 369.375 106.385 C 371.027 106.300,374.197 106.162,376.420 106.077 C 378.642 105.993,380.316 105.848,380.140 105.756 C 379.964 105.664,376.547 104.942,372.548 104.152 C 368.548 103.361,365.276 102.661,365.276 102.595 C 365.276 102.529,368.599 101.373,372.661 100.026 C 379.637 97.713,381.560 96.964,379.707 97.282 C 379.273 97.356,372.176 98.326,363.935 99.437 L 348.953 101.458 324.589 96.489 C 311.189 93.757,300.155 91.501,300.068 91.476 C 299.982 91.452,308.581 87.991,319.178 83.786 L 338.444 76.139 338.449 72.286 C 338.463 61.608,339.071 47.854,339.681 44.419 C 340.777 38.246,345.198 36.384,355.224 37.873 C 360.083 38.595,365.532 38.846,372.549 38.672 C 380.496 38.475,381.178 38.308,376.086 37.805 C 364.261 36.638,355.109 34.186,353.192 31.672 C 352.119 30.265,352.681 28.819,355.997 24.464 C 359.408 19.984,372.235 5.557,375.644 2.368 C 376.566 1.505,377.774 -0.004,377.527 0.014 C 377.424 0.022,368.412 7.659,357.501 16.986 M253.890 43.974 C 254.831 44.804,255.801 45.288,256.042 45.048 C 256.098 44.992,255.662 44.603,255.073 44.185 C 254.484 43.766,253.968 43.343,253.927 43.245 C 253.886 43.147,253.632 43.070,253.363 43.073 C 252.948 43.079,253.027 43.214,253.890 43.974 M264.050 47.463 C 264.050 47.587,264.199 47.886,264.381 48.127 C 264.564 48.367,264.713 48.463,264.713 48.339 C 264.713 48.215,264.564 47.916,264.381 47.676 C 264.199 47.435,264.050 47.339,264.050 47.463 M254.288 55.693 C 254.667 56.251,255.189 56.885,255.448 57.100 C 256.288 57.801,255.927 57.189,254.748 55.919 L 253.599 54.679 254.288 55.693 M266.521 56.058 C 266.528 56.320,267.407 57.441,267.413 57.195 C 267.416 57.090,267.215 56.747,266.967 56.431 C 266.719 56.116,266.519 55.948,266.521 56.058 M159.639 90.150 C 159.639 90.441,161.061 91.017,161.528 90.916 C 161.895 90.836,161.865 90.767,161.302 90.397 C 160.645 89.963,159.639 89.814,159.639 90.150 M23.634 108.850 C 23.611 113.780,23.625 119.799,23.663 122.226 C 23.711 125.209,23.651 126.794,23.478 127.117 C 23.205 127.627,23.429 127.927,23.937 127.732 C 24.444 127.537,24.550 99.887,24.043 99.887 C 23.710 99.887,23.671 100.730,23.634 108.850 M162.246 102.473 C 162.486 102.655,162.785 102.804,162.909 102.804 C 163.033 102.804,162.937 102.655,162.696 102.473 C 162.456 102.291,162.157 102.142,162.033 102.142 C 161.909 102.142,162.005 102.291,162.246 102.473 M16.460 124.915 C 16.894 125.153,17.554 125.351,17.926 125.355 L 18.602 125.363 17.926 124.915 C 17.554 124.669,16.894 124.471,16.460 124.475 L 15.671 124.483 16.460 124.915 M17.275 135.576 C 17.352 135.796,17.631 136.088,17.896 136.223 C 18.307 136.435,18.329 136.425,18.049 136.161 C 17.868 135.990,17.589 135.699,17.428 135.513 C 17.173 135.218,17.153 135.227,17.275 135.576 M254.297 145.242 C 254.831 145.487,255.490 145.653,255.762 145.611 C 256.528 145.492,255.027 144.752,254.070 144.777 L 253.326 144.796 254.297 145.242 M262.120 150.056 C 262.120 150.591,262.196 150.981,262.289 150.923 C 262.382 150.866,262.458 150.476,262.458 150.056 C 262.458 149.637,262.382 149.247,262.289 149.189 C 262.196 149.132,262.120 149.522,262.120 150.056 M254.757 155.806 C 255.129 156.178,255.511 156.483,255.605 156.483 C 255.700 156.483,255.486 156.178,255.130 155.806 C 254.773 155.434,254.391 155.130,254.281 155.130 C 254.171 155.130,254.385 155.434,254.757 155.806 M256.144 157.046 C 256.299 157.232,256.526 157.384,256.650 157.384 C 256.776 157.384,256.752 157.235,256.595 157.046 C 256.441 156.860,256.213 156.708,256.089 156.708 C 255.963 156.708,255.988 156.858,256.144 157.046 M382.432 191.876 C 381.924 191.998,381.948 192.033,382.799 192.417 C 384.079 192.995,384.828 192.830,383.763 192.206 C 383.269 191.917,382.774 191.794,382.432 191.876 M382.906 202.818 C 383.175 203.129,383.478 203.382,383.579 203.382 C 383.680 203.382,383.542 203.129,383.272 202.818 C 383.003 202.508,382.700 202.255,382.599 202.255 C 382.498 202.255,382.636 202.508,382.906 202.818 M311.161 249.480 C 311.161 249.795,313.707 251.595,313.996 251.485 C 314.233 251.393,313.931 251.062,312.976 250.367 C 311.759 249.482,311.161 249.190,311.161 249.480 M321.615 253.553 C 322.438 253.982,322.646 253.984,322.084 253.558 C 321.843 253.376,321.494 253.225,321.308 253.222 C 321.122 253.218,321.260 253.367,321.615 253.553 M313.459 263.229 C 314.041 263.797,314.650 264.261,314.812 264.261 C 314.974 264.260,314.777 264.059,314.374 263.813 C 313.971 263.567,313.641 263.275,313.641 263.163 C 313.641 263.052,313.362 262.789,313.021 262.579 C 312.624 262.334,312.781 262.568,313.459 263.229 M122.661 269.394 C 122.661 269.745,125.065 271.438,125.330 271.274 C 125.506 271.165,125.228 270.844,124.524 270.343 C 123.933 269.922,123.416 269.498,123.375 269.400 C 123.278 269.172,122.661 269.166,122.661 269.394 M133.530 273.947 C 133.841 274.445,134.060 274.383,133.857 273.854 C 133.783 273.663,133.618 273.506,133.489 273.506 C 133.340 273.506,133.355 273.668,133.530 273.947 " stroke="none" fill="#8c5d0f" fill-rule="evenodd"></path></g></svg>