<svg id="svg" version="1.1" xmlns="http://www.w3.org/2000/svg" xmlns:xlink="http://www.w3.org/1999/xlink" width="400" height="123.72372372372372" viewBox="0, 0, 400,123.72372372372372"><g id="svgg"><path id="path0" d="M34.942 8.638 C 34.781 8.816,34.667 9.224,34.667 9.618 C 34.667 10.194,34.581 10.359,34.083 10.739 L 33.500 11.184 33.500 13.739 L 33.500 16.294 32.917 16.739 L 32.333 17.184 32.333 19.181 L 32.333 21.178 31.750 21.522 L 31.167 21.866 31.167 24.435 C 31.167 26.862,31.147 27.019,30.808 27.293 C 29.855 28.064,29.833 28.112,29.833 29.417 C 29.833 31.560,27.682 31.333,48.058 31.333 C 64.855 31.333,65.627 31.320,65.891 31.029 C 66.223 30.661,66.322 9.269,65.994 8.656 C 65.731 8.165,35.386 8.148,34.942 8.638 M97.143 8.958 C 96.816 9.302,96.425 9.680,96.274 9.798 C 96.095 9.939,96.000 10.263,96.000 10.737 C 96.000 11.368,95.925 11.517,95.417 11.905 C 94.915 12.288,94.833 12.447,94.833 13.043 C 94.833 13.688,94.748 13.816,93.583 14.922 C 92.422 16.025,92.333 16.157,92.333 16.796 C 92.333 17.385,92.250 17.546,91.750 17.928 C 91.225 18.329,91.167 18.453,91.167 19.182 C 91.167 19.905,91.116 20.018,90.687 20.240 C 90.128 20.529,90.000 20.793,90.000 21.661 C 90.000 22.188,89.903 22.368,89.417 22.739 C 88.916 23.120,88.833 23.281,88.833 23.871 C 88.833 24.509,88.745 24.642,87.583 25.745 C 86.425 26.844,86.333 26.982,86.333 27.613 C 86.333 28.195,86.249 28.358,85.750 28.739 C 85.226 29.138,85.167 29.265,85.167 29.983 C 85.167 31.464,83.174 31.333,105.721 31.333 C 128.423 31.333,126.333 31.477,126.333 29.921 C 126.333 29.268,126.393 29.144,126.813 28.927 C 127.456 28.595,127.500 28.429,127.500 26.328 L 127.500 24.517 128.083 24.072 L 128.667 23.627 128.667 21.083 L 128.667 18.540 129.250 18.095 L 129.833 17.650 129.833 15.662 C 129.833 13.675,129.834 13.674,130.292 13.383 C 130.544 13.222,130.805 13.014,130.872 12.921 C 131.086 12.623,131.022 8.755,130.800 8.533 C 130.647 8.380,126.726 8.333,114.169 8.333 L 97.737 8.333 97.143 8.958 M150.072 8.917 C 149.630 9.496,149.619 9.500,148.314 9.500 C 146.693 9.500,146.333 9.757,146.333 10.912 C 146.333 11.565,146.274 11.689,145.854 11.906 C 145.211 12.239,145.167 12.405,145.167 14.494 L 145.167 16.294 144.583 16.739 L 144.000 17.184 144.000 19.739 L 144.000 22.294 143.417 22.739 L 142.833 23.184 142.833 25.171 C 142.833 27.158,142.833 27.159,142.375 27.451 C 141.700 27.880,141.672 27.960,141.669 29.446 C 141.667 30.466,141.733 30.876,141.929 31.071 C 142.367 31.510,209.660 31.468,210.058 31.029 C 210.281 30.782,210.333 30.355,210.333 28.784 C 210.333 27.042,210.366 26.828,210.654 26.674 C 211.438 26.254,211.500 26.064,211.500 24.080 L 211.500 22.184 212.083 21.739 L 212.667 21.294 212.667 18.776 L 212.667 16.257 213.333 15.648 L 214.000 15.039 214.000 13.107 L 214.000 11.175 214.480 10.927 C 215.038 10.638,215.167 10.373,215.167 9.512 C 215.167 8.219,218.340 8.333,182.537 8.333 L 150.517 8.333 150.072 8.917 M230.776 8.638 C 230.615 8.816,230.500 9.224,230.500 9.618 C 230.500 10.194,230.414 10.359,229.917 10.739 L 229.333 11.184 229.333 13.739 L 229.333 16.294 228.750 16.739 L 228.167 17.184 228.167 19.047 L 228.167 20.909 227.500 21.519 L 226.833 22.128 226.833 24.628 L 226.833 27.127 226.250 27.572 L 225.667 28.017 225.667 29.399 C 225.667 31.570,223.000 31.333,247.446 31.333 C 267.743 31.333,268.626 31.321,268.891 31.029 C 269.286 30.592,269.240 30.429,268.583 29.928 L 268.000 29.483 268.000 27.672 C 268.000 25.571,267.956 25.405,267.313 25.073 L 266.833 24.825 266.833 22.254 L 266.833 19.684 266.250 19.239 L 265.667 18.794 265.667 16.878 L 265.667 14.961 265.000 14.352 L 264.333 13.743 264.333 11.238 C 264.333 9.512,264.271 8.671,264.133 8.533 C 263.752 8.152,231.123 8.254,230.776 8.638 M282.429 8.595 C 282.272 8.752,282.167 9.145,282.167 9.575 C 282.167 10.201,282.091 10.352,281.583 10.739 L 281.000 11.184 281.000 13.755 L 281.000 16.326 280.542 16.619 C 279.736 17.134,279.678 17.311,279.672 19.238 L 279.667 21.060 279.083 21.594 L 278.500 22.128 278.500 24.044 L 278.500 25.960 277.917 26.405 L 277.333 26.850 277.333 28.816 C 277.333 31.645,275.749 31.333,290.112 31.333 C 304.203 31.333,302.832 31.532,302.836 29.487 C 302.839 28.131,302.872 28.044,303.542 27.617 C 304.000 27.326,304.000 27.325,304.000 25.338 L 304.000 23.350 304.583 22.905 L 305.167 22.460 305.167 19.925 L 305.167 17.389 305.833 16.853 L 306.500 16.318 306.500 13.746 L 306.500 11.175 306.980 10.927 C 307.741 10.534,307.967 9.157,307.362 8.609 C 306.907 8.198,282.839 8.184,282.429 8.595 M325.042 9.245 C 324.276 10.021,324.167 10.215,324.167 10.807 C 324.167 11.384,324.081 11.548,323.583 11.928 L 323.000 12.373 323.000 14.928 L 323.000 17.483 322.417 17.928 L 321.833 18.373 321.833 20.349 C 321.833 22.324,321.833 22.326,321.375 22.617 C 320.687 23.055,320.672 23.108,320.669 25.080 L 320.667 26.909 320.000 27.519 C 319.237 28.216,319.011 30.132,319.593 30.963 L 319.852 31.333 332.604 31.333 C 341.075 31.333,345.463 31.275,345.678 31.161 C 345.957 31.011,346.000 30.802,346.000 29.591 L 346.000 28.195 346.667 27.667 L 347.333 27.139 347.333 25.157 L 347.333 23.175 347.813 22.927 C 348.473 22.586,348.500 22.460,348.500 19.745 L 348.500 17.350 349.083 16.905 L 349.667 16.460 349.667 13.905 L 349.667 11.350 350.250 10.905 C 350.784 10.498,350.833 10.388,350.833 9.597 C 350.833 8.233,351.829 8.332,338.175 8.346 L 325.917 8.358 325.042 9.245 M367.428 8.917 C 367.041 9.424,366.889 9.500,366.267 9.500 C 365.202 9.500,365.000 9.813,365.000 11.467 C 365.000 12.794,364.989 12.830,364.520 13.073 C 363.877 13.405,363.833 13.571,363.833 15.672 L 363.833 17.483 363.250 17.928 L 362.667 18.373 362.667 20.917 L 362.667 23.460 362.083 23.905 L 361.500 24.350 361.500 26.879 L 361.500 29.408 360.825 29.995 C 360.176 30.561,360.160 30.597,360.418 30.958 L 360.686 31.333 374.167 31.333 L 387.648 31.333 387.907 30.963 C 388.113 30.669,388.167 30.091,388.167 28.149 L 388.167 25.706 388.750 25.261 L 389.333 24.816 389.333 22.829 C 389.333 20.842,389.334 20.841,389.792 20.549 C 390.490 20.105,390.495 20.084,390.497 17.470 C 390.500 14.892,390.536 14.760,391.346 14.326 C 391.635 14.172,391.667 13.958,391.667 12.169 L 391.667 10.184 392.250 9.739 C 392.853 9.279,392.980 8.880,392.633 8.533 C 392.481 8.381,389.482 8.333,380.153 8.333 L 367.873 8.333 367.428 8.917 M139.442 38.638 C 139.219 38.885,139.167 39.312,139.167 40.884 C 139.167 42.820,139.165 42.826,138.708 43.117 C 138.009 43.562,138.005 43.579,138.003 46.287 L 138.000 48.825 137.520 49.073 C 136.877 49.405,136.833 49.571,136.833 51.672 L 136.833 53.483 136.250 53.928 L 135.667 54.373 135.667 56.891 L 135.667 59.409 135.000 60.019 L 134.333 60.628 134.333 62.560 L 134.333 64.491 133.854 64.740 C 133.194 65.081,133.167 65.206,133.167 67.922 L 133.167 70.316 132.583 70.761 L 132.000 71.206 132.000 73.761 L 132.000 76.316 131.417 76.761 L 130.833 77.206 130.833 79.167 L 130.833 81.127 130.250 81.572 L 129.667 82.017 129.667 84.508 C 129.667 86.792,129.639 87.024,129.333 87.292 C 129.150 87.452,128.850 87.715,128.667 87.875 C 128.370 88.135,128.333 88.375,128.333 90.064 L 128.333 91.960 127.750 92.405 L 127.167 92.850 127.167 95.405 L 127.167 97.960 126.583 98.405 L 126.000 98.850 126.000 101.405 L 126.000 103.960 125.417 104.405 C 124.718 104.938,124.566 106.206,125.138 106.724 C 125.636 107.175,192.816 107.146,193.224 106.695 C 193.428 106.470,193.501 106.068,193.503 105.154 C 193.505 103.798,193.538 103.710,194.208 103.284 L 194.667 102.992 194.667 100.458 L 194.667 97.924 195.333 97.315 L 196.000 96.705 196.000 94.789 L 196.000 92.873 196.583 92.428 L 197.167 91.983 197.167 89.414 C 197.167 87.050,197.192 86.831,197.487 86.674 C 198.272 86.254,198.333 86.064,198.333 84.080 L 198.333 82.184 198.917 81.739 C 199.441 81.339,199.500 81.212,199.500 80.492 C 199.500 79.037,201.550 79.167,178.520 79.167 C 155.757 79.167,156.751 79.216,158.042 78.150 L 158.667 77.634 158.667 75.071 L 158.667 72.508 159.125 72.216 C 159.814 71.778,159.828 71.727,159.831 69.724 L 159.833 67.866 160.452 67.369 C 160.993 66.935,161.082 66.761,161.160 65.978 L 161.250 65.083 181.972 65.000 C 202.241 64.918,202.699 64.910,202.930 64.593 C 203.101 64.359,203.167 63.752,203.167 62.405 L 203.167 60.540 203.750 60.095 L 204.333 59.650 204.333 57.095 L 204.333 54.540 204.917 54.095 L 205.500 53.650 205.500 51.079 L 205.500 48.508 205.958 48.216 C 206.657 47.772,206.661 47.751,206.664 45.125 C 206.667 42.458,206.582 42.741,207.667 41.792 C 208.100 41.412,208.151 39.290,207.741 38.704 L 207.481 38.333 173.600 38.333 C 140.988 38.333,139.708 38.345,139.442 38.638 M27.776 39.805 C 27.552 40.052,27.500 40.478,27.500 42.051 C 27.500 43.987,27.499 43.993,27.042 44.284 C 26.353 44.722,26.339 44.773,26.336 46.783 L 26.333 48.650 25.750 49.095 L 25.167 49.540 25.167 52.058 L 25.167 54.576 24.500 55.185 L 23.833 55.795 23.833 58.294 L 23.833 60.794 23.250 61.239 L 22.667 61.684 22.667 63.671 L 22.667 65.658 22.187 65.906 C 21.527 66.247,21.500 66.373,21.500 69.088 L 21.500 71.483 20.917 71.928 L 20.333 72.373 20.333 74.333 L 20.333 76.294 19.750 76.739 L 19.167 77.184 19.167 79.687 L 19.167 82.191 18.500 82.790 L 17.833 83.388 17.833 85.247 L 17.833 87.105 17.250 87.622 L 16.667 88.138 16.667 90.633 L 16.667 93.127 16.083 93.572 L 15.500 94.017 15.500 96.005 C 15.500 97.991,15.500 97.992,15.042 98.284 C 14.343 98.728,14.339 98.749,14.336 101.375 C 14.333 104.042,14.418 103.759,13.333 104.708 C 12.880 105.105,12.884 106.146,13.340 106.635 L 13.680 107.000 25.772 107.000 L 37.864 107.000 38.849 106.025 L 39.833 105.049 39.833 103.222 L 39.833 101.395 40.417 100.878 L 41.000 100.362 41.000 97.867 L 41.000 95.373 41.583 94.928 L 42.167 94.483 42.167 92.511 L 42.167 90.540 42.750 90.095 L 43.333 89.650 43.333 87.069 L 43.333 84.489 43.917 84.145 L 44.500 83.800 44.500 81.232 C 44.500 78.805,44.520 78.647,44.858 78.373 C 45.853 77.568,45.833 77.624,45.833 75.603 L 45.833 73.706 46.417 73.261 L 47.000 72.816 47.000 70.262 C 47.000 68.346,47.055 67.662,47.221 67.524 C 47.827 67.021,47.833 67.233,47.833 87.002 C 47.833 106.163,47.835 106.273,48.173 106.635 L 48.513 107.000 58.256 107.000 C 67.982 107.000,68.001 106.999,68.313 106.646 C 68.708 106.198,69.031 105.875,69.479 105.479 C 69.739 105.250,69.833 104.972,69.833 104.436 C 69.833 103.798,69.906 103.650,70.417 103.261 C 70.915 102.881,71.000 102.718,71.000 102.137 C 71.000 101.512,71.095 101.367,72.167 100.345 C 73.224 99.336,73.333 99.171,73.333 98.578 C 73.333 98.028,73.439 97.827,74.000 97.315 C 74.561 96.801,74.667 96.602,74.667 96.050 C 74.667 95.511,74.770 95.303,75.250 94.878 C 75.756 94.430,75.833 94.261,75.833 93.602 C 75.833 92.933,75.891 92.812,76.313 92.594 C 76.872 92.305,77.000 92.040,77.000 91.173 C 77.000 90.645,77.097 90.466,77.583 90.095 C 78.092 89.707,78.167 89.557,78.167 88.928 C 78.167 88.299,78.242 88.149,78.750 87.761 C 79.253 87.378,79.333 87.220,79.333 86.620 C 79.333 86.021,79.426 85.839,80.000 85.315 C 80.561 84.801,80.667 84.602,80.667 84.050 C 80.667 83.511,80.770 83.303,81.250 82.878 C 81.756 82.430,81.833 82.261,81.833 81.602 C 81.833 80.933,81.891 80.812,82.313 80.594 C 82.872 80.305,83.000 80.040,83.000 79.173 C 83.000 78.645,83.097 78.466,83.583 78.095 C 84.085 77.712,84.167 77.553,84.167 76.957 C 84.167 76.312,84.252 76.184,85.417 75.078 C 86.571 73.982,86.667 73.840,86.667 73.216 C 86.667 72.464,86.981 72.048,87.304 72.371 C 87.432 72.499,87.500 73.247,87.500 74.529 L 87.500 76.491 87.020 76.740 C 86.378 77.072,86.333 77.239,86.333 79.327 L 86.333 81.127 85.750 81.572 L 85.167 82.017 85.167 84.572 L 85.167 87.127 84.583 87.572 L 84.000 88.017 84.000 89.925 C 84.000 91.978,84.076 91.767,83.000 92.708 C 82.695 92.975,82.667 93.208,82.667 95.446 L 82.667 97.893 82.083 98.427 L 81.500 98.962 81.500 100.878 L 81.500 102.794 80.917 103.239 C 80.336 103.681,80.333 103.690,80.333 105.008 C 80.333 107.225,78.684 107.000,94.917 107.000 L 108.833 107.000 109.146 106.646 C 109.541 106.198,109.864 105.875,110.313 105.479 C 110.644 105.187,110.667 105.006,110.667 102.675 L 110.667 100.184 111.250 99.739 L 111.833 99.294 111.833 97.333 L 111.833 95.373 112.417 94.928 L 113.000 94.483 113.000 91.928 L 113.000 89.373 113.583 88.928 L 114.167 88.483 114.167 86.620 L 114.167 84.757 114.833 84.148 L 115.500 83.539 115.500 81.039 L 115.500 78.540 116.083 78.095 L 116.667 77.650 116.667 75.678 L 116.667 73.706 117.250 73.261 L 117.833 72.816 117.833 70.247 C 117.833 67.884,117.859 67.665,118.154 67.507 C 118.936 67.088,119.000 66.895,119.000 64.950 L 119.000 63.091 119.667 62.481 L 120.333 61.872 120.333 59.372 L 120.333 56.873 120.917 56.428 L 121.500 55.983 121.500 53.996 L 121.500 52.009 121.980 51.760 C 122.640 51.419,122.667 51.294,122.667 48.576 C 122.667 46.600,122.713 46.142,122.929 45.965 C 123.858 45.203,123.833 45.276,123.833 43.270 L 123.833 41.373 124.417 40.928 C 125.058 40.439,125.135 40.159,124.738 39.762 C 124.503 39.526,122.276 39.500,102.721 39.500 L 80.966 39.500 79.483 40.999 C 78.160 42.336,78.000 42.563,78.000 43.108 C 78.000 43.649,77.857 43.857,76.750 44.933 C 75.557 46.092,75.500 46.181,75.500 46.902 C 75.500 47.569,75.443 47.688,75.012 47.911 C 74.743 48.049,74.475 48.315,74.417 48.500 C 74.358 48.685,74.099 48.946,73.842 49.079 C 73.291 49.364,73.167 49.629,73.167 50.521 C 73.167 51.082,73.090 51.225,72.666 51.466 C 72.391 51.622,72.127 51.870,72.080 52.016 C 72.032 52.163,71.695 52.523,71.330 52.816 C 70.752 53.280,70.667 53.437,70.667 54.029 C 70.667 54.655,70.572 54.800,69.500 55.822 C 68.428 56.844,68.333 56.990,68.333 57.614 C 68.333 58.195,68.249 58.358,67.750 58.739 C 67.242 59.126,67.167 59.276,67.167 59.905 C 67.167 60.747,66.824 61.171,66.417 60.833 C 66.199 60.653,66.167 59.280,66.167 50.339 C 66.167 40.584,66.151 40.037,65.862 39.776 C 65.365 39.326,28.183 39.355,27.776 39.805 M223.609 39.805 C 223.388 40.049,223.333 40.472,223.331 41.930 C 223.328 43.892,223.313 43.945,222.625 44.383 L 222.167 44.674 222.167 47.209 L 222.167 49.743 221.500 50.352 L 220.833 50.961 220.833 52.878 L 220.833 54.794 220.250 55.239 L 219.667 55.684 219.667 58.253 C 219.667 60.616,219.641 60.835,219.346 60.993 C 218.562 61.413,218.500 61.602,218.500 63.587 L 218.500 65.483 217.917 65.928 L 217.333 66.373 217.333 68.891 L 217.333 71.409 216.667 72.019 L 216.000 72.628 216.000 74.560 L 216.000 76.491 215.520 76.740 C 214.858 77.082,214.833 77.201,214.833 80.009 L 214.833 82.491 214.354 82.740 C 213.711 83.072,213.667 83.239,213.667 85.327 L 213.667 87.127 213.083 87.572 L 212.500 88.017 212.500 90.572 L 212.500 93.127 211.917 93.572 L 211.333 94.017 211.333 95.927 C 211.333 97.680,211.304 97.860,210.975 98.127 C 209.961 98.947,210.000 98.815,210.000 101.446 L 210.000 103.893 209.417 104.427 C 208.711 105.074,208.596 106.096,209.167 106.667 C 209.494 106.994,209.722 107.000,222.224 107.000 C 236.949 107.000,235.500 107.201,235.500 105.157 C 235.500 103.931,235.504 103.920,236.167 103.315 L 236.833 102.705 236.833 100.789 L 236.833 98.873 237.417 98.428 L 238.000 97.983 238.000 95.412 L 238.000 92.842 238.480 92.594 C 239.123 92.261,239.167 92.095,239.167 89.995 L 239.167 88.184 239.750 87.739 L 240.333 87.294 240.333 84.739 L 240.333 82.184 240.917 81.739 L 241.500 81.294 241.500 79.397 C 241.500 77.708,241.537 77.468,241.833 77.208 C 242.920 76.257,242.833 76.558,242.833 73.750 C 242.833 72.329,242.897 71.167,242.976 71.167 C 243.697 71.167,244.000 70.363,244.000 68.445 C 244.000 67.068,244.061 66.490,244.221 66.358 C 244.628 66.020,244.833 66.503,244.833 67.803 C 244.833 69.032,244.837 69.042,245.500 69.648 L 246.167 70.257 246.167 71.533 C 246.167 72.850,246.280 73.115,247.013 73.507 C 247.301 73.661,247.333 73.876,247.333 75.664 L 247.333 77.650 247.917 78.095 C 248.489 78.531,248.500 78.562,248.500 79.756 C 248.500 81.232,248.572 81.443,249.187 81.760 L 249.667 82.009 249.667 83.990 L 249.667 85.972 250.333 86.500 L 251.000 87.028 251.000 88.426 C 251.000 89.798,251.009 89.829,251.480 90.073 C 252.094 90.391,252.167 90.602,252.167 92.077 C 252.167 93.272,252.177 93.302,252.750 93.739 L 253.333 94.184 253.333 95.995 C 253.333 98.095,253.377 98.261,254.020 98.594 C 254.491 98.837,254.500 98.868,254.500 100.246 L 254.500 101.650 255.083 102.095 L 255.667 102.540 255.667 104.436 C 255.667 107.330,253.709 107.000,270.891 107.000 C 287.316 107.000,286.000 107.113,286.000 105.704 C 286.000 105.115,286.083 104.954,286.583 104.572 L 287.167 104.127 287.167 101.609 L 287.167 99.091 287.833 98.481 L 288.500 97.872 288.500 95.942 C 288.500 94.208,288.533 93.994,288.820 93.840 C 289.636 93.404,289.667 93.286,289.667 90.576 L 289.667 88.009 290.146 87.760 C 290.789 87.428,290.833 87.261,290.833 85.173 L 290.833 83.373 291.417 82.928 L 292.000 82.483 292.000 79.928 L 292.000 77.373 292.583 76.928 L 293.167 76.483 293.167 74.575 C 293.167 72.875,293.203 72.635,293.500 72.375 C 294.585 71.426,294.500 71.708,294.500 69.054 L 294.500 66.607 295.083 66.073 L 295.667 65.538 295.667 63.622 L 295.667 61.706 296.250 61.261 L 296.833 60.816 296.833 58.261 L 296.833 55.706 297.417 55.261 L 298.000 54.816 298.000 52.917 L 298.000 51.017 298.583 50.572 L 299.167 50.127 299.167 47.609 L 299.167 45.091 299.833 44.481 L 300.500 43.872 300.500 42.019 C 300.500 39.192,302.069 39.500,287.679 39.500 C 273.655 39.500,275.000 39.309,275.000 41.300 L 275.000 42.576 274.333 43.185 L 273.667 43.795 273.667 45.736 C 273.667 47.362,273.623 47.694,273.400 47.780 C 273.042 47.917,272.839 47.554,272.836 46.772 C 272.834 46.251,272.722 46.027,272.250 45.594 L 271.667 45.060 271.667 43.196 C 271.667 41.542,271.629 41.301,271.333 41.042 C 270.651 40.444,270.409 40.208,270.127 39.858 L 269.837 39.500 246.861 39.500 C 224.814 39.500,223.874 39.512,223.609 39.805 M317.276 39.805 C 317.052 40.052,317.000 40.478,317.000 42.049 C 317.000 43.791,316.967 44.006,316.680 44.160 C 315.897 44.578,315.833 44.772,315.833 46.717 L 315.833 48.576 315.167 49.185 L 314.500 49.795 314.500 52.294 L 314.500 54.794 313.917 55.239 L 313.333 55.684 313.333 57.671 L 313.333 59.658 312.854 59.906 C 312.195 60.247,312.167 60.374,312.164 63.055 C 312.161 65.581,312.155 65.606,311.458 66.049 L 311.000 66.341 311.000 68.912 L 311.000 71.483 310.417 71.928 L 309.833 72.373 309.833 74.295 L 309.833 76.218 309.167 76.833 L 308.500 77.449 308.500 79.970 L 308.500 82.491 308.020 82.740 C 307.377 83.072,307.333 83.238,307.333 85.338 L 307.333 87.150 306.750 87.595 L 306.167 88.040 306.167 90.583 L 306.167 93.127 305.583 93.572 L 305.000 94.017 305.000 96.005 C 305.000 97.991,305.000 97.992,304.542 98.284 C 303.843 98.728,303.839 98.749,303.836 101.377 C 303.833 103.691,303.812 103.854,303.475 104.127 C 302.619 104.820,302.500 105.007,302.500 105.667 C 302.500 107.149,298.660 107.000,336.917 107.000 C 370.444 107.000,370.669 106.998,371.000 106.667 C 371.294 106.372,371.333 106.111,371.333 104.436 L 371.333 102.540 371.917 102.095 L 372.500 101.650 372.500 99.095 L 372.500 96.540 373.083 96.095 L 373.667 95.650 373.667 93.750 L 373.667 91.850 374.250 91.405 L 374.833 90.960 374.833 88.442 L 374.833 85.924 375.500 85.315 L 376.167 84.705 376.167 82.789 L 376.167 80.873 376.750 80.428 L 377.333 79.983 377.333 77.414 C 377.333 75.050,377.359 74.831,377.654 74.674 C 378.438 74.254,378.500 74.064,378.500 72.080 L 378.500 70.184 379.083 69.739 L 379.667 69.294 379.667 66.739 L 379.667 64.184 380.250 63.739 L 380.833 63.294 380.833 61.397 C 380.833 59.708,380.870 59.468,381.167 59.208 C 382.254 58.257,382.167 58.557,382.167 55.754 L 382.167 53.175 382.646 52.927 C 383.289 52.595,383.333 52.428,383.333 50.339 L 383.333 48.540 383.917 48.095 L 384.500 47.650 384.500 45.095 L 384.500 42.540 385.083 42.095 C 385.607 41.695,385.667 41.568,385.667 40.851 C 385.667 39.390,386.753 39.500,372.358 39.500 L 359.660 39.500 358.746 40.399 L 357.833 41.297 357.833 43.212 L 357.833 45.127 357.250 45.572 L 356.667 46.017 356.667 48.588 L 356.667 51.159 356.208 51.451 C 355.520 51.888,355.505 51.941,355.503 53.913 L 355.500 55.743 354.833 56.352 L 354.167 56.961 354.167 59.461 L 354.167 61.960 353.583 62.405 L 353.000 62.850 353.000 64.838 C 353.000 66.825,353.000 66.826,352.542 67.117 C 351.844 67.561,351.839 67.584,351.833 70.167 C 351.828 72.750,351.823 72.772,351.125 73.216 L 350.667 73.508 350.667 76.061 C 350.667 78.324,350.632 78.646,350.362 78.891 C 349.969 79.247,335.885 79.319,335.533 78.967 C 335.103 78.537,335.287 77.199,335.813 76.927 C 336.456 76.595,336.500 76.428,336.500 74.339 L 336.500 72.540 337.083 72.095 L 337.667 71.650 337.667 69.095 L 337.667 66.540 338.250 66.095 L 338.833 65.650 338.833 63.753 C 338.833 61.769,338.895 61.580,339.680 61.160 C 339.974 61.002,340.000 60.783,340.000 58.456 L 340.000 55.924 340.667 55.315 L 341.333 54.705 341.333 52.206 L 341.333 49.706 341.917 49.261 L 342.500 48.816 342.500 46.829 C 342.500 44.842,342.500 44.841,342.958 44.549 C 343.648 44.110,343.661 44.063,343.664 41.984 C 343.666 40.322,343.624 40.013,343.362 39.776 C 342.866 39.328,317.682 39.355,317.276 39.805 M88.588 70.007 C 88.772 70.305,88.327 70.703,88.059 70.480 C 87.885 70.336,87.875 70.234,88.018 70.061 C 88.244 69.789,88.441 69.770,88.588 70.007 M10.773 110.679 L 10.333 111.024 10.333 114.070 C 10.333 116.954,10.352 117.132,10.684 117.433 C 11.035 117.750,379.101 118.060,381.792 117.745 C 383.174 117.583,383.167 117.604,383.167 114.009 C 383.167 111.296,383.130 110.843,382.891 110.645 C 382.658 110.452,354.021 110.410,196.914 110.375 L 11.212 110.333 10.773 110.679 " stroke="none" fill-rule="evenodd"></path></g></svg>