<svg id="svg" version="1.1" xmlns="http://www.w3.org/2000/svg" xmlns:xlink="http://www.w3.org/1999/xlink" width="400" height="135.9683794466403" viewBox="0, 0, 400,135.9683794466403"><g id="svgg"><path id="path0" d="M62.568 9.873 C 61.175 12.140,57.908 19.878,56.323 24.664 C 55.949 25.794,55.526 26.903,55.384 27.128 C 54.968 27.782,52.802 26.113,41.672 16.560 C 34.227 10.169,32.375 8.739,31.820 8.952 C 29.978 9.659,30.078 24.478,31.962 29.955 C 32.741 32.220,32.741 32.220,31.620 31.145 L 30.670 30.235 30.870 32.603 C 31.092 35.234,30.846 35.971,28.885 38.543 C 27.499 40.361,27.546 40.532,29.266 39.945 C 31.817 39.076,31.127 40.322,25.819 46.166 C 22.742 49.554,22.797 49.442,23.886 50.156 C 25.290 51.076,26.393 53.357,26.389 55.332 C 26.382 59.267,24.519 61.339,13.735 69.410 C 4.095 76.624,4.053 76.679,5.924 79.447 C 7.274 81.443,15.578 89.317,17.120 90.064 C 19.601 91.265,24.037 91.056,29.892 89.463 C 36.985 87.533,42.332 87.272,45.725 88.689 C 47.337 89.363,47.144 89.433,42.595 89.821 C 36.476 90.344,35.618 90.624,35.524 92.124 C 35.449 93.317,34.403 95.759,32.693 98.735 C 31.490 100.830,31.852 100.895,35.269 99.198 C 36.915 98.380,38.261 97.777,38.261 97.856 C 38.261 97.935,37.973 98.731,37.621 99.624 C 36.259 103.078,36.175 108.014,37.427 110.992 L 37.857 112.015 38.410 109.761 C 38.944 107.580,40.768 103.330,41.314 102.992 C 41.461 102.901,41.581 105.126,41.581 107.935 C 41.581 114.986,43.464 121.015,43.605 114.416 C 43.652 112.199,44.629 109.464,46.291 106.895 C 48.106 104.089,48.289 104.151,47.222 107.210 C 44.672 114.525,47.450 122.814,54.925 130.191 C 58.880 134.095,59.302 134.315,58.934 132.286 C 57.715 125.553,60.034 119.740,66.139 114.224 C 67.756 112.762,67.915 113.047,66.759 115.336 C 64.684 119.448,63.698 124.777,64.433 127.905 L 64.731 129.170 64.951 128.221 C 65.760 124.739,67.965 122.041,73.834 117.353 C 82.335 110.564,84.863 106.586,85.374 99.198 C 85.654 95.138,85.766 94.937,86.521 97.134 C 87.741 100.680,87.130 105.937,85.012 110.134 C 83.718 112.696,83.987 112.657,86.552 109.910 C 89.961 106.260,92.016 101.260,92.016 96.614 C 92.016 95.824,92.137 95.178,92.285 95.178 C 92.610 95.178,94.341 98.913,94.890 100.801 C 95.757 103.781,96.810 99.805,97.049 92.648 L 97.233 87.115 98.106 88.571 C 99.139 90.294,100.553 94.201,100.553 95.330 C 100.553 96.685,101.101 96.210,101.549 94.466 C 102.110 92.286,102.038 85.844,101.423 83.083 C 100.821 80.386,100.888 80.400,103.976 83.617 C 106.358 86.097,106.525 86.214,106.362 85.277 C 105.775 81.897,105.038 79.704,102.954 75.135 L 102.105 73.275 103.147 73.472 C 103.721 73.581,105.435 74.283,106.957 75.033 C 108.478 75.783,109.723 76.310,109.723 76.205 C 109.723 74.794,104.171 68.951,100.433 66.428 C 97.304 64.317,97.229 64.333,103.399 65.793 C 106.269 66.472,108.759 66.981,108.933 66.924 C 109.900 66.604,98.883 56.720,93.759 53.311 C 92.279 52.325,91.067 51.481,91.067 51.435 C 91.067 51.388,93.212 51.411,95.834 51.486 C 101.680 51.652,101.902 51.482,98.405 49.516 C 92.888 46.414,87.589 43.207,87.589 42.969 C 87.589 42.835,88.123 42.682,88.775 42.628 L 89.960 42.530 89.027 41.644 C 88.514 41.157,86.932 40.182,85.512 39.479 L 82.931 38.200 82.724 35.977 C 82.449 33.013,82.285 32.865,81.288 34.687 C 79.377 38.182,79.368 38.180,79.368 34.355 L 79.368 30.940 77.407 27.091 C 73.838 20.081,65.700 8.845,64.019 8.608 C 63.582 8.546,63.154 8.919,62.568 9.873 M68.671 25.504 C 69.395 26.159,69.389 26.519,68.636 27.499 L 68.037 28.278 67.389 27.499 C 66.180 26.046,67.316 24.277,68.671 25.504 M42.751 26.308 C 42.456 26.603,42.372 26.519,42.372 25.929 C 42.372 25.339,42.456 25.254,42.751 25.549 C 43.046 25.845,43.046 26.013,42.751 26.308 M213.202 28.365 C 212.800 28.443,212.420 28.801,212.327 29.192 C 211.871 31.102,201.350 78.766,201.129 79.921 L 200.872 81.265 213.880 81.265 L 226.888 81.265 227.641 77.708 C 228.054 75.751,228.460 73.830,228.542 73.439 C 228.689 72.733,228.660 72.727,224.780 72.691 C 222.629 72.671,219.079 72.565,216.891 72.454 L 212.913 72.253 215.020 62.767 C 216.179 57.549,217.211 53.067,217.313 52.806 C 217.416 52.545,217.511 55.427,217.524 59.209 L 217.549 66.087 221.612 66.087 L 225.674 66.087 227.502 62.530 C 230.824 56.066,233.178 51.788,233.265 52.062 C 233.311 52.210,232.663 55.355,231.824 59.049 C 230.985 62.743,230.370 65.838,230.459 65.926 C 230.547 66.015,233.083 66.087,236.094 66.087 L 241.569 66.087 241.769 65.291 C 241.879 64.853,243.776 56.351,245.986 46.398 L 250.003 28.300 245.555 28.202 C 243.108 28.148,240.083 28.195,238.831 28.306 L 236.556 28.509 230.768 38.288 L 224.980 48.068 224.897 38.105 L 224.813 28.142 219.363 28.185 C 216.366 28.209,213.593 28.290,213.202 28.365 M253.662 28.412 C 253.167 28.726,248.307 50.784,248.655 51.132 C 248.789 51.266,252.374 51.428,256.623 51.494 C 263.520 51.600,264.347 51.669,264.342 52.131 C 264.339 52.415,263.699 55.493,262.919 58.969 C 262.140 62.446,261.502 65.469,261.502 65.688 C 261.502 66.399,272.477 66.248,272.699 65.534 C 273.365 63.394,280.770 28.861,280.637 28.514 C 280.401 27.901,270.146 28.090,269.760 28.714 C 269.620 28.942,269.186 30.650,268.796 32.509 C 268.407 34.368,267.875 36.850,267.615 38.024 L 267.143 40.158 264.499 40.158 C 261.158 40.158,261.262 40.496,262.650 34.130 C 263.647 29.554,263.759 28.680,263.377 28.438 C 262.813 28.081,254.220 28.058,253.662 28.412 M293.597 32.179 C 292.379 34.391,291.343 36.287,291.294 36.392 C 291.184 36.628,308.866 37.002,309.454 36.776 C 309.692 36.685,309.818 36.317,309.742 35.935 C 309.668 35.562,309.365 33.656,309.069 31.700 L 308.531 28.142 302.171 28.150 L 295.810 28.157 293.597 32.179 M67.984 36.234 C 67.984 36.863,67.083 37.171,66.619 36.701 C 66.331 36.408,66.382 36.220,66.845 35.878 C 67.515 35.384,67.984 35.530,67.984 36.234 M53.913 37.628 C 53.913 38.594,53.805 38.748,53.065 38.833 C 51.909 38.967,51.376 38.006,52.061 37.027 C 52.846 35.907,53.913 36.254,53.913 37.628 M288.117 43.083 C 287.254 44.518,283.967 50.245,280.814 55.810 L 275.080 65.929 281.486 66.015 C 287.719 66.098,287.906 66.082,288.404 65.422 C 288.686 65.048,290.534 61.630,292.511 57.826 L 296.105 50.909 298.058 50.909 C 300.425 50.909,300.161 50.138,300.901 59.209 L 301.463 66.087 307.678 66.087 L 313.893 66.087 313.459 62.846 C 313.220 61.063,312.606 56.545,312.096 52.806 C 311.585 49.067,310.999 44.763,310.793 43.241 L 310.418 40.474 300.052 40.474 L 289.687 40.474 288.117 43.083 M77.731 43.742 C 77.790 44.047,77.631 44.269,77.354 44.269 C 76.767 44.269,76.412 43.753,76.690 43.303 C 76.976 42.841,77.608 43.107,77.731 43.742 M36.047 46.008 C 36.047 46.269,35.905 46.482,35.731 46.482 C 35.557 46.482,35.415 46.269,35.415 46.008 C 35.415 45.747,35.557 45.534,35.731 45.534 C 35.905 45.534,36.047 45.747,36.047 46.008 M72.461 50.498 C 72.694 50.781,73.526 51.297,74.308 51.646 L 75.731 52.280 74.541 52.808 C 72.778 53.591,71.793 54.662,71.573 56.036 C 71.467 56.702,71.255 57.324,71.102 57.418 C 70.812 57.598,70.698 57.353,70.364 55.839 C 70.111 54.694,68.267 52.806,67.402 52.806 C 66.194 52.806,66.384 52.212,67.792 51.589 C 69.423 50.868,70.005 50.090,70.552 47.905 L 70.948 46.324 71.492 48.154 C 71.792 49.161,72.228 50.215,72.461 50.498 M58.814 47.273 C 58.814 47.534,58.672 47.747,58.498 47.747 C 58.324 47.747,58.182 47.534,58.182 47.273 C 58.182 47.012,58.324 46.798,58.498 46.798 C 58.672 46.798,58.814 47.012,58.814 47.273 M48.260 55.165 C 48.992 57.073,44.686 60.007,39.950 60.827 C 38.169 61.136,38.591 58.996,40.811 56.468 C 42.341 54.725,47.730 53.782,48.260 55.165 M84.740 55.490 C 85.204 56.049,84.947 56.917,84.317 56.917 C 83.684 56.917,83.058 56.064,83.275 55.498 C 83.509 54.888,84.236 54.884,84.740 55.490 M61.660 60.079 C 61.660 60.427,61.518 60.711,61.344 60.711 C 61.170 60.711,61.028 60.427,61.028 60.079 C 61.028 59.731,61.170 59.447,61.344 59.447 C 61.518 59.447,61.660 59.731,61.660 60.079 M87.431 65.793 C 87.431 66.037,87.182 66.284,86.877 66.343 C 86.332 66.448,86.107 65.777,86.542 65.343 C 86.873 65.011,87.431 65.294,87.431 65.793 M81.837 66.324 C 81.709 66.991,81.147 66.949,81.004 66.262 C 80.945 65.975,81.119 65.771,81.423 65.771 C 81.749 65.771,81.904 65.978,81.837 66.324 M57.233 68.775 C 57.233 69.036,57.020 69.249,56.759 69.249 C 56.265 69.249,56.132 68.875,56.495 68.511 C 56.859 68.147,57.233 68.281,57.233 68.775 M45.154 69.945 C 45.716 70.507,45.615 71.607,44.944 72.214 C 43.915 73.146,42.883 71.205,43.843 70.143 C 44.459 69.464,44.645 69.435,45.154 69.945 M91.067 71.462 C 91.067 71.636,90.854 71.779,90.593 71.779 C 90.332 71.779,90.119 71.636,90.119 71.462 C 90.119 71.289,90.332 71.146,90.593 71.146 C 90.854 71.146,91.067 71.289,91.067 71.462 M37.676 71.937 C 37.676 72.102,37.523 72.288,37.336 72.350 C 37.149 72.413,36.996 72.227,36.996 71.937 C 36.996 71.647,37.149 71.461,37.336 71.523 C 37.523 71.585,37.676 71.772,37.676 71.937 M134.492 72.683 C 132.202 72.794,130.262 72.957,130.181 73.043 C 129.861 73.389,128.324 80.682,128.528 80.887 C 128.648 81.008,132.968 81.183,138.128 81.275 C 147.558 81.445,148.622 81.579,149.032 82.648 C 149.617 84.174,149.042 84.263,137.953 84.360 L 127.555 84.451 124.757 97.008 C 123.218 103.915,121.945 109.779,121.928 110.040 C 121.902 110.440,122.742 110.529,127.352 110.615 C 130.352 110.671,132.806 110.597,132.806 110.453 C 132.806 110.249,135.217 99.236,136.133 95.257 C 136.294 94.555,136.368 94.545,141.429 94.539 C 149.903 94.529,152.041 93.991,154.587 91.230 C 159.617 85.773,159.210 75.932,153.854 73.489 C 152.036 72.660,142.837 72.277,134.492 72.683 M168.800 72.675 C 167.640 72.791,166.598 72.979,166.483 73.094 C 166.239 73.340,164.743 79.825,164.743 80.640 C 164.743 81.158,165.433 81.207,174.466 81.320 C 184.599 81.447,185.613 81.583,185.613 82.818 C 185.613 84.240,184.718 84.348,171.304 84.534 C 167.174 84.591,163.749 84.697,163.693 84.770 C 163.421 85.122,158.090 110.080,158.236 110.316 C 158.530 110.791,168.379 110.770,168.770 110.294 C 168.957 110.067,169.697 107.178,170.417 103.874 C 172.267 95.373,172.312 95.222,172.741 95.982 C 172.933 96.322,174.183 99.731,175.518 103.557 L 177.947 110.514 182.966 110.592 C 189.577 110.696,189.190 111.402,186.931 103.363 C 185.886 99.644,184.888 96.066,184.714 95.412 L 184.397 94.224 187.077 92.944 C 192.165 90.516,193.663 88.184,193.666 82.688 C 193.670 76.104,192.093 73.638,187.510 73.062 C 184.409 72.673,171.503 72.406,168.800 72.675 M234.792 73.123 C 234.634 73.608,233.043 80.859,233.043 81.095 C 233.043 81.188,235.000 81.267,237.391 81.270 C 239.783 81.272,241.934 81.398,242.171 81.548 C 242.524 81.772,242.036 84.391,239.525 95.764 C 237.832 103.432,236.531 109.923,236.633 110.189 C 236.789 110.596,237.657 110.672,242.135 110.672 L 247.453 110.672 250.604 96.417 C 252.337 88.576,253.829 82.039,253.920 81.890 C 254.010 81.741,256.252 81.519,258.900 81.395 C 261.549 81.272,263.715 81.111,263.715 81.037 C 263.715 80.838,265.297 73.925,265.490 73.281 C 265.705 72.562,235.026 72.404,234.792 73.123 M271.105 73.111 C 270.974 73.322,270.490 75.161,270.030 77.198 L 269.192 80.901 269.853 81.079 C 270.216 81.176,275.946 81.258,282.586 81.261 L 294.659 81.265 295.028 79.447 C 295.230 78.447,295.649 76.526,295.958 75.178 L 296.520 72.727 283.931 72.727 C 274.405 72.727,271.284 72.821,271.105 73.111 M308.385 79.763 C 299.653 90.080,299.974 89.651,300.217 90.668 C 300.331 91.149,301.800 95.847,303.481 101.110 L 306.538 110.679 318.870 110.596 L 331.203 110.514 332.036 106.535 C 332.494 104.346,332.964 102.178,333.080 101.717 L 333.290 100.879 323.898 100.795 L 314.506 100.711 313.309 95.968 C 311.880 90.301,311.441 91.726,316.364 86.038 L 320.474 81.288 329.014 81.276 L 337.553 81.265 338.579 77.222 C 339.143 74.999,339.605 73.078,339.605 72.953 C 339.605 72.829,333.920 72.727,326.972 72.727 L 314.340 72.727 308.385 79.763 M346.279 73.439 C 345.448 75.655,344.605 80.717,345.023 80.982 C 345.260 81.132,350.966 81.257,357.701 81.260 L 369.948 81.265 370.110 80.553 C 370.200 80.162,370.563 78.490,370.918 76.838 C 371.273 75.186,371.640 73.585,371.732 73.281 C 371.890 72.760,371.150 72.727,359.223 72.727 L 346.546 72.727 346.279 73.439 M377.918 75.494 C 374.969 88.299,370.259 110.127,370.411 110.279 C 370.714 110.582,387.871 110.771,392.515 110.522 L 396.754 110.295 397.617 106.294 C 398.092 104.093,398.553 101.972,398.642 101.581 L 398.804 100.870 390.905 100.870 L 383.007 100.870 383.263 99.526 C 383.459 98.498,388.192 77.327,389.096 73.439 L 389.261 72.727 383.908 72.727 L 378.555 72.727 377.918 75.494 M88.465 74.051 C 88.270 74.638,87.589 74.735,87.589 74.177 C 87.589 73.901,87.814 73.676,88.090 73.676 C 88.365 73.676,88.534 73.845,88.465 74.051 M59.579 75.449 C 60.519 75.810,60.207 77.211,59.212 77.096 C 58.255 76.986,57.830 75.991,58.546 75.537 C 59.063 75.209,58.974 75.217,59.579 75.449 M24.613 77.058 C 24.289 77.448,24.199 77.442,23.959 77.014 C 23.564 76.307,23.969 75.760,24.538 76.232 C 24.890 76.524,24.906 76.705,24.613 77.058 M35.731 78.419 C 35.731 78.770,35.520 79.051,35.257 79.051 C 34.993 79.051,34.783 78.770,34.783 78.419 C 34.783 78.068,34.993 77.787,35.257 77.787 C 35.520 77.787,35.731 78.068,35.731 78.419 M73.883 80.215 C 73.460 80.638,73.030 79.922,73.423 79.448 C 73.793 79.002,73.845 79.007,73.941 79.501 C 74.000 79.803,73.974 80.124,73.883 80.215 M92.133 81.721 C 92.668 82.538,91.977 84.564,91.245 84.326 C 90.264 84.006,89.701 82.573,90.236 81.757 C 90.901 80.742,91.484 80.731,92.133 81.721 M77.201 82.730 C 79.711 85.002,77.843 88.507,74.328 88.123 C 72.656 87.940,72.095 87.309,72.095 85.610 C 72.095 82.660,75.192 80.912,77.201 82.730 M200.698 84.638 C 200.546 84.882,196.579 102.521,195.356 108.387 C 194.884 110.654,194.034 110.503,207.852 110.610 L 220.237 110.707 223.105 97.741 L 225.974 84.774 224.370 84.581 C 223.488 84.474,221.490 84.432,219.928 84.486 L 217.090 84.585 216.409 87.589 C 216.035 89.241,215.263 92.692,214.694 95.257 L 213.661 99.921 210.050 99.921 C 206.756 99.921,206.455 99.872,206.613 99.368 C 207.031 98.037,209.885 84.889,209.780 84.779 C 209.511 84.497,200.868 84.362,200.698 84.638 M268.333 84.778 C 267.778 86.522,262.786 110.164,262.940 110.318 C 263.238 110.617,288.063 110.755,288.068 110.458 C 288.071 110.315,289.344 104.511,290.898 97.560 C 292.452 90.609,293.651 84.850,293.563 84.762 C 293.013 84.212,284.959 84.379,284.786 84.945 C 284.686 85.269,283.956 88.522,283.164 92.174 C 282.372 95.826,281.646 99.063,281.552 99.368 C 281.354 100.005,274.466 100.232,274.466 99.602 C 274.466 99.426,275.180 96.061,276.052 92.123 C 276.924 88.185,277.569 84.894,277.485 84.810 C 277.057 84.382,268.468 84.352,268.333 84.778 M343.122 87.309 C 339.714 102.516,338.079 110.200,338.222 110.343 C 338.641 110.764,363.322 110.721,363.446 110.299 C 364.116 108.036,369.008 84.950,368.851 84.793 C 368.737 84.679,366.747 84.536,364.429 84.476 L 360.215 84.366 359.672 86.847 C 359.374 88.212,358.610 91.676,357.974 94.545 L 356.819 99.763 353.234 99.853 L 349.649 99.942 349.819 99.220 C 351.199 93.347,352.918 84.987,352.775 84.843 C 352.673 84.741,350.609 84.586,348.188 84.499 L 343.787 84.341 343.122 87.309 M55.968 85.217 C 55.968 85.478,55.826 85.692,55.652 85.692 C 55.478 85.692,55.336 85.478,55.336 85.217 C 55.336 84.957,55.478 84.743,55.652 84.743 C 55.826 84.743,55.968 84.957,55.968 85.217 M84.743 87.273 C 84.743 87.889,84.408 88.097,84.027 87.716 C 83.774 87.463,84.105 86.640,84.461 86.640 C 84.616 86.640,84.743 86.925,84.743 87.273 M64.175 93.567 C 64.521 94.246,65.271 95.170,65.841 95.619 C 66.492 96.132,66.694 96.437,66.383 96.439 C 65.769 96.444,64.448 97.868,63.888 99.130 L 63.467 100.079 63.200 99.102 C 62.918 98.070,61.762 96.635,61.012 96.385 C 60.698 96.280,60.910 95.933,61.723 95.219 C 62.359 94.660,62.973 93.782,63.086 93.267 C 63.350 92.066,63.419 92.085,64.175 93.567 M48.379 96.619 C 48.379 96.870,48.166 97.075,47.905 97.075 C 47.429 97.075,47.255 96.408,47.633 96.030 C 47.928 95.735,48.379 96.091,48.379 96.619 M77.049 105.163 C 77.381 106.026,76.324 106.815,75.688 106.179 C 75.042 105.533,75.338 104.664,76.206 104.664 C 76.564 104.664,76.944 104.889,77.049 105.163 M58.932 108.901 L 58.055 110.000 57.598 109.308 C 57.346 108.928,56.925 108.442,56.662 108.229 C 56.245 107.890,56.291 107.734,57.025 107.000 C 57.487 106.537,57.866 106.031,57.866 105.875 C 57.866 105.718,58.303 106.088,58.837 106.697 L 59.808 107.803 58.932 108.901 " stroke="none" fill="#000000" fill-rule="evenodd"></path></g></svg>