<svg id="svg" xmlns="http://www.w3.org/2000/svg" xmlns:xlink="http://www.w3.org/1999/xlink" width="400" height="158.79396984924622" viewBox="0, 0, 400,158.79396984924622"><g id="svgg"><path id="path0" d="M70.731 4.418 C 69.501 5.746,65.391 15.028,63.066 21.730 C 62.394 23.667,61.726 25.565,61.580 25.948 L 61.314 26.645 60.243 25.955 C 57.294 24.054,54.256 21.603,45.352 13.944 C 35.822 5.746,34.251 4.523,33.254 4.523 C 30.643 4.523,30.782 22.890,33.449 30.262 C 33.846 31.359,34.171 32.316,34.171 32.388 C 34.171 32.460,33.592 31.958,32.884 31.272 C 31.619 30.046,31.600 30.038,31.752 30.779 C 32.532 34.571,32.087 36.349,29.442 40.014 C 27.388 42.859,27.414 42.927,30.133 41.822 C 31.000 41.469,31.820 41.218,31.956 41.263 C 32.431 41.422,28.062 46.889,23.887 51.361 L 22.265 53.098 22.879 53.485 C 25.417 55.083,26.508 57.457,26.337 61.013 C 26.097 66.003,23.492 68.537,4.972 81.798 C 2.230 83.761,1.041 84.834,0.733 85.622 C 0.229 86.915,2.173 90.132,5.184 92.985 C 6.121 93.872,8.192 95.858,9.788 97.398 C 16.379 103.759,19.431 104.284,31.533 101.137 L 38.065 99.438 42.211 99.417 C 49.312 99.380,53.736 100.906,47.886 101.374 C 45.117 101.595,42.251 101.962,39.698 102.423 L 37.563 102.808 37.532 103.979 C 37.493 105.463,36.338 108.351,34.375 111.873 C 33.540 113.372,32.898 114.640,32.948 114.690 C 32.999 114.740,34.778 113.994,36.902 113.032 C 41.321 111.029,41.166 111.036,40.321 112.882 C 38.627 116.582,38.361 124.558,39.837 127.413 C 40.462 128.620,40.955 128.204,40.955 126.469 C 40.955 124.554,43.778 117.694,44.691 117.389 C 44.950 117.303,44.974 117.586,44.808 118.753 C 44.179 123.164,44.832 130.581,46.092 133.333 C 46.933 135.171,47.132 134.923,47.308 131.821 C 47.523 128.024,48.528 125.181,50.958 121.502 C 52.367 119.368,52.526 119.642,51.525 122.479 C 48.619 130.712,51.117 139.293,58.996 148.140 C 61.300 150.727,65.620 154.774,66.078 154.774 C 66.409 154.774,66.413 154.810,65.829 152.703 C 64.038 146.239,66.621 138.717,72.774 132.479 C 76.222 128.983,76.403 129.218,74.176 134.296 C 72.365 138.426,72.237 139.067,72.237 144.020 C 72.236 148.595,72.627 150.617,72.934 147.635 C 73.260 144.482,76.926 140.123,84.171 134.276 C 94.644 125.824,97.711 120.405,97.734 110.314 C 97.740 107.995,98.059 108.186,98.815 110.959 C 100.138 115.811,99.508 121.023,97.003 125.942 C 95.230 129.426,95.296 129.513,97.771 126.947 C 102.805 121.729,104.857 117.590,105.247 111.865 C 105.353 110.307,105.560 108.912,105.706 108.766 C 106.305 108.168,107.922 111.372,108.921 115.138 C 109.518 117.389,109.605 117.323,110.571 113.882 C 111.361 111.069,111.408 110.656,111.572 105.151 C 111.765 98.666,111.722 99.163,112.067 99.376 C 112.952 99.923,115.400 106.148,115.712 108.647 C 115.933 110.419,116.101 110.257,116.864 107.538 C 117.664 104.683,117.731 97.553,116.988 94.347 C 116.293 91.347,116.243 90.955,116.554 90.955 C 117.043 90.955,118.661 92.597,120.603 95.062 L 122.487 97.455 122.560 96.278 C 122.663 94.595,121.585 90.632,120.096 87.218 C 117.882 82.143,117.799 81.910,118.214 81.910 C 118.765 81.910,121.463 82.977,123.856 84.142 C 127.080 85.712,127.231 85.603,125.410 83.010 C 123.642 80.493,119.705 76.687,116.015 73.928 C 112.262 71.122,112.268 71.146,115.513 71.969 C 118.857 72.816,125.593 74.372,125.920 74.372 C 127.893 74.372,114.194 62.060,106.743 57.138 C 103.925 55.275,103.906 55.037,106.616 55.493 C 110.338 56.119,115.690 56.019,116.400 55.309 C 116.541 55.167,116.010 54.734,115.037 54.198 C 98.902 45.308,98.783 45.226,102.026 45.226 L 103.770 45.226 102.827 44.380 C 101.580 43.259,99.599 42.015,96.985 40.708 C 95.810 40.121,94.802 39.596,94.744 39.543 C 94.686 39.490,94.492 38.241,94.314 36.767 C 94.135 35.294,93.881 33.982,93.751 33.852 C 93.498 33.598,93.454 33.659,91.774 36.558 C 90.747 38.332,89.413 39.869,89.786 38.850 C 92.103 32.518,87.804 22.957,75.967 8.120 C 72.271 3.487,71.862 3.198,70.731 4.418 M77.882 26.108 C 76.892 27.430,76.637 27.725,76.570 27.620 C 76.533 27.561,76.144 27.048,75.706 26.481 L 74.909 25.449 75.679 24.515 L 76.449 23.581 77.409 24.519 L 78.369 25.457 77.882 26.108 M46.608 24.892 C 46.608 25.267,46.442 25.528,46.168 25.580 C 45.722 25.666,45.516 24.668,45.901 24.283 C 46.226 23.958,46.608 24.287,46.608 24.892 M220.506 28.329 C 220.434 28.571,218.622 36.740,216.480 46.482 C 214.337 56.225,211.336 69.838,209.810 76.733 C 208.284 83.628,207.035 89.307,207.035 89.354 C 207.035 89.400,213.226 89.411,220.791 89.379 L 234.548 89.322 235.472 84.925 C 235.981 82.506,236.405 80.386,236.414 80.214 C 236.428 79.968,234.641 79.899,228.266 79.899 C 221.958 79.899,220.101 79.829,220.101 79.589 C 220.101 79.233,224.962 57.293,225.460 55.402 L 225.791 54.146 225.961 56.131 C 226.054 57.223,226.131 60.586,226.131 63.606 L 226.131 69.095 230.339 69.094 L 234.548 69.093 237.252 63.881 C 241.173 56.324,242.536 53.865,242.637 54.167 C 242.745 54.490,240.211 66.346,239.541 68.656 C 239.422 69.066,239.826 69.095,245.576 69.095 L 251.739 69.095 251.983 68.153 C 252.117 67.635,253.079 63.310,254.120 58.543 C 255.162 53.775,257.035 45.199,258.283 39.484 C 259.532 33.770,260.553 28.823,260.553 28.492 L 260.553 27.889 253.574 27.889 L 246.595 27.889 240.446 38.303 L 234.296 48.716 234.130 47.536 C 234.039 46.888,233.954 42.202,233.942 37.123 L 233.920 27.889 227.278 27.889 C 221.171 27.889,220.626 27.925,220.506 28.329 M263.705 28.123 C 263.595 28.300,258.291 52.378,258.291 52.697 C 258.291 52.734,262.194 52.764,266.965 52.764 L 275.638 52.764 275.504 53.329 C 275.257 54.375,272.111 68.905,272.111 69.001 C 272.111 69.193,284.145 69.089,284.265 68.896 C 284.398 68.680,285.506 63.716,288.849 48.367 C 291.283 37.188,293.216 28.174,293.216 28.005 C 293.216 27.941,290.510 27.889,287.203 27.889 L 281.190 27.889 280.798 29.711 C 280.582 30.713,279.952 33.595,279.399 36.117 C 278.845 38.638,278.392 40.758,278.392 40.828 C 278.392 40.898,277.035 40.955,275.377 40.955 C 272.948 40.955,272.362 40.886,272.362 40.600 C 272.362 40.405,272.927 37.625,273.618 34.422 C 274.309 31.219,274.874 28.439,274.874 28.244 C 274.874 27.825,263.962 27.706,263.705 28.123 M307.126 32.344 C 305.763 34.795,304.611 36.886,304.564 36.993 C 304.518 37.099,309.027 37.186,314.584 37.186 L 324.687 37.186 324.548 36.244 C 324.471 35.726,324.154 33.634,323.842 31.595 L 323.276 27.889 316.440 27.889 L 309.603 27.889 307.126 32.344 M76.256 37.284 C 76.256 38.042,75.424 38.419,75.003 37.852 C 74.511 37.192,74.804 36.641,75.597 36.733 C 76.049 36.785,76.256 36.958,76.256 37.284 M59.446 38.022 C 60.690 39.093,59.665 40.771,58.125 40.185 C 56.901 39.720,56.627 38.505,57.594 37.828 C 58.345 37.302,58.646 37.334,59.446 38.022 M302.308 41.771 C 302.035 42.220,298.508 48.467,294.471 55.653 C 290.433 62.839,287.079 68.803,287.017 68.907 C 286.956 69.011,290.110 69.095,294.027 69.095 L 301.149 69.095 302.072 67.492 C 302.579 66.609,304.537 62.874,306.423 59.191 L 309.851 52.494 312.024 52.566 L 314.196 52.638 314.504 56.533 C 314.998 62.786,315.576 68.638,315.723 68.876 C 315.798 68.997,318.846 69.095,322.496 69.095 L 329.133 69.095 329.009 68.405 C 328.858 67.563,325.377 41.451,325.377 41.161 C 325.377 41.047,320.298 40.955,314.091 40.955 L 302.805 40.955 302.308 41.771 M88.320 45.992 C 88.410 46.275,88.343 46.676,88.170 46.884 C 87.725 47.421,87.065 46.756,87.303 46.008 C 87.517 45.331,88.108 45.322,88.320 45.992 M80.645 51.319 C 81.284 53.924,82.916 55.819,84.829 56.178 C 86.011 56.400,85.891 56.673,84.392 57.171 C 82.197 57.900,81.116 59.287,80.534 62.123 C 80.333 63.104,79.949 62.978,79.768 61.872 C 79.357 59.355,78.024 57.761,75.724 57.041 C 74.902 56.783,74.413 56.520,74.623 56.449 C 74.830 56.378,75.434 56.186,75.964 56.023 C 77.828 55.448,78.973 53.987,79.648 51.319 C 79.797 50.732,80.023 50.251,80.151 50.251 C 80.278 50.251,80.501 50.732,80.645 51.319 M40.844 55.905 C 42.060 57.286,43.100 58.400,43.155 58.378 C 43.209 58.357,44.492 57.362,46.006 56.169 C 47.520 54.975,48.907 53.942,49.089 53.872 C 49.369 53.764,52.941 57.772,53.576 58.908 C 53.709 59.146,52.886 59.986,50.832 61.707 L 47.897 64.167 50.107 66.209 L 52.316 68.251 49.965 70.262 C 48.671 71.368,47.467 72.359,47.289 72.465 C 47.075 72.590,46.158 71.916,44.614 70.499 C 41.805 67.920,42.483 67.954,39.417 70.236 C 38.017 71.279,36.783 72.098,36.676 72.058 C 36.463 71.978,32.671 67.608,31.908 66.565 L 31.436 65.918 34.186 64.072 C 35.698 63.056,36.933 62.160,36.932 62.080 C 36.930 62.000,35.667 61.038,34.124 59.942 L 31.319 57.950 32.305 57.086 C 36.326 53.562,37.806 52.532,38.223 52.966 C 38.448 53.200,39.627 54.523,40.844 55.905 M96.985 60.795 C 96.985 61.715,96.239 62.217,95.477 61.809 C 94.472 61.271,95.031 60.050,96.281 60.050 C 96.894 60.050,96.985 60.147,96.985 60.795 M68.844 66.080 C 68.844 66.495,68.731 66.834,68.593 66.834 C 68.455 66.834,68.342 66.495,68.342 66.080 C 68.342 65.666,68.455 65.327,68.593 65.327 C 68.731 65.327,68.844 65.666,68.844 66.080 M99.881 72.373 C 100.108 72.740,99.530 73.367,98.964 73.367 C 98.468 73.367,98.393 73.165,98.645 72.508 C 98.817 72.061,99.633 71.972,99.881 72.373 M93.190 73.094 C 93.617 73.364,93.375 74.121,92.862 74.121 C 92.390 74.121,92.126 73.698,92.307 73.229 C 92.467 72.812,92.690 72.778,93.190 73.094 M63.568 76.135 C 63.903 76.354,63.903 76.409,63.568 76.629 C 62.934 77.046,62.333 76.705,62.688 76.131 C 62.882 75.818,63.087 75.819,63.568 76.135 M49.473 78.293 L 49.988 78.947 49.200 80.093 L 48.411 81.239 47.825 80.506 C 47.193 79.717,47.049 78.429,47.538 77.940 C 48.040 77.438,48.928 77.600,49.473 78.293 M175.201 79.866 C 173.791 79.954,172.517 80.146,172.370 80.293 C 172.012 80.652,170.249 88.314,170.421 88.763 C 170.591 89.205,175.521 89.447,184.399 89.449 C 191.181 89.450,192.369 89.615,192.613 90.589 C 193.094 92.507,192.735 92.567,180.327 92.661 L 169.574 92.743 169.343 93.294 C 169.097 93.880,167.324 101.675,164.818 113.191 C 163.976 117.060,163.230 120.424,163.159 120.666 C 163.040 121.076,163.435 121.106,169.016 121.106 L 175.001 121.106 175.438 119.158 C 176.905 112.610,179.019 104.296,179.175 104.458 C 179.276 104.563,181.704 112.026,184.570 121.043 L 189.780 137.437 195.753 137.437 L 201.726 137.437 201.623 136.872 C 201.567 136.561,201.006 134.611,200.377 132.538 C 199.164 128.541,193.011 108.025,192.205 105.290 C 191.627 103.329,191.616 103.347,194.319 101.954 C 203.332 97.311,204.946 82.316,196.608 80.701 C 193.303 80.061,180.262 79.552,175.201 79.866 M136.093 84.290 C 135.561 86.730,135.201 88.803,135.294 88.896 C 135.628 89.230,139.702 89.408,147.487 89.429 C 156.009 89.452,157.130 89.582,157.595 90.604 C 158.372 92.308,156.406 92.705,147.013 92.740 C 138.688 92.771,134.819 92.969,134.403 93.386 C 134.241 93.548,133.833 94.848,133.496 96.275 C 132.165 101.913,128.141 120.240,128.141 120.664 C 128.141 121.086,128.508 121.111,133.982 121.047 L 139.824 120.980 140.259 119.221 C 140.498 118.254,141.358 114.410,142.170 110.678 L 143.646 103.894 146.258 103.835 C 163.185 103.451,166.960 100.850,166.960 89.573 C 166.960 80.747,165.821 80.171,147.990 79.974 L 137.060 79.853 136.093 84.290 M238.598 80.339 C 238.354 81.168,236.683 88.862,236.683 89.155 C 236.683 89.368,238.084 89.447,241.834 89.447 C 244.667 89.447,246.985 89.543,246.985 89.660 C 246.985 89.777,246.529 91.897,245.972 94.371 C 244.176 102.352,240.711 118.358,240.363 120.280 L 240.217 121.088 246.210 121.096 L 252.202 121.103 252.460 120.037 C 252.601 119.450,254.164 112.327,255.933 104.209 L 259.148 89.447 264.368 89.447 C 269.575 89.447,269.589 89.446,269.722 88.882 C 270.257 86.623,271.608 80.374,271.608 80.162 C 271.608 79.637,238.752 79.814,238.598 80.339 M274.539 80.088 C 274.450 80.236,273.214 85.502,272.475 88.884 L 272.351 89.452 286.113 89.387 L 299.874 89.322 300.799 84.925 C 301.307 82.506,301.731 80.386,301.741 80.214 C 301.761 79.860,274.752 79.735,274.539 80.088 M310.526 86.473 C 307.431 90.089,304.128 93.951,303.184 95.055 C 300.073 98.695,299.976 97.383,304.373 111.181 L 307.496 120.980 320.630 121.045 C 327.854 121.081,333.858 121.016,333.973 120.901 C 334.219 120.655,335.919 112.248,335.925 111.244 L 335.930 110.553 327.198 110.551 C 315.329 110.549,316.229 110.992,314.585 104.349 C 313.300 99.156,312.837 100.458,318.094 94.476 L 322.487 89.478 331.660 89.462 L 340.833 89.447 342.034 84.862 C 342.695 82.340,343.232 80.192,343.226 80.088 C 343.221 79.984,337.127 79.899,329.684 79.899 L 316.153 79.899 310.526 86.473 M346.367 80.214 C 346.312 80.386,345.852 82.385,345.345 84.655 C 344.838 86.925,344.366 88.929,344.297 89.109 C 344.152 89.486,371.472 89.620,371.705 89.243 C 371.837 89.028,373.618 80.551,373.618 80.134 C 373.618 79.746,346.490 79.825,346.367 80.214 M376.785 80.339 C 376.623 80.875,371.053 106.184,369.333 114.196 C 368.651 117.374,368.034 120.230,367.961 120.542 L 367.829 121.110 382.093 121.045 L 396.357 120.980 396.767 119.221 C 396.993 118.254,397.481 116.049,397.853 114.322 C 398.224 112.594,398.589 110.927,398.663 110.616 L 398.798 110.050 390.354 110.050 C 383.625 110.050,381.910 109.984,381.910 109.726 C 381.910 109.455,387.850 82.477,388.337 80.536 L 388.497 79.899 382.707 79.899 C 377.412 79.899,376.907 79.937,376.785 80.339 M101.005 82.678 C 101.005 82.946,100.835 83.166,100.628 83.166 C 100.255 83.166,100.101 82.394,100.412 82.084 C 100.674 81.822,101.005 82.154,101.005 82.678 M66.784 84.472 C 67.549 85.237,66.868 86.544,65.785 86.389 C 65.047 86.283,64.591 85.131,65.063 84.563 C 65.449 84.097,66.361 84.049,66.784 84.472 M24.561 85.466 C 24.924 85.828,24.520 86.683,23.986 86.683 C 23.600 86.683,23.514 86.242,23.771 85.573 C 23.952 85.101,24.168 85.072,24.561 85.466 M37.759 87.500 C 37.922 87.953,37.482 88.693,37.051 88.693 C 36.679 88.693,36.527 87.677,36.851 87.353 C 37.125 87.080,37.638 87.163,37.759 87.500 M104.979 91.494 C 106.105 92.815,106.125 92.923,105.421 93.987 C 104.633 95.177,104.500 95.193,103.666 94.202 C 102.867 93.253,102.847 92.615,103.580 91.537 C 104.266 90.531,104.159 90.534,104.979 91.494 M87.099 92.841 C 88.420 93.707,89.528 96.446,88.861 97.198 C 88.659 97.426,88.454 97.839,88.405 98.116 C 88.166 99.455,83.697 100.032,82.432 98.887 C 79.414 96.156,83.694 90.611,87.099 92.841 M206.176 93.166 C 205.852 94.214,200.251 119.931,200.251 120.367 C 200.251 120.843,200.558 120.854,213.882 120.851 L 227.513 120.848 230.509 107.346 C 232.157 99.920,233.555 93.590,233.616 93.279 L 233.727 92.714 228.826 92.714 L 223.925 92.714 223.757 93.656 C 223.287 96.284,220.265 108.962,220.044 109.234 C 219.589 109.792,212.491 109.671,212.663 109.108 C 212.970 108.107,215.841 94.958,215.989 93.880 L 216.149 92.711 211.228 92.725 C 206.824 92.737,206.293 92.784,206.176 93.166 M271.509 93.153 C 271.261 93.976,265.790 118.966,265.650 119.914 L 265.511 120.859 279.175 120.794 L 292.839 120.729 295.904 107.035 C 297.590 99.504,298.975 93.200,298.982 93.028 C 298.992 92.787,297.866 92.714,294.154 92.714 L 289.314 92.714 288.733 95.415 C 287.317 101.998,285.603 108.946,285.323 109.241 C 285.097 109.479,284.105 109.544,281.497 109.492 L 277.975 109.422 279.648 101.884 C 280.568 97.739,281.394 93.979,281.483 93.530 L 281.646 92.714 276.644 92.714 C 272.098 92.714,271.630 92.754,271.509 93.153 M343.245 93.907 C 341.771 100.355,337.437 120.359,337.437 120.712 C 337.437 121.105,364.321 121.139,364.759 120.746 C 364.792 120.717,365.559 117.252,366.465 113.047 C 367.370 108.842,368.728 102.654,369.483 99.295 C 370.237 95.936,370.854 93.079,370.854 92.945 C 370.854 92.795,369.014 92.729,366.033 92.771 L 361.211 92.839 360.137 97.864 C 359.546 100.628,358.748 104.359,358.363 106.156 L 357.663 109.422 353.832 109.491 C 351.473 109.534,350.000 109.467,350.000 109.317 C 350.000 109.183,350.791 105.507,351.759 101.148 C 352.726 96.790,353.518 93.109,353.518 92.969 C 353.518 92.805,351.735 92.714,348.518 92.714 L 343.517 92.714 343.245 93.907 M61.935 96.106 C 61.935 96.359,61.793 96.613,61.621 96.671 C 61.422 96.737,61.307 96.530,61.307 96.106 C 61.307 95.681,61.422 95.474,61.621 95.540 C 61.793 95.598,61.935 95.852,61.935 96.106 M96.649 98.384 C 96.848 98.902,96.327 99.443,95.972 99.087 C 95.684 98.800,95.901 97.990,96.266 97.990 C 96.394 97.990,96.566 98.167,96.649 98.384 M71.819 105.996 C 72.182 107.207,72.939 108.187,73.892 108.680 C 74.814 109.157,74.816 109.431,73.900 109.751 C 72.908 110.097,71.843 111.575,71.673 112.844 L 71.531 113.898 70.916 112.665 C 70.577 111.987,69.793 110.910,69.174 110.271 L 68.048 109.110 68.781 108.588 C 69.184 108.300,69.879 107.381,70.325 106.545 C 71.276 104.760,71.432 104.703,71.819 105.996 M52.931 109.690 C 53.159 110.286,52.623 110.706,52.143 110.308 C 51.846 110.061,51.821 109.902,52.038 109.640 C 52.414 109.187,52.745 109.205,52.931 109.690 M87.136 119.648 C 87.986 120.499,87.123 121.889,86.048 121.399 C 85.444 121.124,85.161 119.948,85.595 119.514 C 85.868 119.241,86.811 119.323,87.136 119.648 M65.444 122.137 C 66.498 123.063,66.535 123.340,65.704 124.121 C 65.358 124.445,65.075 124.917,65.075 125.169 C 65.075 125.951,64.441 125.676,63.860 124.642 C 63.555 124.100,63.180 123.614,63.026 123.563 C 62.743 123.469,64.024 121.385,64.376 121.366 C 64.475 121.361,64.955 121.708,65.444 122.137 M61.010 134.379 C 61.062 134.734,60.957 134.925,60.711 134.925 C 60.222 134.925,59.965 134.504,60.154 134.012 C 60.358 133.479,60.912 133.716,61.010 134.379 " stroke="none" fill-rule="evenodd"></path></g></svg>