<svg id="svg" version="1.1" xmlns="http://www.w3.org/2000/svg" xmlns:xlink="http://www.w3.org/1999/xlink" width="400" height="470.1561065197429" viewBox="0, 0, 400,470.1561065197429"><g id="svgg"><path id="path0" d="M199.078 0.796 C 198.777 1.234,198.200 2.127,197.796 2.779 C 192.400 11.491,178.927 26.222,168.593 34.711 C 167.117 35.923,165.052 37.658,164.004 38.567 C 161.296 40.917,153.717 46.606,150.048 49.043 C 148.838 49.847,147.628 50.712,147.359 50.964 C 147.091 51.217,146.730 51.423,146.558 51.423 C 146.386 51.423,145.510 51.985,144.610 52.672 C 143.711 53.358,142.252 54.327,141.368 54.825 C 140.484 55.323,138.935 56.229,137.925 56.839 C 136.915 57.449,134.848 58.698,133.333 59.614 C 129.195 62.117,122.323 65.855,120.661 66.507 C 119.853 66.824,118.507 67.518,117.671 68.049 C 116.834 68.579,115.264 69.301,114.181 69.653 C 113.099 70.005,111.402 70.769,110.412 71.350 C 109.421 71.932,107.272 72.830,105.637 73.345 C 104.001 73.861,102.250 74.572,101.745 74.927 C 101.240 75.281,98.843 76.241,96.419 77.060 C 93.994 77.880,90.854 78.994,89.440 79.536 C 88.026 80.078,86.125 80.671,85.216 80.853 C 84.307 81.036,82.075 81.689,80.257 82.305 C 78.439 82.921,75.216 83.813,73.095 84.287 C 67.577 85.521,64.323 86.320,62.550 86.878 C 61.700 87.145,58.312 87.718,55.020 88.150 C 51.729 88.582,47.961 89.169,46.648 89.453 C 45.335 89.738,42.360 90.148,40.037 90.363 C 37.713 90.579,34.986 90.924,33.976 91.131 C 32.966 91.337,25.238 91.604,16.802 91.724 C 4.626 91.897,1.380 92.044,1.055 92.435 C 0.757 92.794,0.702 106.080,0.853 141.505 C 1.076 193.595,1.236 198.809,3.162 216.713 C 3.455 219.440,3.863 223.324,4.068 225.344 C 4.681 231.383,5.530 237.147,6.642 242.836 C 7.220 245.790,7.874 249.427,8.096 250.917 C 8.746 255.281,9.854 260.676,10.991 265.014 C 11.574 267.236,12.419 270.704,12.870 272.721 C 13.321 274.737,14.254 278.125,14.944 280.250 C 15.635 282.375,16.589 285.684,17.066 287.603 C 17.543 289.522,18.595 292.786,19.405 294.856 C 20.214 296.926,21.039 299.322,21.237 300.182 C 21.436 301.041,22.417 303.646,23.418 305.969 C 24.419 308.292,25.535 311.102,25.896 312.213 C 26.258 313.324,27.274 315.728,28.153 317.556 C 29.033 319.383,29.752 321.094,29.752 321.358 C 29.752 321.621,30.633 323.597,31.710 325.749 C 32.786 327.900,34.045 330.611,34.507 331.772 C 34.969 332.934,35.469 333.884,35.617 333.884 C 35.904 333.884,38.200 338.657,38.200 339.253 C 38.200 339.447,38.689 340.178,39.287 340.877 C 39.885 341.576,40.381 342.317,40.389 342.523 C 40.397 342.728,40.794 343.472,41.270 344.176 C 41.747 344.879,42.262 345.852,42.415 346.337 C 42.568 346.823,43.481 348.393,44.444 349.827 C 45.407 351.260,46.471 353.095,46.808 353.903 C 47.146 354.711,47.798 355.785,48.257 356.290 C 48.717 356.795,49.873 358.448,50.826 359.963 C 53.097 363.573,56.317 368.209,57.885 370.126 C 58.573 370.968,59.137 371.813,59.137 372.003 C 59.137 372.193,59.767 373.074,60.537 373.961 C 61.767 375.378,64.389 378.701,67.698 383.037 C 68.888 384.596,71.463 387.623,72.562 388.756 C 72.976 389.183,74.951 391.350,76.950 393.572 C 80.389 397.395,88.734 405.708,92.746 409.306 C 93.756 410.212,95.408 411.731,96.417 412.681 C 97.427 413.632,98.946 414.907,99.794 415.516 C 100.641 416.125,101.421 416.848,101.526 417.122 C 101.632 417.397,102.509 418.110,103.476 418.708 C 104.443 419.306,105.440 420.131,105.691 420.541 C 105.942 420.951,106.769 421.605,107.528 421.995 C 108.286 422.384,109.568 423.287,110.376 424.002 C 111.185 424.717,112.620 425.848,113.566 426.517 C 114.512 427.185,116.578 428.657,118.157 429.788 C 122.993 433.250,128.314 436.796,129.153 437.115 C 129.591 437.281,130.788 438.048,131.813 438.819 C 132.838 439.590,134.632 440.714,135.800 441.318 C 136.969 441.922,138.417 442.745,139.018 443.148 C 139.620 443.550,141.355 444.531,142.875 445.329 C 144.395 446.126,147.126 447.576,148.944 448.552 C 150.762 449.528,152.994 450.681,153.903 451.116 C 154.812 451.550,157.221 452.706,159.257 453.685 C 161.293 454.663,163.155 455.464,163.394 455.464 C 163.634 455.464,164.117 455.626,164.468 455.823 C 165.749 456.546,171.826 459.137,172.239 459.137 C 172.473 459.137,173.291 459.456,174.056 459.847 C 174.821 460.237,178.575 461.576,182.398 462.822 C 186.220 464.069,189.895 465.322,190.563 465.606 C 191.232 465.891,192.907 466.284,194.285 466.480 C 195.663 466.675,197.234 467.004,197.776 467.210 C 199.519 467.873,200.316 467.774,207.897 465.952 C 211.389 465.113,219.671 462.433,223.875 460.782 C 226.097 459.910,228.326 459.076,228.829 458.930 C 229.331 458.784,231.294 457.945,233.190 457.064 C 235.087 456.184,236.789 455.464,236.971 455.464 C 237.782 455.464,254.577 447.109,256.719 445.640 C 257.443 445.144,258.443 444.580,258.941 444.387 C 260.028 443.965,266.050 440.460,268.871 438.608 C 269.982 437.879,271.188 437.160,271.551 437.012 C 271.914 436.863,272.809 436.285,273.539 435.726 C 274.270 435.168,275.657 434.215,276.623 433.609 C 277.589 433.003,280.131 431.267,282.271 429.752 C 284.412 428.237,286.921 426.472,287.848 425.830 C 288.775 425.188,290.049 424.181,290.680 423.592 C 291.311 423.003,292.447 422.151,293.205 421.699 C 293.962 421.247,294.582 420.740,294.582 420.574 C 294.582 420.407,295.450 419.652,296.511 418.896 C 297.571 418.140,298.569 417.301,298.728 417.033 C 298.887 416.765,299.779 416.021,300.711 415.380 C 301.642 414.739,302.834 413.761,303.360 413.206 C 303.886 412.651,306.547 410.162,309.275 407.674 C 312.002 405.187,315.390 401.975,316.804 400.537 C 322.336 394.911,326.639 390.285,328.520 387.942 C 329.602 386.594,330.921 385.091,331.451 384.601 C 331.981 384.111,332.415 383.520,332.415 383.287 C 332.415 383.055,332.849 382.464,333.379 381.974 C 334.308 381.117,338.716 375.524,340.387 373.083 C 340.832 372.433,341.842 371.074,342.632 370.064 C 343.422 369.054,344.706 367.236,345.485 366.024 C 346.264 364.812,347.444 363.200,348.107 362.442 C 348.769 361.683,349.311 360.897,349.311 360.693 C 349.311 360.490,350.245 358.879,351.386 357.113 C 355.535 350.693,357.183 347.976,357.903 346.373 C 358.220 345.666,359.108 344.096,359.875 342.883 C 360.643 341.671,361.508 340.101,361.796 339.394 C 362.085 338.687,362.957 336.981,363.734 335.603 C 364.512 334.225,365.724 331.828,366.429 330.277 C 367.133 328.726,368.267 326.299,368.950 324.885 C 370.999 320.638,374.216 313.265,374.960 311.111 C 375.344 310.000,376.313 307.438,377.112 305.418 C 379.297 299.899,381.607 293.050,384.300 284.114 C 384.908 282.094,385.721 279.428,386.107 278.190 C 386.492 276.952,386.944 275.134,387.112 274.149 C 387.280 273.165,387.914 270.542,388.520 268.320 C 389.650 264.180,391.384 256.699,391.670 254.729 C 391.758 254.123,392.276 251.148,392.820 248.118 C 393.365 245.087,393.943 241.864,394.105 240.955 C 394.866 236.676,395.591 231.480,396.128 226.446 C 396.451 223.416,396.869 219.780,397.056 218.365 C 397.243 216.951,397.574 213.646,397.792 211.019 C 398.009 208.393,398.350 204.426,398.550 202.204 C 398.750 199.982,399.075 194.602,399.273 190.249 C 399.756 179.616,399.752 94.025,399.268 92.752 L 398.903 91.792 387.422 91.837 C 368.891 91.912,349.843 89.805,334.209 85.951 C 330.929 85.143,327.865 84.481,327.400 84.481 C 326.935 84.481,323.948 83.646,320.761 82.626 C 317.575 81.606,313.728 80.379,312.213 79.899 C 306.234 78.007,301.467 76.284,298.423 74.915 C 297.606 74.548,295.847 73.837,294.513 73.335 C 290.268 71.737,272.242 62.933,269.031 60.889 C 268.236 60.383,265.271 58.602,262.443 56.932 C 259.614 55.261,256.960 53.588,256.545 53.213 C 256.129 52.837,255.220 52.240,254.525 51.885 C 252.581 50.893,237.127 39.547,235.189 37.689 C 234.745 37.263,233.187 35.923,231.727 34.711 C 228.202 31.784,212.094 15.752,210.261 13.346 C 209.466 12.303,207.263 9.411,205.365 6.919 C 203.467 4.426,201.745 1.850,201.538 1.194 C 201.089 -0.232,199.915 -0.421,199.078 0.796 M203.344 34.373 C 241.830 76.766,310.353 107.677,372.635 110.743 C 375.060 110.862,377.758 111.047,378.632 111.154 L 380.220 111.348 380.064 152.919 C 379.898 196.876,379.876 197.546,377.953 216.345 C 367.754 316.067,320.035 391.479,241.506 431.979 C 226.679 439.625,203.085 448.575,199.478 447.921 C 191.959 446.558,171.537 438.530,158.678 431.882 C 79.932 391.175,32.375 315.533,22.242 214.876 C 20.620 198.763,20.484 194.365,20.309 152.185 L 20.140 111.349 21.732 111.165 C 22.608 111.063,26.288 110.796,29.910 110.571 C 92.371 106.687,158.389 76.617,196.854 34.531 C 200.502 30.539,199.877 30.555,203.344 34.373 " stroke="none" fill="#0c0c0c" fill-rule="evenodd"></path><path id="path1" d="M197.980 33.242 C 197.088 34.151,196.440 34.894,196.541 34.894 C 196.642 34.894,197.455 34.151,198.347 33.242 C 199.239 32.332,199.887 31.589,199.786 31.589 C 199.685 31.589,198.872 32.332,197.980 33.242 M202.020 33.242 C 202.706 33.949,203.349 34.527,203.450 34.527 C 203.551 34.527,203.073 33.949,202.388 33.242 C 201.702 32.534,201.059 31.956,200.958 31.956 C 200.857 31.956,201.335 32.534,202.020 33.242 M188.797 42.424 C 187.905 43.333,187.258 44.077,187.359 44.077 C 187.460 44.077,188.272 43.333,189.164 42.424 C 190.057 41.515,190.704 40.771,190.603 40.771 C 190.502 40.771,189.689 41.515,188.797 42.424 M210.836 42.057 C 211.521 42.764,212.164 43.343,212.265 43.343 C 212.366 43.343,211.888 42.764,211.203 42.057 C 210.518 41.350,209.874 40.771,209.773 40.771 C 209.672 40.771,210.150 41.350,210.836 42.057 M195.211 53.535 C 151.977 92.635,100.380 115.604,41.139 122.123 C 38.209 122.445,35.110 122.795,34.252 122.901 L 32.691 123.094 32.691 152.731 C 32.692 200.443,34.096 219.114,39.835 247.765 C 55.672 326.822,98.072 386.066,163.269 420.237 C 176.577 427.212,200.918 436.663,200.918 434.855 C 200.918 434.631,201.150 434.537,201.433 434.646 C 201.717 434.755,202.052 434.740,202.179 434.614 C 202.305 434.487,202.668 434.345,202.985 434.299 C 204.162 434.126,213.039 431.107,213.039 430.879 C 213.039 430.749,213.329 430.617,213.682 430.585 C 215.361 430.433,231.772 423.289,231.772 422.709 C 231.772 422.519,231.924 422.456,232.110 422.571 C 232.296 422.686,232.709 422.519,233.028 422.199 C 233.348 421.880,233.609 421.715,233.609 421.833 C 233.609 422.283,242.005 417.788,249.219 413.475 C 254.928 410.062,264.096 403.998,264.096 403.634 C 264.096 403.453,264.281 403.306,264.507 403.306 C 265.068 403.306,274.660 396.044,275.105 395.282 C 275.300 394.948,275.465 394.813,275.471 394.982 C 275.497 395.700,283.333 388.742,291.769 380.509 C 305.145 367.455,320.504 348.189,326.581 336.840 C 327.062 335.941,327.652 334.990,327.891 334.727 C 329.128 333.364,339.466 313.853,339.828 312.196 C 339.892 311.902,340.046 311.579,340.171 311.478 C 340.526 311.189,343.993 303.034,346.417 296.786 C 355.982 272.133,362.593 244.003,365.469 215.715 C 367.275 197.954,367.395 194.672,367.570 158.062 L 367.737 123.103 366.146 122.906 C 365.271 122.797,362.158 122.444,359.229 122.119 C 299.873 115.553,245.854 91.404,204.713 53.045 C 202.457 50.941,200.470 49.219,200.297 49.219 C 200.125 49.219,197.836 51.162,195.211 53.535 M22.130 111.181 C 22.484 111.273,23.062 111.273,23.416 111.181 C 23.770 111.088,23.480 111.013,22.773 111.013 C 22.066 111.013,21.777 111.088,22.130 111.181 M20.326 182.553 C 20.326 184.068,20.390 184.688,20.470 183.930 C 20.549 183.173,20.549 181.933,20.470 181.175 C 20.390 180.418,20.326 181.038,20.326 182.553 M379.912 185.675 C 379.914 186.887,379.982 187.339,380.064 186.678 C 380.146 186.018,380.144 185.027,380.060 184.475 C 379.977 183.923,379.910 184.463,379.912 185.675 M20.669 193.205 C 20.669 194.114,20.741 194.486,20.829 194.031 C 20.916 193.577,20.916 192.833,20.829 192.378 C 20.741 191.924,20.669 192.296,20.669 193.205 M379.523 194.858 C 379.527 195.666,379.603 195.953,379.690 195.496 C 379.778 195.039,379.775 194.378,379.683 194.027 C 379.591 193.676,379.519 194.050,379.523 194.858 M21.029 199.633 C 21.033 200.441,21.109 200.728,21.196 200.271 C 21.284 199.814,21.281 199.153,21.189 198.802 C 21.097 198.451,21.025 198.825,21.029 199.633 M21.397 205.142 C 21.401 205.950,21.476 206.238,21.564 205.781 C 21.652 205.324,21.648 204.663,21.556 204.312 C 21.464 203.960,21.393 204.334,21.397 205.142 M21.756 209.734 C 21.756 210.441,21.832 210.730,21.924 210.376 C 22.017 210.023,22.017 209.444,21.924 209.091 C 21.832 208.737,21.756 209.027,21.756 209.734 M311.639 377.686 L 310.560 378.880 311.754 377.801 C 312.410 377.208,312.948 376.670,312.948 376.607 C 312.948 376.323,312.645 376.573,311.639 377.686 M307.805 381.818 C 306.913 382.727,306.266 383.471,306.367 383.471 C 306.468 383.471,307.280 382.727,308.173 381.818 C 309.065 380.909,309.712 380.165,309.611 380.165 C 309.510 380.165,308.698 380.909,307.805 381.818 M91.460 381.015 C 91.460 381.078,91.997 381.615,92.654 382.209 L 93.848 383.287 92.769 382.094 C 91.763 380.981,91.460 380.731,91.460 381.015 M103.949 393.572 C 104.634 394.279,105.277 394.858,105.378 394.858 C 105.479 394.858,105.001 394.279,104.316 393.572 C 103.631 392.865,102.987 392.287,102.886 392.287 C 102.785 392.287,103.263 392.865,103.949 393.572 M296.032 393.664 L 294.766 395.041 296.143 393.776 C 297.425 392.597,297.690 392.287,297.409 392.287 C 297.348 392.287,296.728 392.906,296.032 393.664 " stroke="none" fill="#4c5ce3" fill-rule="evenodd"></path><path id="path2" d="M195.225 36.275 C 162.052 70.650,113.710 96.448,64.279 106.153 C 50.919 108.776,30.051 111.253,20.990 111.291 L 20.125 111.295 20.314 150.689 C 20.422 173.260,20.674 192.514,20.904 195.776 C 22.313 215.799,23.296 224.711,25.683 239.118 C 38.136 314.282,73.309 373.883,128.558 413.442 C 149.492 428.431,177.400 442.036,198.838 447.703 C 203.747 449.001,235.069 436.164,253.546 425.281 C 331.971 379.088,375.319 297.956,379.799 188.981 C 380.493 172.083,380.277 111.296,379.522 111.289 C 377.447 111.271,366.810 110.450,360.514 109.822 C 301.440 103.933,244.357 76.739,204.107 35.311 C 201.921 33.062,200.103 31.245,200.067 31.274 C 200.030 31.303,197.851 33.553,195.225 36.275 M204.713 53.045 C 245.854 91.404,299.873 115.553,359.229 122.119 C 362.158 122.444,365.271 122.797,366.146 122.906 L 367.737 123.103 367.570 158.062 C 367.395 194.672,367.275 197.954,365.469 215.715 C 360.012 269.383,342.580 317.095,314.847 354.270 C 287.355 391.122,247.145 420.248,205.225 433.672 L 200.165 435.292 195.029 433.631 C 129.465 412.419,76.658 359.741,51.646 290.597 C 37.314 250.978,32.692 217.365,32.691 152.731 L 32.691 123.094 34.252 122.901 C 35.110 122.795,38.209 122.445,41.139 122.123 C 100.380 115.604,151.977 92.635,195.211 53.535 C 197.836 51.162,200.125 49.219,200.297 49.219 C 200.470 49.219,202.457 50.941,204.713 53.045 " stroke="none" fill="#fafafa" fill-rule="evenodd"></path></g></svg>