<svg width="24" height="24" xmlns="http://www.w3.org/2000/svg" stroke="#FFFFFF" class="icon flat-line" data-name="Flat Line" fill="#FFFFFF">

 <g>
  <title>Layer 1</title>
  <g stroke-width="0" id="SVGRepo_bgCarrier"/>
  <g stroke-linejoin="round" stroke-linecap="round" id="SVGRepo_tracerCarrier"/>
  <path stroke-width="2" fill=" #39bd39" d="m12,3a9,9 0 1 0 9,9a9,9 0 0 0 -9,-9zm-4,11l4,-6l4,6l-8,0z" id="secondary"/>
  <path stroke-width="2" stroke-linejoin=" round" stroke-linecap=" round" stroke=" #FFFFFF" fill=" none" d="m12,8l4,6l-8,0l4,-6zm-9,4a9,9 0 1 0 9,-9a9,9 0 0 0 -9,9z" id="primary"/>
  <path d="m12.26829,11.87805c0.04878,0.04878 0.05607,0.07192 0.09756,0.09756c0.09279,0.05734 0.11445,0.13197 0.19512,0.2439c0.06378,0.08849 0.13197,0.21201 0.2439,0.29268c0.08849,0.06378 0.11185,0.11185 0.14634,0.14634c0.03449,0.03449 0.05958,-0.03997 0.09756,-0.09756c0.14461,-0.21931 0.09756,-0.48781 0.09756,-0.73171c0,-0.19512 -0.02637,-0.34407 -0.04878,-0.43902c-0.02506,-0.10616 -0.03378,-0.15541 -0.09756,-0.2439c-0.04034,-0.05596 -0.13134,-0.15541 -0.19512,-0.2439c-0.08067,-0.11193 -0.15479,-0.18794 -0.19512,-0.2439c-0.06378,-0.08849 -0.14634,-0.19512 -0.19512,-0.2439c-0.04878,-0.04878 -0.08896,-0.0725 -0.19512,-0.09756c-0.04748,-0.01121 -0.10078,0.04281 -0.19512,0.09756c-0.15212,0.08828 -0.34146,0.2439 -0.53659,0.43902c-0.09756,0.09756 -0.2153,0.22563 -0.39024,0.43902c-0.11151,0.13602 -0.25318,0.2869 -0.34146,0.43902c-0.05475,0.09434 -0.14232,0.21399 -0.19512,0.34146c-0.03734,0.09013 -0.04878,0.19512 -0.04878,0.29268c0,0.09756 0.01145,0.15377 0.04878,0.2439c0.0264,0.06374 0.09756,0.09756 0.14634,0.14634c0.04878,0.04878 0.10127,0.03011 0.14634,0.04878c0.06374,0.0264 0.14458,0.05443 0.29268,0.09756c0.19311,0.05623 0.48331,0.07299 0.68293,0.09756c0.24207,0.0298 0.59302,-0.02828 0.87805,-0.14634c0.20155,-0.08348 0.27402,-0.15005 0.29268,-0.19512c0.0264,-0.06374 0.01563,-0.09882 0,-0.19512c-0.02471,-0.15227 -0.12735,-0.30045 -0.19512,-0.43902c-0.07727,-0.158 -0.22996,-0.30301 -0.34146,-0.43902c-0.08747,-0.1067 -0.23044,-0.25477 -0.39024,-0.43902c-0.1356,-0.15635 -0.22953,-0.26079 -0.34146,-0.34146c-0.08849,-0.06378 -0.14634,-0.09756 -0.19512,-0.09756c-0.04878,0 -0.09038,0.05722 -0.14634,0.09756c-0.08849,0.06378 -0.14634,0.14634 -0.2439,0.2439c-0.14634,0.14634 -0.27874,0.30301 -0.39024,0.43902c-0.13121,0.16005 -0.2439,0.2439 -0.34146,0.34146c-0.09756,0.09756 -0.13134,0.2042 -0.19512,0.29268c-0.08067,0.11193 -0.15479,0.18794 -0.19512,0.2439c-0.06378,0.08849 -0.09756,0.14634 -0.09756,0.19512c0,0.04878 -0.03449,0.06307 0,0.09756c0.06899,0.06899 0.02238,0.13139 0.04878,0.19512c0.03734,0.09013 0.05249,0.12767 0.09756,0.14634c0.06374,0.0264 0.09756,0.09756 0.14634,0.14634c0.09756,0.09756 0.13916,0.15479 0.19512,0.19512c0.08849,0.06378 0.19191,0.1046 0.29268,0.14634c0.14252,0.05903 0.19512,0.04878 0.2439,0.04878c0.04878,0 0.04878,0.04878 0.09756,0.04878c0.04878,0 0.08261,0.02238 0.14634,0.04878c0.04507,0.01867 0.14634,0 0.19512,0c0.14634,0 0.19512,0 0.34146,0c0.09756,0 0.18652,-0.02372 0.29268,-0.04878c0.14243,-0.03362 0.24516,0.01563 0.34146,0c0.15227,-0.02471 0.28409,-0.0725 0.39024,-0.09756c0.09495,-0.02242 0.19643,0.01121 0.2439,0c0.10616,-0.02506 0.14634,-0.04878 0.2439,-0.04878c0.04878,0 0.14634,0 0.19512,0c0.04878,0 0.09756,0 0.14634,0c0.04878,0 0.09756,0 0.14634,0c0.04878,0 0.04878,0.04878 0.09756,0.04878c0.04878,0 0.13774,0.02372 0.2439,0.04878c0.09495,0.02242 0.16063,-0.03449 0.19512,0c0.03449,0.03449 0.04878,0.04878 0.14634,0.09756l0.04878,0l0.04878,0" id="svg_3" stroke-width="2" stroke=" #FFFFFF" fill="none"/>
 </g>
</svg>