<svg id="svg" version="1.1" xmlns="http://www.w3.org/2000/svg" xmlns:xlink="http://www.w3.org/1999/xlink" width="400" height="300" viewBox="0, 0, 400,300"><g id="svgg"><path id="path0" d="M131.283 61.214 C 125.968 62.414,122.263 64.284,118.230 67.802 C 116.617 69.209,115.967 69.571,114.479 69.891 C 112.764 70.261,108.345 71.915,108.027 72.306 C 107.944 72.408,107.452 72.756,106.931 73.080 C 102.756 75.679,99.075 81.258,98.009 86.602 C 97.298 90.167,97.274 149.695,97.982 153.094 C 98.801 157.025,100.370 159.823,103.449 162.843 L 105.032 164.395 105.029 188.649 C 105.026 214.513,104.989 213.801,106.500 216.954 C 108.351 220.819,111.765 223.785,116.093 225.291 C 117.301 225.711,120.108 225.787,137.870 225.880 L 158.261 225.988 160.526 228.204 C 161.771 229.423,163.074 230.665,163.421 230.964 C 163.768 231.263,165.719 233.061,167.756 234.959 C 169.793 236.857,171.858 238.781,172.346 239.235 L 173.232 240.060 198.423 240.060 L 223.614 240.060 225.748 238.035 C 226.921 236.920,228.036 235.874,228.225 235.709 C 228.727 235.271,236.382 228.076,237.564 226.932 L 238.571 225.956 258.145 225.950 C 283.251 225.943,284.230 225.779,288.950 220.787 C 293.164 216.329,293.297 215.243,293.031 187.442 L 292.809 164.291 294.154 163.067 C 296.954 160.520,298.938 157.155,299.801 153.488 C 300.413 150.889,300.432 88.921,299.822 86.422 C 297.705 77.754,291.448 71.504,283.267 69.885 C 282.196 69.673,281.104 69.290,280.839 69.034 C 276.872 65.187,273.397 63.118,268.267 61.549 L 265.716 60.769 199.700 60.720 C 137.025 60.674,133.562 60.699,131.283 61.214 M266.617 65.110 C 269.275 65.760,272.679 67.362,274.378 68.762 L 275.484 69.674 275.401 91.176 C 275.319 112.524,275.314 112.691,274.656 114.432 C 273.529 117.416,271.291 119.838,268.298 121.311 L 266.329 122.281 198.806 122.281 L 131.283 122.281 129.593 121.450 C 126.383 119.871,123.904 117.145,122.786 113.964 C 122.231 112.385,122.195 111.195,122.090 91.132 L 121.980 69.966 122.693 69.208 C 123.746 68.086,128.598 65.735,131.153 65.108 C 134.760 64.222,262.994 64.225,266.617 65.110 M117.973 92.991 C 117.868 111.146,117.878 111.558,118.505 113.791 C 120.248 120.003,124.865 124.660,130.703 126.092 C 132.849 126.619,261.895 126.829,265.544 126.312 C 266.975 126.109,268.701 125.638,269.520 125.227 C 270.316 124.827,271.433 124.338,272.002 124.141 C 274.005 123.445,276.792 120.208,278.384 116.729 C 279.921 113.369,279.970 112.651,279.970 93.462 C 279.970 73.822,279.924 74.239,281.696 77.741 C 283.328 80.966,283.799 82.547,284.142 85.958 C 284.573 90.243,284.600 135.519,284.171 135.784 C 284.006 135.886,283.871 136.210,283.871 136.504 C 283.871 138.584,280.460 142.739,277.583 144.163 C 274.901 145.490,273.407 145.559,249.261 145.470 L 226.504 145.386 225.918 144.636 C 224.883 143.311,224.202 142.428,222.681 140.435 C 220.293 137.306,219.350 136.344,216.804 134.437 C 203.508 124.475,185.092 127.077,175.099 140.327 C 174.121 141.624,173.079 142.926,172.785 143.220 C 172.490 143.513,172.042 144.155,171.788 144.645 L 171.327 145.536 150.405 145.529 C 121.001 145.519,120.652 145.478,116.850 141.545 C 115.178 139.816,114.567 138.927,114.009 137.413 L 113.299 135.484 113.139 111.028 C 112.978 86.525,113.025 84.921,114.010 81.355 C 114.763 78.628,117.406 73.795,117.883 74.272 C 117.991 74.380,118.031 82.804,117.973 92.991 M112.528 74.710 C 112.528 74.871,112.207 75.715,111.814 76.586 C 111.018 78.351,110.395 80.128,109.785 82.371 C 109.073 84.992,109.196 136.481,109.919 138.485 C 111.741 143.530,115.476 147.199,120.630 149.006 C 122.199 149.556,123.487 149.590,146.662 149.679 L 171.043 149.773 171.033 152.381 C 171.018 156.518,174.706 156.071,141.446 155.963 C 115.292 155.879,112.546 155.824,111.225 155.360 C 106.620 153.745,103.403 150.480,101.929 145.930 C 101.183 143.626,101.158 89.496,101.901 86.615 C 103.080 82.045,106.081 78.020,110.135 75.569 C 112.117 74.370,112.528 74.223,112.528 74.710 M287.355 75.379 C 289.877 76.707,294.674 81.691,294.674 82.984 C 294.674 83.184,295.154 84.348,295.907 85.971 C 296.570 87.403,296.687 142.422,296.032 145.039 C 294.671 150.475,290.763 154.315,285.300 155.582 C 282.140 156.314,227.734 156.249,227.087 155.512 C 226.613 154.970,226.176 150.654,226.536 150.070 C 226.659 149.871,235.141 149.731,251.171 149.662 C 269.977 149.582,275.896 149.469,276.819 149.173 C 282.812 147.255,287.198 142.505,288.354 136.684 C 288.619 135.350,288.683 128.283,288.603 109.377 C 288.490 82.676,288.448 81.810,287.157 79.449 C 287.000 79.162,286.872 78.783,286.872 78.607 C 286.872 78.430,286.479 77.494,285.998 76.526 C 285.234 74.984,285.104 74.219,285.653 74.489 C 285.745 74.535,286.512 74.935,287.355 75.379 M203.211 132.646 C 204.891 132.976,207.796 133.788,208.552 134.139 C 209.052 134.371,210.779 135.263,211.694 135.762 C 215.323 137.741,219.414 142.069,221.865 146.522 C 222.612 147.878,222.656 148.189,222.656 152.108 L 222.656 156.258 223.558 157.274 C 225.078 158.984,227.426 164.363,226.973 165.096 C 226.886 165.236,226.195 164.505,225.437 163.471 C 212.198 145.412,186.004 145.037,172.718 162.716 C 171.757 163.995,170.922 165.041,170.864 165.041 C 170.294 165.041,172.572 159.530,174.241 156.870 C 174.887 155.842,174.944 155.427,174.944 151.750 L 174.944 147.749 176.172 145.713 C 177.549 143.429,177.993 142.858,180.345 140.340 C 183.958 136.472,188.357 134.003,193.998 132.677 C 195.660 132.287,201.287 132.268,203.211 132.646 M206.152 154.432 C 218.195 157.573,227.457 169.390,227.457 181.616 C 227.457 184.360,227.135 185.132,225.676 185.886 C 224.535 186.477,224.456 186.322,224.456 183.479 C 224.456 164.287,204.888 151.518,187.670 159.474 C 178.721 163.608,173.110 172.205,172.626 182.521 C 172.445 186.376,172.254 186.685,170.891 185.322 C 169.840 184.271,169.697 183.274,170.091 179.745 C 172.097 161.762,188.936 149.942,206.152 154.432 M106.977 157.916 C 107.472 158.170,108.755 158.693,109.827 159.079 L 111.778 159.780 139.938 159.872 C 166.375 159.958,168.084 159.995,167.887 160.477 C 167.771 160.759,167.542 161.463,167.378 162.041 C 167.214 162.618,166.942 163.260,166.774 163.466 C 166.382 163.946,115.646 164.016,113.094 163.539 C 109.542 162.876,105.613 160.104,103.553 156.805 C 102.265 154.744,102.375 154.654,104.351 156.150 C 105.300 156.868,106.482 157.663,106.977 157.916 M294.186 156.841 C 292.990 158.903,290.548 161.192,288.519 162.153 C 284.838 163.896,285.708 163.851,257.168 163.768 L 230.943 163.691 230.426 161.946 C 230.048 160.673,230.002 160.168,230.258 160.075 C 230.450 160.005,243.031 159.908,258.215 159.859 C 280.285 159.787,286.062 159.689,287.022 159.368 C 289.036 158.694,292.356 157.057,293.623 156.113 C 295.149 154.977,295.216 155.065,294.186 156.841 M203.616 161.717 C 211.251 163.749,217.036 169.184,219.382 176.531 C 220.093 178.754,220.682 185.982,220.200 186.563 C 219.799 187.046,176.896 187.135,176.598 186.653 C 176.086 185.825,177.059 177.958,177.966 175.581 C 181.972 165.090,193.295 158.971,203.616 161.717 M195.649 163.952 C 186.920 165.999,183.716 175.780,189.750 181.960 C 192.888 185.174,197.719 186.472,202.207 185.307 C 217.870 181.238,211.425 160.251,195.649 163.952 M202.515 167.037 C 204.851 167.792,208.252 171.179,208.252 172.752 C 208.252 173.528,204.139 173.270,203.714 172.468 C 201.932 169.105,196.446 169.073,194.258 172.413 C 193.834 173.059,193.561 173.143,191.881 173.143 C 189.701 173.143,189.557 173.030,190.097 171.747 C 191.830 167.623,197.579 165.443,202.515 167.037 M111.167 167.276 C 113.484 167.880,113.428 167.800,113.432 170.535 C 113.439 176.058,116.265 180.576,121.225 182.996 L 123.481 184.096 138.860 184.186 C 147.318 184.236,154.247 184.371,154.257 184.486 C 154.267 184.602,154.341 185.369,154.421 186.192 C 154.502 187.015,154.492 187.994,154.398 188.368 L 154.227 189.047 136.423 189.047 C 124.502 189.047,118.282 188.940,117.599 188.723 C 114.031 187.589,111.337 185.316,109.881 182.211 C 109.018 180.368,108.415 166.842,109.197 166.842 C 109.363 166.842,110.249 167.037,111.167 167.276 M288.936 172.168 C 289.009 178.006,288.364 182.146,287.381 182.146 C 287.246 182.146,287.223 182.286,287.330 182.459 C 287.730 183.105,284.520 186.546,282.706 187.415 C 282.109 187.701,281.350 188.084,281.020 188.266 C 280.433 188.590,244.901 188.942,244.093 188.632 C 243.751 188.500,244.059 185.249,244.450 184.857 C 244.539 184.769,250.237 184.674,257.114 184.646 C 271.023 184.591,274.443 184.433,275.678 183.788 C 276.141 183.547,276.662 183.349,276.838 183.348 C 277.013 183.347,277.428 183.092,277.761 182.782 C 278.094 182.473,278.668 182.123,279.038 182.006 C 280.110 181.665,281.742 180.068,282.387 178.729 C 282.714 178.050,283.098 177.292,283.241 177.044 C 284.162 175.451,284.490 174.032,284.732 170.599 L 284.921 167.905 285.958 167.822 C 286.528 167.777,287.129 167.605,287.293 167.441 C 288.598 166.136,288.870 166.920,288.936 172.168 M153.823 167.972 C 154.044 168.117,154.197 170.231,154.273 174.194 L 154.389 180.195 139.385 180.195 L 124.381 180.195 122.731 179.329 C 118.931 177.334,116.163 171.513,117.437 168.194 C 117.625 167.705,153.090 167.489,153.823 167.972 M280.520 169.392 C 280.804 173.681,278.871 177.249,275.154 179.295 L 273.518 180.195 258.665 180.195 L 243.811 180.195 243.729 174.215 C 243.667 169.632,243.737 168.179,244.029 167.992 C 244.239 167.858,252.513 167.781,262.416 167.820 L 280.420 167.892 280.520 169.392 M165.501 168.401 C 165.566 168.467,165.711 172.228,165.823 176.759 C 166.044 185.761,166.125 186.184,167.986 188.045 C 169.137 189.196,172.327 190.779,174.194 191.125 C 176.230 191.503,223.136 191.586,224.316 191.214 C 227.315 190.268,229.457 188.809,231.025 186.644 L 231.958 185.356 231.958 177.036 C 231.958 167.198,231.662 167.918,235.633 168.092 C 239.496 168.261,239.160 167.428,239.158 176.837 C 239.156 188.232,238.756 189.149,232.401 192.341 C 231.572 192.758,230.130 193.611,229.197 194.238 C 226.575 196.000,227.470 195.949,199.390 195.949 C 172.568 195.949,170.762 195.878,169.410 194.765 C 169.235 194.622,167.539 193.670,165.641 192.650 C 161.728 190.547,160.333 189.572,159.906 188.643 C 159.742 188.288,159.379 187.592,159.099 187.097 C 158.322 185.724,158.400 169.032,159.186 168.458 C 159.663 168.109,165.159 168.060,165.501 168.401 M200.773 173.420 C 201.828 174.475,201.847 174.687,200.975 175.678 C 199.549 177.298,196.549 176.615,196.549 174.670 C 196.549 172.668,199.228 171.875,200.773 173.420 M194.149 176.567 C 194.149 177.057,195.572 178.362,196.759 178.960 C 198.853 180.016,201.724 179.249,203.362 177.195 C 204.469 175.809,207.952 175.546,207.952 176.849 C 207.952 180.600,200.795 183.796,195.749 182.298 C 192.241 181.256,188.253 176.426,190.623 176.090 C 191.951 175.901,194.149 176.199,194.149 176.567 M110.769 189.684 C 114.962 192.956,114.902 192.948,135.664 192.948 C 155.815 192.948,154.539 192.834,154.539 194.643 C 154.539 196.100,155.398 198.075,156.530 199.216 C 157.241 199.934,157.583 203.706,157.061 205.068 C 156.793 205.764,121.347 205.795,118.295 205.102 C 111.811 203.630,108.921 199.755,108.680 192.210 C 108.529 187.489,108.304 187.761,110.769 189.684 M289.262 190.998 C 289.256 199.274,285.668 204.093,278.620 205.287 C 276.508 205.645,240.625 205.450,240.022 205.078 C 239.878 204.989,239.760 204.018,239.760 202.920 L 239.760 200.925 241.268 199.487 C 242.964 197.869,243.382 197.060,243.635 194.899 L 243.811 193.398 248.762 193.215 C 251.485 193.114,259.664 193.013,266.937 192.990 C 282.705 192.940,283.447 192.806,287.622 189.234 C 289.084 187.982,289.264 188.175,289.262 190.998 M160.098 194.254 C 160.424 194.477,161.770 195.241,163.091 195.952 C 164.411 196.664,166.179 197.619,167.020 198.076 C 170.460 199.944,169.072 199.873,200.327 199.782 L 228.807 199.700 230.592 198.864 C 231.573 198.405,233.209 197.502,234.227 196.860 C 235.245 196.217,236.603 195.452,237.244 195.161 C 237.885 194.869,238.511 194.578,238.635 194.514 C 238.758 194.451,238.860 194.659,238.860 194.977 C 238.860 195.791,238.000 196.489,235.010 198.105 C 233.579 198.878,231.733 199.876,230.908 200.322 C 230.083 200.769,228.945 201.487,228.380 201.918 L 227.354 202.701 199.273 202.701 L 171.193 202.701 168.942 201.577 C 163.853 199.035,159.721 196.597,159.042 195.734 C 157.879 194.255,158.607 193.233,160.098 194.254 M167.398 205.310 C 168.612 205.938,169.841 206.452,170.129 206.452 C 170.417 206.452,171.078 206.600,171.598 206.781 L 172.543 207.110 172.543 220.284 C 172.543 227.530,172.463 233.458,172.365 233.458 C 172.065 233.458,170.717 232.319,168.201 229.937 C 166.876 228.682,164.779 226.700,163.541 225.531 L 161.290 223.406 161.140 212.976 C 161.058 207.240,161.036 202.410,161.092 202.244 C 161.147 202.078,162.093 202.444,163.192 203.056 C 164.292 203.668,166.184 204.682,167.398 205.310 M235.551 213.081 L 235.529 223.011 234.419 224.149 C 230.993 227.662,224.744 233.177,224.605 232.812 C 224.519 232.590,224.485 226.737,224.528 219.805 L 224.606 207.202 226.140 207.015 C 228.284 206.753,230.237 206.024,232.858 204.509 C 234.096 203.793,235.213 203.195,235.341 203.179 C 235.468 203.164,235.563 207.619,235.551 213.081 M112.189 206.752 C 113.889 207.732,115.053 210.353,113.788 210.353 C 113.335 210.353,111.160 207.991,110.452 206.731 C 109.653 205.309,109.689 205.310,112.189 206.752 M200.678 207.049 L 220.561 207.052 220.483 221.680 L 220.405 236.309 198.950 236.309 L 177.494 236.309 177.416 221.905 C 177.326 205.318,177.171 206.611,179.226 206.858 C 180.089 206.962,189.742 207.048,200.678 207.049 M288.524 213.735 C 287.427 217.089,284.795 219.764,281.155 221.223 C 279.384 221.933,263.036 222.192,246.512 221.773 L 239.910 221.605 239.823 219.130 L 239.736 216.654 244.024 216.619 C 270.916 216.397,281.054 216.128,282.521 215.598 C 284.177 215.000,287.673 212.859,288.361 212.022 C 289.031 211.206,289.103 211.964,288.524 213.735 M110.599 212.859 C 111.247 213.412,112.858 214.391,114.179 215.034 L 116.579 216.204 136.834 216.354 L 157.089 216.504 157.178 218.876 C 157.227 220.205,157.132 221.382,156.962 221.552 C 156.407 222.108,121.074 222.152,118.404 221.601 C 114.422 220.778,111.439 218.511,109.811 215.070 C 108.341 211.962,108.622 211.173,110.599 212.859 " stroke="none" fill="#2d5686" fill-rule="evenodd"></path><path id="path1" d="M132.633 72.537 C 131.890 72.602,131.155 72.783,130.998 72.937 C 130.841 73.092,130.368 73.218,129.947 73.218 C 129.527 73.218,127.629 73.995,125.731 74.944 L 122.281 76.669 122.203 94.359 C 122.128 111.532,122.144 112.101,122.742 113.830 C 123.881 117.120,126.332 119.846,129.593 121.450 L 131.283 122.281 198.806 122.281 L 266.329 122.281 268.298 121.311 C 271.291 119.838,273.529 117.417,274.656 114.432 C 275.309 112.705,275.320 112.404,275.403 94.867 L 275.487 77.056 274.803 76.457 C 273.911 75.678,271.384 74.411,268.567 73.331 L 266.317 72.468 200.150 72.443 C 163.758 72.429,133.376 72.471,132.633 72.537 M279.970 93.462 C 279.970 112.651,279.921 113.369,278.384 116.729 C 276.792 120.208,274.005 123.445,272.002 124.141 C 271.433 124.338,270.316 124.827,269.520 125.227 C 268.701 125.638,266.975 126.109,265.544 126.312 C 261.895 126.829,132.849 126.619,130.703 126.092 C 125.206 124.743,120.600 120.336,118.641 114.551 C 118.167 113.151,118.090 111.246,117.944 97.224 L 117.779 81.470 116.495 83.196 C 115.788 84.144,114.736 85.729,114.157 86.717 L 113.104 88.514 113.198 111.999 L 113.291 135.484 114.006 137.413 C 114.565 138.923,115.183 139.821,116.850 141.545 C 120.652 145.478,121.001 145.519,150.405 145.529 L 171.327 145.536 171.788 144.645 C 172.042 144.155,172.490 143.513,172.785 143.220 C 173.079 142.926,174.121 141.624,175.099 140.327 C 185.092 127.077,203.508 124.475,216.804 134.437 C 219.350 136.344,220.293 137.306,222.681 140.435 C 224.202 142.428,224.883 143.311,225.918 144.636 L 226.504 145.386 249.261 145.470 C 273.407 145.559,274.901 145.490,277.583 144.163 C 280.460 142.739,283.871 138.584,283.871 136.504 C 283.871 136.210,284.006 135.886,284.171 135.784 C 284.600 135.519,284.573 90.243,284.142 85.958 C 283.799 82.547,283.328 80.966,281.696 77.741 C 279.924 74.239,279.970 73.822,279.970 93.462 M193.398 161.733 C 186.298 163.515,180.632 168.600,177.966 175.581 C 177.059 177.958,176.086 185.825,176.598 186.653 C 176.896 187.135,219.799 187.046,220.200 186.563 C 220.682 185.982,220.093 178.754,219.382 176.531 C 215.874 165.548,204.349 158.985,193.398 161.733 M204.779 164.870 C 216.216 170.522,211.712 185.746,198.602 185.746 C 196.786 185.746,195.510 185.402,192.523 184.106 C 187.723 182.023,185.248 174.947,187.626 170.105 C 190.470 164.314,198.619 161.827,204.779 164.870 M159.186 168.458 C 158.400 169.032,158.322 185.724,159.099 187.097 C 159.379 187.592,159.742 188.288,159.906 188.643 C 160.333 189.572,161.728 190.547,165.641 192.650 C 167.539 193.670,169.235 194.622,169.410 194.765 C 170.762 195.878,172.568 195.949,199.390 195.949 C 227.470 195.949,226.575 196.000,229.197 194.238 C 230.130 193.611,231.572 192.758,232.401 192.341 C 238.756 189.149,239.156 188.232,239.158 176.837 C 239.160 167.428,239.496 168.261,235.633 168.092 C 231.662 167.918,231.958 167.198,231.958 177.036 L 231.958 185.356 231.025 186.644 C 229.457 188.809,227.315 190.268,224.316 191.214 C 223.136 191.586,176.230 191.503,174.194 191.125 C 172.327 190.779,169.137 189.196,167.986 188.045 C 166.125 186.184,166.044 185.761,165.823 176.759 C 165.711 172.228,165.566 168.467,165.501 168.401 C 165.159 168.060,159.663 168.109,159.186 168.458 M158.440 194.408 C 158.440 195.815,161.264 197.742,168.942 201.577 L 171.193 202.701 199.273 202.701 L 227.354 202.701 228.380 201.918 C 228.945 201.487,230.083 200.769,230.908 200.322 C 231.733 199.876,233.579 198.878,235.010 198.105 C 238.000 196.489,238.860 195.791,238.860 194.977 C 238.860 194.659,238.758 194.451,238.635 194.514 C 238.511 194.578,237.885 194.869,237.244 195.161 C 236.603 195.452,235.245 196.217,234.227 196.860 C 233.209 197.502,231.573 198.405,230.592 198.864 L 228.807 199.700 200.327 199.782 C 169.072 199.873,170.460 199.944,167.020 198.076 C 166.179 197.619,164.411 196.664,163.091 195.952 C 161.770 195.241,160.424 194.477,160.098 194.254 C 159.244 193.669,158.440 193.744,158.440 194.408 " stroke="none" fill="#557fcc" fill-rule="evenodd"></path><path id="path2" d="M0.000 150.038 L 0.000 300.075 200.000 300.075 L 400.000 300.075 400.000 150.038 L 400.000 0.000 200.000 0.000 L 0.000 0.000 0.000 150.038 M265.990 60.572 C 266.077 60.714,266.812 60.908,267.622 61.004 C 268.433 61.100,269.686 61.446,270.407 61.773 C 271.128 62.100,272.056 62.463,272.468 62.581 C 272.881 62.698,273.577 63.047,274.015 63.355 C 274.453 63.664,274.950 63.916,275.119 63.916 C 275.288 63.916,275.607 64.097,275.829 64.319 C 276.051 64.541,276.770 65.065,277.426 65.485 C 278.083 65.904,279.227 66.799,279.970 67.475 C 280.713 68.150,281.483 68.841,281.683 69.010 C 281.882 69.179,282.516 69.317,283.090 69.317 C 283.665 69.317,284.219 69.452,284.321 69.617 C 284.423 69.782,284.764 69.917,285.079 69.917 C 286.133 69.917,290.199 71.828,291.307 72.843 C 291.532 73.050,291.825 73.218,291.958 73.218 C 292.950 73.218,297.209 78.453,298.429 81.170 C 300.846 86.557,300.697 83.841,300.586 120.330 C 300.518 142.855,300.387 153.064,300.150 154.167 C 299.544 156.985,297.612 160.269,294.853 163.173 L 293.635 164.455 293.520 173.600 C 293.456 178.629,293.495 183.470,293.606 184.357 L 293.807 185.970 295.139 186.152 C 297.994 186.543,301.344 188.900,302.441 191.289 C 303.876 194.411,303.826 193.690,303.826 211.163 C 303.826 224.014,303.742 227.811,303.451 228.102 C 303.245 228.308,303.076 228.780,303.076 229.150 C 303.076 229.519,302.956 229.896,302.810 229.986 C 302.663 230.077,302.455 230.625,302.346 231.204 C 302.237 231.784,302.019 232.258,301.862 232.258 C 301.704 232.258,301.575 232.405,301.575 232.583 C 301.575 233.946,296.438 238.569,294.374 239.063 C 293.961 239.162,293.488 239.347,293.323 239.474 C 291.764 240.680,293.034 240.660,215.110 240.658 C 132.449 240.655,135.784 240.734,130.937 238.664 C 130.417 238.441,129.871 238.260,129.723 238.260 C 129.249 238.260,123.759 234.763,122.830 233.870 C 122.337 233.396,120.886 232.063,119.606 230.908 C 118.326 229.752,116.311 227.895,115.129 226.780 C 113.946 225.666,111.958 223.914,110.712 222.887 C 108.621 221.165,106.827 219.128,106.827 218.476 C 106.827 218.327,106.725 218.160,106.602 218.105 C 106.478 218.050,106.125 217.464,105.818 216.804 C 105.511 216.144,105.106 215.334,104.918 215.004 C 104.672 214.571,104.552 207.420,104.490 189.439 L 104.403 164.474 102.661 162.732 C 99.928 160.000,98.877 158.116,97.498 153.467 C 97.112 152.167,97.137 87.503,97.524 86.218 C 97.689 85.670,97.972 84.715,98.153 84.096 C 98.553 82.727,100.233 79.220,100.750 78.673 C 100.956 78.455,101.125 78.169,101.125 78.038 C 101.125 77.555,106.006 72.918,106.514 72.918 C 106.686 72.918,106.827 72.800,106.827 72.656 C 106.827 72.245,111.016 70.226,112.294 70.022 C 112.925 69.921,113.514 69.721,113.603 69.578 C 113.691 69.435,114.264 69.317,114.876 69.317 C 115.832 69.317,116.281 69.043,118.068 67.367 C 119.212 66.294,120.262 65.416,120.401 65.416 C 120.541 65.416,120.919 65.170,121.242 64.870 C 121.848 64.305,123.290 63.543,125.881 62.418 C 126.707 62.060,127.614 61.644,127.897 61.495 C 128.180 61.345,129.163 61.135,130.081 61.027 C 130.999 60.919,131.821 60.715,131.909 60.573 C 132.117 60.236,265.782 60.235,265.990 60.572 M133.233 65.104 C 130.276 65.474,126.202 67.137,123.406 69.116 L 122.131 70.019 122.131 73.144 L 122.131 76.268 123.106 75.673 C 125.541 74.187,126.382 73.818,129.960 72.662 C 132.632 71.799,137.256 71.736,199.192 71.727 C 263.731 71.718,265.298 71.742,268.567 72.807 C 270.529 73.446,274.569 75.371,274.569 75.666 C 274.569 75.805,274.737 75.919,274.944 75.919 C 275.224 75.919,275.296 75.182,275.230 72.993 C 275.115 69.192,273.923 68.059,267.517 65.661 L 265.716 64.987 200.300 64.943 C 164.321 64.918,134.141 64.991,133.233 65.104 M117.033 75.858 C 116.096 77.253,115.326 78.873,114.366 81.470 C 114.018 82.411,113.382 86.475,113.556 86.649 C 113.611 86.704,114.019 86.129,114.463 85.371 C 114.907 84.613,115.873 83.253,116.610 82.348 L 117.950 80.703 117.865 77.725 L 117.779 74.747 117.033 75.858 M109.827 76.217 C 106.195 78.625,103.446 82.402,102.291 86.572 C 101.684 88.764,101.674 144.264,102.281 145.836 C 104.024 150.356,108.512 154.839,111.294 154.839 C 111.623 154.839,111.976 154.974,112.078 155.139 C 112.430 155.708,170.341 155.536,170.561 154.964 C 170.661 154.703,170.743 153.493,170.743 152.275 L 170.743 150.061 146.032 149.974 C 129.506 149.916,121.183 149.784,120.901 149.575 C 120.670 149.403,119.940 149.084,119.280 148.866 C 116.040 147.798,112.525 144.722,110.920 141.552 C 108.789 137.344,108.927 139.482,108.927 110.658 C 108.927 83.752,108.972 82.608,110.128 79.670 C 110.258 79.340,110.592 78.430,110.870 77.648 C 111.148 76.865,111.499 76.148,111.652 76.054 C 112.055 75.805,111.989 75.319,111.553 75.320 C 111.347 75.321,110.570 75.724,109.827 76.217 M286.900 77.477 C 287.817 79.688,288.199 81.085,288.660 83.915 C 289.059 86.362,289.104 86.430,292.498 89.733 L 295.724 92.873 295.814 90.323 C 295.945 86.644,294.800 83.304,292.326 80.143 C 291.162 78.657,288.374 76.219,287.838 76.219 C 287.664 76.219,287.477 76.102,287.422 75.959 C 287.367 75.815,287.022 75.605,286.657 75.491 C 286.003 75.288,286.008 75.324,286.900 77.477 M195.349 132.923 C 195.101 133.089,194.484 133.226,193.977 133.229 C 191.070 133.243,184.888 136.420,181.545 139.617 C 179.842 141.247,177.644 143.893,177.644 144.315 C 177.644 144.492,177.541 144.636,177.414 144.636 C 176.290 144.636,175.243 148.235,175.222 152.176 C 175.203 155.562,175.112 156.330,174.635 157.089 C 173.925 158.221,171.643 162.806,171.643 163.102 C 171.643 163.223,171.937 162.932,172.296 162.456 C 174.032 160.155,180.887 153.938,181.689 153.938 C 181.781 153.938,182.361 153.629,182.977 153.250 C 184.367 152.395,187.833 150.936,188.472 150.937 C 188.733 150.937,189.044 150.841,189.162 150.723 C 190.764 149.121,204.662 149.047,208.402 150.622 C 208.732 150.761,209.677 151.112,210.503 151.404 C 211.328 151.695,212.988 152.446,214.193 153.073 C 216.898 154.481,216.708 154.989,216.595 146.645 C 216.492 138.983,216.765 139.828,213.653 137.551 C 211.982 136.328,208.374 134.465,206.452 133.831 C 203.654 132.910,196.272 132.306,195.349 132.923 M227.082 150.244 C 226.436 150.413,226.336 153.343,226.932 154.627 L 227.307 155.434 243.339 155.437 L 259.371 155.439 261.569 153.242 C 265.076 149.734,266.570 150.032,245.686 150.072 C 235.743 150.091,227.371 150.169,227.082 150.244 M196.849 167.031 C 194.790 167.430,192.469 168.967,191.127 170.819 C 189.830 172.610,189.936 172.843,192.048 172.843 C 193.241 172.843,193.848 172.723,193.848 172.486 C 193.848 171.733,196.240 169.893,197.592 169.605 C 200.206 169.047,204.051 170.744,204.051 172.454 C 204.051 172.733,204.605 172.843,206.009 172.843 L 207.967 172.843 207.493 171.925 C 205.651 168.365,201.001 166.227,196.849 167.031 M197.350 173.763 C 196.754 174.613,197.051 175.478,198.129 176.035 C 199.761 176.879,201.559 175.315,200.615 173.873 C 199.976 172.899,198.001 172.832,197.350 173.763 M190.248 176.606 C 190.248 179.145,195.160 182.437,198.950 182.437 C 202.854 182.437,207.652 179.205,207.652 176.575 C 207.652 175.788,204.351 176.558,203.715 177.494 C 202.347 179.505,198.703 180.392,196.459 179.261 C 195.244 178.648,193.848 177.353,193.848 176.838 C 193.848 176.557,193.334 176.444,192.048 176.444 C 191.058 176.444,190.248 176.517,190.248 176.606 M109.284 192.961 C 109.386 196.435,109.500 197.200,110.104 198.437 C 110.727 199.714,113.390 202.851,113.851 202.851 C 113.949 202.851,114.029 200.430,114.029 197.470 L 114.029 192.090 112.677 191.415 C 111.934 191.044,111.088 190.528,110.798 190.269 C 109.052 188.710,109.154 188.529,109.284 192.961 M109.527 213.179 C 109.527 214.400,111.583 217.571,113.100 218.689 L 114.029 219.373 114.029 217.419 L 114.029 215.466 112.772 214.825 C 112.081 214.472,111.328 213.996,111.098 213.767 C 110.310 212.978,109.527 212.685,109.527 213.179 " stroke="none" fill="#ffffff" fill-rule="evenodd"></path><path id="path3" d="M120.930 170.217 C 121.087 172.807,121.606 174.067,123.087 175.454 C 124.498 176.776,124.916 176.812,139.985 176.904 L 154.389 176.992 154.290 172.596 C 154.225 169.658,154.075 168.124,153.840 167.975 C 153.647 167.852,146.129 167.749,137.134 167.746 L 120.780 167.741 120.930 170.217 M244.036 167.941 C 243.760 168.052,243.661 169.254,243.661 172.500 L 243.661 176.908 257.689 176.850 C 272.841 176.787,273.044 176.767,274.856 175.152 C 276.114 174.032,276.741 172.459,276.945 169.917 L 277.119 167.742 260.765 167.766 C 251.770 167.779,244.242 167.857,244.036 167.941 M180.345 220.180 L 180.495 233.308 198.950 233.308 L 217.404 233.308 217.554 220.180 L 217.704 207.052 198.950 207.052 L 180.195 207.052 180.345 220.180 M197.374 236.376 C 197.911 236.443,198.788 236.443,199.325 236.376 C 199.861 236.310,199.422 236.255,198.350 236.255 C 197.277 236.255,196.838 236.310,197.374 236.376 " stroke="none" fill="#5cbafb" fill-rule="evenodd"></path><path id="path4" d="M132.991 60.570 C 132.610 60.677,162.371 60.765,199.126 60.765 C 235.882 60.765,265.428 60.672,264.785 60.557 C 263.304 60.294,133.926 60.307,132.991 60.570 M129.782 61.215 L 129.182 61.473 129.782 61.459 C 130.113 61.451,130.788 61.341,131.283 61.215 L 132.183 60.986 131.283 60.972 C 130.788 60.964,130.113 61.073,129.782 61.215 M266.767 61.215 C 267.923 61.586,268.540 61.586,267.967 61.215 C 267.719 61.055,267.179 60.936,266.767 60.950 L 266.017 60.975 266.767 61.215 M126.981 62.113 C 123.738 63.280,119.244 66.187,117.052 68.537 C 116.652 68.966,116.044 69.327,115.702 69.338 C 115.359 69.350,114.809 69.482,114.479 69.631 C 114.064 69.819,114.249 69.845,115.079 69.714 C 115.960 69.575,116.798 69.069,118.230 67.813 C 121.023 65.361,126.520 62.129,127.928 62.111 C 128.123 62.108,128.485 61.975,128.732 61.815 C 129.432 61.363,128.736 61.482,126.981 62.113 M268.567 61.599 C 268.650 61.684,269.246 61.897,269.892 62.074 C 270.538 62.250,270.943 62.278,270.792 62.137 C 270.503 61.865,268.309 61.335,268.567 61.599 M272.918 63.316 C 273.020 63.481,273.237 63.616,273.400 63.616 C 273.564 63.616,274.400 64.062,275.258 64.608 C 277.485 66.024,277.845 66.188,276.819 65.322 C 275.359 64.089,272.481 62.609,272.918 63.316 M132.483 64.816 L 131.583 65.045 132.483 65.045 C 132.978 65.045,133.788 64.942,134.284 64.816 L 135.184 64.587 134.284 64.587 C 133.788 64.587,132.978 64.690,132.483 64.816 M263.616 64.816 C 264.111 64.942,264.921 65.045,265.416 65.045 L 266.317 65.045 265.416 64.816 C 264.921 64.690,264.111 64.587,263.616 64.587 L 262.716 64.587 263.616 64.816 M129.632 65.482 C 129.055 65.654,128.724 65.846,128.897 65.910 C 129.071 65.974,129.746 65.831,130.398 65.593 C 131.756 65.095,131.204 65.016,129.632 65.482 M267.817 65.716 C 268.714 66.102,269.464 66.102,268.867 65.716 C 268.620 65.556,268.147 65.433,267.817 65.442 L 267.217 65.459 267.817 65.716 M269.564 66.213 C 269.842 66.492,272.168 67.514,272.168 67.358 C 272.168 67.202,269.880 66.017,269.579 66.017 C 269.463 66.017,269.456 66.105,269.564 66.213 M277.869 66.239 C 277.869 66.419,277.998 66.612,278.155 66.667 C 278.312 66.722,279.089 67.387,279.881 68.144 C 281.014 69.229,281.607 69.561,282.671 69.706 C 283.566 69.829,283.819 69.801,283.421 69.625 C 283.091 69.479,282.551 69.349,282.221 69.336 C 281.890 69.323,281.142 68.874,280.557 68.339 C 278.200 66.183,277.869 65.925,277.869 66.239 M124.948 67.665 C 123.940 68.237,122.930 68.927,122.705 69.198 C 122.353 69.623,122.970 69.268,126.520 67.009 C 127.712 66.251,126.694 66.675,124.948 67.665 M272.468 67.599 C 272.468 67.663,273.110 68.168,273.893 68.722 C 274.677 69.276,275.092 69.468,274.814 69.148 C 274.328 68.589,272.468 67.361,272.468 67.599 M112.071 70.230 C 111.944 70.434,112.170 70.471,112.728 70.337 C 113.878 70.061,113.987 69.917,113.046 69.917 C 112.616 69.917,112.177 70.058,112.071 70.230 M121.944 73.218 C 121.944 75.116,121.993 75.893,122.052 74.944 C 122.112 73.995,122.112 72.442,122.052 71.493 C 121.993 70.544,121.944 71.320,121.944 73.218 M284.196 70.025 C 284.265 70.085,284.726 70.224,285.221 70.334 C 285.879 70.482,286.000 70.454,285.671 70.231 C 285.266 69.957,283.895 69.766,284.196 70.025 M109.527 71.268 C 107.772 72.208,108.112 72.217,110.164 71.285 C 111.052 70.882,111.575 70.551,111.328 70.548 C 111.080 70.546,110.270 70.870,109.527 71.268 M286.272 70.618 C 286.272 70.696,286.707 70.911,287.240 71.097 C 287.773 71.282,288.076 71.311,287.915 71.160 C 287.573 70.840,286.272 70.411,286.272 70.618 M289.589 72.259 C 291.577 73.513,291.673 73.566,291.673 73.414 C 291.673 73.195,288.904 71.418,288.562 71.418 C 288.393 71.418,288.855 71.796,289.589 72.259 M107.098 72.565 C 105.966 73.296,103.342 75.619,103.648 75.619 C 103.792 75.619,104.498 75.076,105.218 74.412 C 105.938 73.748,106.865 73.051,107.277 72.863 C 107.690 72.676,108.027 72.408,108.027 72.270 C 108.027 71.959,108.045 71.953,107.098 72.565 M291.973 73.622 C 291.973 73.707,292.794 74.559,293.797 75.516 C 294.801 76.473,296.103 78.036,296.691 78.988 C 297.279 79.941,297.808 80.720,297.867 80.720 C 298.560 80.720,294.856 75.751,293.165 74.412 C 292.509 73.893,291.973 73.537,291.973 73.622 M116.537 75.773 C 115.932 76.684,115.523 77.513,115.626 77.617 C 115.730 77.721,115.909 77.550,116.025 77.237 C 116.140 76.925,116.529 76.264,116.888 75.769 C 117.740 74.594,118.003 74.119,117.800 74.119 C 117.710 74.119,117.141 74.863,116.537 75.773 M110.144 75.563 C 107.902 76.919,104.895 79.815,104.088 81.395 C 103.308 82.923,103.593 82.821,104.519 81.241 C 106.203 78.367,112.720 73.431,112.040 75.544 C 111.898 75.987,111.922 75.999,112.195 75.619 C 113.241 74.165,112.489 74.145,110.144 75.563 M285.258 74.659 C 285.166 74.808,285.300 75.187,285.555 75.500 C 285.962 75.998,286.000 76.003,285.855 75.544 C 285.441 74.227,289.191 76.560,291.644 79.145 C 292.701 80.259,293.276 80.746,292.922 80.228 C 291.574 78.253,288.486 75.821,285.624 74.480 C 285.515 74.429,285.351 74.509,285.258 74.659 M118.036 77.269 C 118.035 78.755,118.086 79.400,118.149 78.704 C 118.212 78.007,118.212 76.792,118.150 76.003 C 118.088 75.214,118.037 75.784,118.036 77.269 M101.611 77.803 C 100.200 79.781,98.927 82.154,98.597 83.421 C 98.489 83.833,98.876 83.181,99.456 81.970 C 100.509 79.774,102.354 76.996,103.219 76.304 C 103.511 76.070,103.546 75.935,103.316 75.929 C 103.118 75.923,102.351 76.767,101.611 77.803 M286.144 76.669 C 286.781 78.504,287.086 79.233,287.303 79.439 C 287.674 79.791,287.168 78.302,286.516 77.119 C 286.197 76.542,286.030 76.339,286.144 76.669 M110.346 79.433 C 109.785 81.189,109.326 83.585,109.840 82.071 C 110.851 79.093,111.083 78.275,110.951 78.143 C 110.871 78.062,110.598 78.643,110.346 79.433 M114.832 78.988 C 114.045 80.871,114.006 81.499,114.777 79.848 C 115.195 78.956,115.475 78.165,115.400 78.091 C 115.325 78.016,115.070 78.420,114.832 78.988 M287.514 80.270 C 287.514 80.600,287.630 81.140,287.772 81.470 L 288.030 82.071 288.030 81.470 C 288.030 81.140,287.914 80.600,287.772 80.270 L 287.514 79.670 287.514 80.270 M294.155 82.642 C 294.516 83.380,294.859 83.935,294.918 83.877 C 295.065 83.730,294.060 81.648,293.750 81.456 C 293.612 81.371,293.795 81.905,294.155 82.642 M113.621 82.584 C 113.519 82.962,113.448 83.541,113.463 83.871 C 113.477 84.201,113.612 83.944,113.763 83.301 C 114.056 82.054,113.931 81.426,113.621 82.584 M298.747 82.821 C 298.857 83.233,299.072 83.773,299.225 84.021 C 299.419 84.334,299.442 84.242,299.303 83.721 C 299.192 83.308,298.977 82.768,298.824 82.521 C 298.631 82.208,298.607 82.299,298.747 82.821 M288.306 84.055 C 288.618 86.391,288.573 135.856,288.257 137.284 C 288.112 137.944,288.095 138.389,288.220 138.271 C 289.284 137.277,289.320 83.668,288.258 82.606 C 288.166 82.514,288.188 83.166,288.306 84.055 M102.815 83.822 C 102.269 85.130,101.908 86.311,102.113 86.122 C 102.362 85.891,103.536 82.821,103.375 82.821 C 103.298 82.821,103.046 83.271,102.815 83.822 M109.116 84.396 C 108.866 85.331,108.921 135.962,109.173 136.598 C 109.286 136.880,109.377 125.099,109.377 110.416 C 109.377 95.734,109.359 83.721,109.337 83.721 C 109.315 83.721,109.216 84.025,109.116 84.396 M294.974 84.415 C 294.974 84.522,295.210 85.186,295.499 85.890 C 295.986 87.080,296.024 89.225,296.024 115.829 C 296.024 142.374,295.985 144.592,295.499 145.922 C 294.903 147.550,294.872 147.735,295.226 147.516 C 296.573 146.684,297.150 88.946,295.843 85.752 C 295.401 84.671,294.974 84.014,294.974 84.415 M98.031 85.033 C 97.944 85.259,97.796 86.103,97.701 86.908 C 97.509 88.551,97.903 87.645,98.207 85.746 C 98.390 84.599,98.315 84.293,98.031 85.033 M299.526 85.071 C 299.531 85.401,299.643 86.009,299.775 86.422 L 300.015 87.172 300.024 86.422 C 300.029 86.009,299.917 85.401,299.775 85.071 L 299.517 84.471 299.526 85.071 M101.613 87.659 C 101.347 88.989,101.388 144.713,101.655 145.133 C 101.776 145.323,101.875 132.259,101.875 116.100 C 101.875 99.942,101.859 86.722,101.838 86.722 C 101.817 86.722,101.716 87.144,101.613 87.659 M300.225 120.004 C 300.225 137.697,300.313 151.861,300.420 151.480 C 300.684 150.545,300.696 90.483,300.433 89.003 C 300.319 88.360,300.225 102.310,300.225 120.004 M97.368 123.181 C 97.368 138.200,97.405 144.300,97.449 136.737 C 97.494 129.173,97.494 116.885,97.449 109.430 C 97.405 101.974,97.368 108.162,97.368 123.181 M196.774 132.555 C 197.806 132.614,199.494 132.614,200.525 132.555 C 201.557 132.497,200.713 132.449,198.650 132.449 C 196.587 132.449,195.743 132.497,196.774 132.555 M192.870 132.921 C 192.249 133.041,191.659 133.223,191.557 133.324 C 191.327 133.554,193.490 133.226,194.299 132.907 C 195.033 132.618,194.400 132.624,192.870 132.921 M203.151 132.897 C 204.401 133.301,206.351 133.575,205.851 133.277 C 205.604 133.129,204.726 132.928,203.901 132.831 C 202.959 132.721,202.680 132.745,203.151 132.897 M189.947 133.833 C 189.547 134.092,189.547 134.124,189.947 134.124 C 190.195 134.124,190.600 133.993,190.848 133.833 C 191.248 133.575,191.248 133.543,190.848 133.543 C 190.600 133.543,190.195 133.673,189.947 133.833 M206.902 133.833 C 207.004 133.998,207.261 134.134,207.473 134.134 C 207.686 134.134,208.294 134.350,208.825 134.615 C 209.356 134.880,209.868 135.018,209.964 134.922 C 210.060 134.826,209.883 134.663,209.570 134.559 C 209.258 134.455,208.577 134.181,208.057 133.951 C 206.936 133.456,206.650 133.427,206.902 133.833 M186.025 135.756 C 184.782 136.484,183.572 137.328,183.336 137.632 C 182.923 138.163,182.930 138.164,183.524 137.660 C 183.864 137.371,185.209 136.527,186.513 135.784 C 187.816 135.041,188.748 134.434,188.584 134.434 C 188.419 134.434,187.268 135.029,186.025 135.756 M211.853 136.053 C 211.853 136.118,212.494 136.584,213.278 137.087 C 215.424 138.465,218.304 141.527,220.099 144.336 C 222.330 147.827,222.356 147.919,222.356 152.347 L 222.356 156.365 223.556 157.989 C 224.216 158.883,224.756 159.755,224.756 159.927 C 224.756 160.099,224.865 160.240,224.997 160.240 C 225.304 160.240,226.348 163.117,226.201 163.558 C 226.140 163.741,225.584 163.156,224.966 162.258 C 223.776 160.530,220.066 156.811,218.587 155.862 C 218.102 155.551,217.526 155.126,217.308 154.918 C 216.938 154.564,216.354 154.400,216.354 154.649 C 216.354 154.709,216.928 155.136,217.629 155.598 C 219.542 156.855,223.093 160.394,225.070 163.013 C 226.035 164.291,226.894 165.224,226.978 165.088 C 227.427 164.362,225.068 158.973,223.558 157.274 L 222.656 156.258 222.656 152.108 C 222.656 147.463,222.559 147.166,219.790 143.286 C 217.517 140.100,211.853 134.939,211.853 136.053 M109.692 138.485 C 109.809 138.980,110.020 139.511,110.161 139.665 C 110.302 139.819,110.289 139.496,110.132 138.949 C 109.766 137.673,109.411 137.299,109.692 138.485 M180.775 139.910 C 179.149 141.602,177.154 143.934,178.273 142.836 C 179.525 141.608,182.828 138.035,182.711 138.035 C 182.638 138.035,181.767 138.878,180.775 139.910 M287.356 139.939 C 286.594 141.932,284.511 144.636,282.564 146.156 C 280.435 147.819,280.590 148.084,282.756 146.484 C 284.990 144.834,288.359 139.946,288.002 138.873 C 287.940 138.689,287.650 139.169,287.356 139.939 M110.429 140.301 C 110.424 141.323,113.590 145.285,115.379 146.496 C 115.874 146.831,115.504 146.405,114.557 145.549 C 113.610 144.693,112.294 143.091,111.633 141.989 C 110.972 140.887,110.430 140.127,110.429 140.301 M177.109 144.111 C 176.926 144.482,176.486 145.225,176.131 145.761 C 175.776 146.298,175.548 146.737,175.625 146.737 C 175.701 146.737,176.153 146.165,176.629 145.467 C 177.934 143.552,177.996 143.436,177.707 143.436 C 177.561 143.436,177.291 143.740,177.109 144.111 M102.189 146.812 C 102.301 147.183,102.517 147.619,102.668 147.780 C 102.819 147.941,102.790 147.638,102.604 147.105 C 102.224 146.015,101.873 145.767,102.189 146.812 M117.029 147.610 C 117.698 148.140,118.830 148.630,118.830 148.389 C 118.830 148.339,118.256 148.009,117.554 147.656 C 116.379 147.064,116.338 147.061,117.029 147.610 M175.131 147.498 C 175.028 147.767,174.970 149.764,175.003 151.938 L 175.061 155.889 175.228 151.538 C 175.408 146.819,175.407 146.779,175.131 147.498 M279.567 148.086 C 276.682 149.590,277.301 149.554,251.013 149.742 L 226.407 149.917 251.313 149.895 L 276.219 149.873 277.869 149.180 C 278.777 148.799,279.756 148.415,280.045 148.327 C 280.334 148.239,280.570 148.048,280.570 147.902 C 280.570 147.561,280.573 147.561,279.567 148.086 M294.040 149.046 C 292.414 151.687,290.061 153.576,287.022 154.678 L 285.021 155.404 256.228 155.464 C 228.290 155.523,227.423 155.508,227.006 154.957 C 226.769 154.644,226.571 154.536,226.566 154.717 C 226.527 156.064,225.876 156.035,255.520 156.030 C 288.194 156.024,287.234 156.117,291.549 152.522 C 292.880 151.412,295.175 148.339,294.888 148.051 C 294.808 147.971,294.426 148.419,294.040 149.046 M119.600 148.804 C 119.919 149.095,121.777 149.584,121.496 149.302 C 121.394 149.201,120.864 148.990,120.316 148.833 C 119.768 148.676,119.446 148.663,119.600 148.804 M103.526 149.641 C 103.526 150.737,109.129 154.841,111.178 155.245 C 112.033 155.414,112.041 155.407,111.328 155.108 C 108.679 153.997,107.051 152.964,105.403 151.348 C 104.370 150.336,103.526 149.568,103.526 149.641 M121.930 149.621 C 122.233 149.944,171.043 150.284,171.043 149.962 C 171.043 149.839,161.084 149.737,148.912 149.736 C 136.740 149.735,125.634 149.648,124.231 149.544 C 122.746 149.433,121.785 149.465,121.930 149.621 M193.605 149.692 C 193.223 149.800,195.492 149.887,198.647 149.887 C 201.802 149.887,204.072 149.800,203.692 149.692 C 203.312 149.585,201.043 149.497,198.650 149.497 C 196.257 149.497,193.986 149.585,193.605 149.692 M189.392 150.675 C 188.344 151.006,187.545 151.336,187.616 151.407 C 187.687 151.478,188.342 151.348,189.071 151.119 C 189.801 150.889,190.870 150.565,191.448 150.400 C 192.026 150.234,192.228 150.093,191.898 150.085 C 191.568 150.077,190.440 150.343,189.392 150.675 M205.851 150.362 C 206.429 150.533,207.550 150.883,208.342 151.141 C 209.134 151.398,209.848 151.542,209.929 151.462 C 210.129 151.261,207.481 150.423,206.002 150.218 L 204.801 150.051 205.851 150.362 M97.716 153.038 C 97.809 153.946,98.016 154.824,98.176 154.989 C 98.470 155.292,98.453 155.168,97.834 152.588 C 97.571 151.491,97.561 151.529,97.716 153.038 M186.122 151.847 C 185.117 152.251,185.305 152.456,186.347 152.093 C 186.842 151.920,187.247 151.725,187.247 151.659 C 187.247 151.481,186.882 151.542,186.122 151.847 M212.478 152.548 C 212.843 152.867,216.054 154.534,216.054 154.404 C 216.054 154.203,212.985 152.445,212.628 152.441 C 212.477 152.439,212.409 152.487,212.478 152.548 M299.625 153.938 C 299.511 154.457,299.485 154.949,299.568 155.032 C 299.650 155.114,299.811 154.757,299.925 154.239 C 300.039 153.720,300.065 153.228,299.982 153.145 C 299.900 153.063,299.739 153.420,299.625 153.938 M193.248 153.942 C 186.375 155.126,178.859 160.221,174.862 166.406 C 170.519 173.128,168.468 182.899,170.891 185.322 C 172.254 186.685,172.445 186.376,172.626 182.521 C 173.109 172.223,178.672 163.682,187.636 159.475 C 188.825 158.918,189.620 158.456,189.404 158.450 C 188.832 158.435,185.751 159.925,184.668 160.741 C 184.157 161.126,183.598 161.440,183.426 161.440 C 181.574 161.440,174.340 171.182,173.589 174.687 C 173.471 175.241,173.273 175.829,173.149 175.994 C 172.792 176.471,172.490 178.722,172.284 182.446 L 172.093 185.896 171.118 184.889 C 170.346 184.092,170.143 183.631,170.143 182.674 C 170.143 180.690,171.372 173.998,171.946 172.860 C 172.076 172.603,172.427 171.785,172.728 171.043 C 174.201 167.399,176.837 163.937,181.065 160.090 C 182.495 158.790,187.004 156.160,188.747 155.610 C 191.194 154.839,193.515 154.270,194.299 154.251 C 194.794 154.239,195.401 154.098,195.649 153.938 C 196.196 153.585,195.313 153.586,193.248 153.942 M202.251 153.960 C 202.993 154.125,204.546 154.471,205.701 154.730 C 206.857 154.989,208.405 155.472,209.143 155.802 C 209.880 156.133,210.758 156.520,211.093 156.663 C 219.376 160.185,225.688 169.394,227.118 180.045 C 227.373 181.943,227.381 181.957,227.419 180.557 C 227.741 168.416,215.171 154.840,202.649 153.805 C 200.906 153.661,200.904 153.661,202.251 153.960 M170.708 154.528 C 170.538 155.620,171.264 155.594,140.467 155.592 C 124.888 155.590,112.668 155.682,113.310 155.797 C 113.953 155.911,127.048 156.012,142.410 156.022 L 170.341 156.039 170.727 155.318 C 170.939 154.922,171.047 154.416,170.968 154.193 C 170.886 153.967,170.772 154.114,170.708 154.528 M180.021 155.234 C 177.634 157.023,176.353 158.140,176.684 158.140 C 176.842 158.140,177.149 157.925,177.367 157.662 C 177.585 157.400,178.648 156.566,179.729 155.810 C 182.076 154.169,182.364 153.932,181.980 153.958 C 181.824 153.969,180.942 154.543,180.021 155.234 M103.282 156.408 C 105.064 159.666,109.460 162.861,113.094 163.539 C 115.646 164.016,166.382 163.946,166.774 163.466 C 166.942 163.260,167.214 162.618,167.378 162.041 C 167.542 161.463,167.771 160.759,167.887 160.477 C 168.084 159.995,166.375 159.958,139.938 159.872 L 111.778 159.780 109.827 159.079 C 107.328 158.179,106.432 157.709,104.514 156.293 C 102.545 154.838,102.429 154.849,103.282 156.408 M293.623 156.113 C 292.356 157.057,289.036 158.694,287.022 159.368 C 286.062 159.689,280.285 159.787,258.215 159.859 C 243.031 159.908,230.450 160.005,230.258 160.075 C 230.002 160.168,230.048 160.673,230.426 161.946 L 230.943 163.691 257.168 163.768 C 285.708 163.851,284.838 163.896,288.519 162.153 C 290.548 161.192,292.990 158.903,294.186 156.841 C 295.216 155.065,295.149 154.977,293.623 156.113 M98.448 155.672 C 98.422 156.101,100.148 159.640,100.384 159.640 C 100.466 159.640,100.146 158.863,99.672 157.914 C 99.197 156.965,98.733 155.986,98.641 155.739 C 98.532 155.448,98.464 155.424,98.448 155.672 M298.925 156.324 C 298.749 156.827,298.670 157.239,298.748 157.239 C 298.950 157.239,299.517 155.681,299.368 155.532 C 299.300 155.464,299.101 155.820,298.925 156.324 M174.069 157.114 C 173.711 157.720,173.475 158.271,173.544 158.340 C 173.613 158.409,173.961 157.970,174.319 157.364 C 174.676 156.759,174.912 156.207,174.843 156.138 C 174.774 156.070,174.426 156.509,174.069 157.114 M193.398 157.132 C 192.084 157.401,190.381 157.958,190.098 158.213 C 189.806 158.474,191.078 158.284,192.048 157.921 C 192.296 157.828,193.578 157.587,194.899 157.385 C 197.226 157.029,197.249 157.018,195.649 157.013 C 194.741 157.011,193.728 157.064,193.398 157.132 M201.500 157.266 C 210.933 158.597,219.105 164.744,222.407 172.993 C 223.433 175.555,223.578 175.809,223.378 174.696 C 223.101 173.157,220.943 169.074,219.410 167.188 C 217.615 164.980,213.939 161.440,213.442 161.440 C 213.228 161.440,213.053 161.337,213.053 161.211 C 213.053 160.961,212.862 160.852,209.912 159.415 C 208.811 158.878,207.744 158.440,207.541 158.440 C 207.338 158.440,207.044 158.323,206.887 158.181 C 206.385 157.726,202.627 156.938,201.139 156.976 L 199.700 157.012 201.500 157.266 M175.394 159.040 C 175.095 159.370,174.945 159.640,175.060 159.640 C 175.175 159.640,175.559 159.370,175.913 159.040 C 176.267 158.710,176.418 158.440,176.247 158.440 C 176.077 158.440,175.693 158.710,175.394 159.040 M172.528 159.969 C 172.183 160.645,171.953 161.250,172.015 161.313 C 172.078 161.376,172.424 160.823,172.783 160.083 C 173.601 158.400,173.379 158.301,172.528 159.969 M296.988 159.897 C 296.567 160.534,295.458 161.783,294.525 162.673 L 292.828 164.291 293.040 187.442 C 293.295 215.244,293.162 216.332,288.950 220.787 C 284.230 225.779,283.251 225.943,258.145 225.950 L 238.571 225.956 237.564 226.932 C 236.382 228.076,228.727 235.271,228.225 235.709 C 228.036 235.874,226.921 236.920,225.748 238.035 L 223.614 240.060 198.423 240.060 L 173.232 240.060 172.346 239.235 C 171.858 238.781,169.793 236.857,167.756 234.959 C 165.719 233.061,163.768 231.263,163.421 230.964 C 163.074 230.665,161.771 229.423,160.526 228.204 L 158.261 225.988 137.870 225.880 C 120.108 225.787,117.301 225.711,116.093 225.291 C 110.847 223.466,106.528 218.979,105.471 214.254 C 105.342 213.676,105.183 213.357,105.117 213.546 C 104.474 215.394,108.798 221.637,112.228 223.813 C 113.023 224.317,113.441 224.691,119.580 230.399 C 125.743 236.129,129.093 238.151,134.720 239.537 C 138.654 240.506,289.058 240.612,291.973 239.648 C 292.386 239.512,293.149 239.211,293.669 238.980 C 294.189 238.749,294.703 238.560,294.811 238.560 C 296.717 238.560,301.429 233.049,302.605 229.444 L 303.376 227.080 303.376 210.539 L 303.375 193.998 302.490 192.198 C 300.888 188.943,298.309 187.006,294.824 186.440 L 293.323 186.197 293.245 175.328 L 293.166 164.460 295.045 162.559 C 296.079 161.514,297.168 160.227,297.466 159.699 C 298.217 158.371,297.916 158.496,296.988 159.897 M101.080 160.765 C 101.408 161.219,102.295 162.192,103.051 162.928 L 104.426 164.266 104.462 187.834 C 104.481 200.797,104.599 211.808,104.723 212.303 C 104.847 212.798,104.967 202.194,104.990 188.738 L 105.032 164.273 103.745 163.197 C 103.038 162.606,102.125 161.632,101.717 161.033 C 101.309 160.434,100.865 159.943,100.730 159.942 C 100.595 159.941,100.753 160.311,101.080 160.765 M172.993 161.942 C 172.168 163.015,171.308 164.090,171.082 164.331 C 170.856 164.573,170.733 164.832,170.809 164.908 C 170.885 164.983,171.786 163.949,172.812 162.610 C 173.838 161.270,174.636 160.132,174.586 160.082 C 174.535 160.031,173.818 160.868,172.993 161.942 M171.327 162.532 C 171.161 162.968,171.094 163.392,171.177 163.475 C 171.313 163.611,171.461 163.295,171.812 162.116 C 172.025 161.402,171.627 161.744,171.327 162.532 M195.949 166.822 C 193.437 167.589,189.947 170.640,189.947 172.069 C 189.947 172.229,190.346 171.732,190.833 170.964 C 192.125 168.928,193.853 167.761,196.849 166.904 C 197.427 166.738,197.629 166.601,197.299 166.598 C 196.969 166.595,196.362 166.696,195.949 166.822 M201.350 166.946 C 204.676 167.927,208.618 171.522,207.807 172.834 C 207.702 173.004,207.759 173.143,207.934 173.143 C 208.471 173.143,208.291 172.421,207.404 171.026 C 205.856 168.590,203.638 167.066,201.118 166.707 C 200.085 166.560,200.103 166.578,201.350 166.946 M108.987 173.668 C 109.104 182.502,110.349 185.387,115.018 187.644 C 117.943 189.058,117.779 189.047,136.423 189.047 L 154.227 189.047 154.398 188.368 C 154.492 187.994,154.502 187.015,154.421 186.192 C 154.341 185.369,154.267 184.602,154.257 184.486 C 154.247 184.371,147.318 184.236,138.860 184.186 L 123.481 184.096 121.225 182.996 C 116.265 180.576,113.439 176.058,113.432 170.535 C 113.430 169.183,113.295 167.995,113.132 167.894 C 112.790 167.683,109.646 166.842,109.197 166.842 C 109.002 166.842,108.928 169.241,108.987 173.668 M287.293 167.441 C 287.129 167.605,286.528 167.777,285.958 167.822 L 284.921 167.905 284.732 170.599 C 284.490 174.032,284.162 175.451,283.241 177.044 C 283.098 177.292,282.714 178.050,282.387 178.729 C 281.742 180.068,280.110 181.665,279.038 182.006 C 278.668 182.123,278.094 182.473,277.761 182.782 C 277.428 183.092,277.013 183.347,276.838 183.348 C 276.662 183.349,276.141 183.547,275.678 183.788 C 274.443 184.433,271.023 184.591,257.114 184.646 C 250.237 184.674,244.539 184.769,244.450 184.857 C 244.059 185.249,243.751 188.500,244.093 188.632 C 244.901 188.942,280.433 188.590,281.020 188.266 C 281.350 188.084,282.109 187.701,282.706 187.415 C 284.520 186.546,287.730 183.105,287.330 182.459 C 287.223 182.286,287.246 182.146,287.381 182.146 C 288.364 182.146,289.009 178.006,288.936 172.168 C 288.870 166.920,288.598 166.136,287.293 167.441 M117.461 168.133 C 117.371 168.365,117.347 169.419,117.406 170.474 L 117.514 172.393 117.572 170.368 L 117.629 168.342 119.115 168.342 L 120.602 168.342 120.716 170.218 L 120.830 172.093 120.805 169.992 L 120.780 167.892 119.201 167.801 C 118.057 167.735,117.578 167.826,117.461 168.133 M277.098 168.139 C 277.007 168.375,276.985 169.226,277.047 170.031 L 277.161 171.493 277.215 169.917 L 277.269 168.342 278.620 168.342 L 279.970 168.342 279.970 169.952 C 279.970 171.957,279.456 174.760,279.064 174.894 C 278.902 174.949,278.769 175.151,278.768 175.344 C 278.766 175.884,276.924 177.764,275.761 178.413 C 275.188 178.733,274.622 179.130,274.505 179.295 C 274.368 179.486,268.831 179.627,259.246 179.683 L 244.201 179.771 244.306 178.258 C 244.370 177.337,244.293 176.783,244.111 176.844 C 243.946 176.899,243.811 177.676,243.811 178.570 L 243.811 180.195 258.515 180.195 C 272.901 180.195,273.248 180.181,274.605 179.554 C 278.459 177.772,280.808 173.736,280.520 169.392 L 280.420 167.892 278.841 167.801 C 277.686 167.735,277.218 167.825,277.098 168.139 M196.849 169.938 C 195.334 170.730,194.538 171.364,194.147 172.095 C 193.927 172.507,193.534 172.854,193.273 172.867 C 193.010 172.880,192.953 172.954,193.144 173.032 C 193.334 173.110,194.161 172.503,194.981 171.682 C 196.991 169.672,199.709 169.257,201.875 170.629 C 202.247 170.864,202.551 170.933,202.551 170.782 C 202.551 169.837,198.258 169.202,196.849 169.938 M203.745 172.468 C 203.949 172.889,204.322 173.130,204.737 173.108 C 205.339 173.077,205.346 173.060,204.809 172.923 C 204.483 172.841,204.036 172.553,203.817 172.283 C 203.473 171.860,203.463 171.886,203.745 172.468 M276.270 173.103 C 275.641 174.674,274.248 175.930,272.592 176.420 C 271.849 176.639,271.306 176.883,271.385 176.962 C 272.255 177.832,276.418 174.688,276.761 172.901 C 276.993 171.694,276.803 171.772,276.270 173.103 M117.632 172.901 C 117.647 174.838,120.374 178.178,122.914 179.367 L 124.681 180.195 139.535 180.195 L 154.389 180.195 154.478 178.657 C 154.542 177.556,154.449 177.074,154.150 176.959 C 153.816 176.831,153.761 177.099,153.875 178.285 L 154.017 179.771 138.899 179.683 C 126.097 179.608,123.668 179.526,123.046 179.145 C 120.677 177.694,118.278 174.817,118.242 173.386 C 118.235 173.107,118.095 172.795,117.929 172.693 C 117.764 172.591,117.631 172.684,117.632 172.901 M120.933 172.693 C 120.934 172.858,121.202 173.398,121.530 173.893 C 122.307 175.067,122.308 174.650,121.532 173.376 C 121.202 172.835,120.933 172.528,120.933 172.693 M197.323 173.178 C 196.284 173.996,196.345 175.406,197.449 176.091 L 198.200 176.557 197.524 175.889 C 196.183 174.561,196.953 173.007,198.953 173.007 C 201.034 173.007,201.902 174.419,200.614 175.708 C 200.209 176.113,199.996 176.444,200.142 176.444 C 200.463 176.444,201.650 174.976,201.650 174.580 C 201.650 173.040,198.710 172.087,197.323 173.178 M223.556 176.019 C 223.556 176.170,223.759 177.352,224.006 178.646 C 224.254 179.940,224.456 182.111,224.456 183.472 C 224.456 186.322,224.534 186.477,225.676 185.886 C 226.857 185.276,227.463 184.293,227.422 183.054 C 227.403 182.472,227.330 182.266,227.260 182.596 C 226.944 184.089,226.829 184.426,226.478 184.878 C 225.242 186.469,224.756 185.938,224.756 182.991 C 224.756 180.465,224.156 176.344,223.726 175.914 C 223.632 175.820,223.556 175.868,223.556 176.019 M189.947 176.827 C 189.947 177.257,190.088 177.696,190.260 177.802 C 190.464 177.928,190.501 177.702,190.367 177.144 C 190.091 175.995,189.947 175.886,189.947 176.827 M193.867 176.458 C 193.842 177.079,195.909 179.030,196.849 179.273 C 197.507 179.443,197.489 179.406,196.699 178.969 C 195.491 178.301,194.437 177.326,194.135 176.594 C 193.962 176.176,193.881 176.135,193.867 176.458 M203.365 177.192 C 202.304 178.522,201.002 179.216,199.100 179.464 L 197.599 179.660 198.838 179.703 C 200.921 179.774,203.103 178.514,204.091 176.669 C 204.520 175.869,204.287 176.036,203.365 177.192 M126.711 176.960 C 127.167 177.028,127.842 177.027,128.211 176.955 C 128.580 176.884,128.207 176.828,127.382 176.830 C 126.557 176.832,126.255 176.891,126.711 176.960 M133.312 176.960 C 133.769 177.028,134.444 177.027,134.813 176.955 C 135.182 176.884,134.809 176.828,133.983 176.830 C 133.158 176.832,132.856 176.891,133.312 176.960 M145.315 176.960 C 145.772 177.028,146.447 177.027,146.816 176.955 C 147.185 176.884,146.812 176.828,145.986 176.830 C 145.161 176.832,144.859 176.891,145.315 176.960 M249.724 176.966 C 250.831 177.024,252.722 177.024,253.925 176.967 C 255.129 176.910,254.224 176.863,251.913 176.863 C 249.602 176.862,248.617 176.909,249.724 176.966 M265.652 176.966 C 266.607 177.026,268.093 177.025,268.953 176.965 C 269.814 176.905,269.032 176.856,267.217 176.856 C 265.401 176.857,264.697 176.907,265.652 176.966 M207.386 177.704 C 207.231 178.112,206.620 178.960,206.028 179.588 C 204.712 180.983,204.605 181.389,205.872 180.176 C 206.960 179.136,208.095 177.387,207.845 177.137 C 207.748 177.040,207.542 177.295,207.386 177.704 M190.834 178.819 C 191.281 179.653,193.551 181.452,194.837 181.989 C 196.591 182.722,196.545 182.494,194.765 181.634 C 193.866 181.199,192.543 180.256,191.826 179.538 C 191.108 178.820,190.661 178.497,190.834 178.819 M202.851 181.746 C 202.108 182.142,201.838 182.377,202.251 182.268 C 203.140 182.033,204.651 181.290,204.651 181.088 C 204.651 180.851,204.266 180.992,202.851 181.746 M197.824 182.664 C 198.443 182.729,199.456 182.729,200.075 182.664 C 200.694 182.599,200.188 182.546,198.950 182.546 C 197.712 182.546,197.206 182.599,197.824 182.664 M108.691 191.662 L 108.755 195.199 108.851 191.973 C 108.952 188.604,109.068 188.342,110.003 189.375 C 110.315 189.721,110.843 190.140,111.174 190.308 C 111.846 190.648,109.983 188.921,109.152 188.434 C 108.663 188.147,108.632 188.368,108.691 191.662 M287.772 189.107 C 286.259 190.399,284.521 191.479,282.971 192.089 C 282.228 192.381,281.852 192.626,282.135 192.634 C 282.724 192.650,284.871 191.712,285.021 191.373 C 285.076 191.249,285.254 191.148,285.416 191.148 C 285.702 191.148,287.514 189.884,288.319 189.122 C 288.537 188.916,288.752 188.747,288.798 188.747 C 288.844 188.747,288.902 189.850,288.928 191.199 C 288.953 192.547,289.041 193.717,289.123 193.799 C 289.364 194.040,289.285 188.931,289.043 188.554 C 288.893 188.320,288.486 188.497,287.772 189.107 M111.928 190.682 C 111.928 190.999,115.104 192.642,115.679 192.622 C 116.117 192.606,116.035 192.513,115.379 192.275 C 114.884 192.096,113.905 191.630,113.203 191.239 C 112.502 190.848,111.928 190.597,111.928 190.682 M116.759 193.098 C 116.950 193.290,123.723 193.432,135.467 193.492 L 153.876 193.586 154.081 194.992 C 154.301 196.506,155.290 198.450,156.308 199.372 C 156.854 199.865,156.939 200.283,156.939 202.447 L 156.939 204.951 137.509 204.982 C 125.855 205.000,118.500 205.117,119.130 205.273 C 121.214 205.790,156.857 205.597,157.061 205.068 C 157.583 203.706,157.241 199.934,156.530 199.216 C 155.389 198.065,154.539 196.101,154.539 194.616 C 154.539 193.456,154.441 193.237,153.863 193.102 C 152.530 192.790,116.447 192.787,116.759 193.098 M262.517 192.965 C 242.618 193.201,243.661 193.103,243.661 194.730 C 243.661 196.437,242.913 197.918,241.249 199.505 L 239.760 200.925 239.760 202.920 C 239.760 204.018,239.879 204.989,240.024 205.079 C 240.528 205.391,277.074 205.607,278.470 205.307 C 279.419 205.103,275.791 205.007,266.242 204.984 L 252.663 204.951 252.663 199.275 L 252.663 193.599 266.752 193.499 C 277.512 193.422,280.929 193.310,281.216 193.023 C 281.515 192.723,281.503 192.658,281.155 192.699 C 280.916 192.727,272.529 192.846,262.517 192.965 M288.566 195.735 C 287.959 199.463,283.527 204.351,280.754 204.351 C 280.507 204.351,280.222 204.486,280.120 204.651 C 279.471 205.702,283.365 203.906,285.064 202.372 C 287.374 200.285,289.193 196.800,288.911 195.004 C 288.837 194.532,288.723 194.773,288.566 195.735 M108.932 196.124 C 108.934 196.440,109.073 196.902,109.241 197.149 C 109.463 197.478,109.491 197.357,109.344 196.699 C 109.097 195.596,108.926 195.356,108.932 196.124 M110.640 200.108 C 111.669 202.038,114.944 204.387,117.179 204.798 C 118.059 204.960,118.063 204.956,117.329 204.622 C 113.431 202.848,112.534 202.211,110.790 199.980 L 110.101 199.100 110.640 200.108 M161.092 202.244 C 161.036 202.410,161.058 207.240,161.140 212.976 L 161.290 223.406 163.541 225.531 C 164.779 226.700,166.876 228.682,168.201 229.937 C 170.717 232.319,172.065 233.458,172.365 233.458 C 172.463 233.458,172.543 227.527,172.543 220.278 L 172.543 207.098 171.568 206.802 C 169.883 206.290,168.784 206.093,169.041 206.350 C 169.177 206.486,169.852 206.733,170.540 206.900 L 171.793 207.202 171.943 219.055 C 172.026 225.574,172.026 231.346,171.943 231.881 L 171.793 232.854 169.366 230.530 C 168.031 229.253,165.702 227.032,164.190 225.596 L 161.440 222.985 161.440 212.918 C 161.440 201.744,161.304 202.347,163.541 203.636 C 166.184 205.158,168.131 206.151,168.459 206.145 C 168.642 206.141,167.982 205.691,166.992 205.144 C 166.002 204.597,164.292 203.653,163.192 203.046 C 162.093 202.439,161.147 202.078,161.092 202.244 M232.858 204.509 C 230.237 206.024,228.284 206.753,226.140 207.015 L 224.606 207.202 224.528 219.805 C 224.485 226.737,224.519 232.590,224.605 232.812 C 224.744 233.177,230.993 227.662,234.419 224.149 L 235.529 223.011 235.551 213.081 C 235.563 207.619,235.468 203.164,235.341 203.179 C 235.213 203.195,234.096 203.793,232.858 204.509 M110.452 206.731 C 111.160 207.991,113.335 210.353,113.788 210.353 C 115.053 210.353,113.889 207.732,112.189 206.752 C 109.689 205.310,109.653 205.309,110.452 206.731 M112.079 207.353 C 112.180 207.518,112.511 207.652,112.814 207.652 C 113.116 207.652,113.446 207.866,113.546 208.127 C 113.810 208.815,113.770 209.752,113.475 209.752 C 113.206 209.752,110.728 206.920,110.728 206.612 C 110.728 206.366,111.848 206.980,112.079 207.353 M177.482 207.127 C 177.403 207.333,177.373 213.983,177.416 221.905 L 177.494 236.309 198.950 236.309 L 220.405 236.309 220.483 221.680 L 220.561 207.052 219.225 207.052 C 218.491 207.052,217.827 207.153,217.751 207.277 C 217.674 207.401,218.206 207.455,218.933 207.397 L 220.255 207.291 220.255 221.575 L 220.255 235.859 198.950 235.859 L 177.644 235.859 177.644 221.605 L 177.644 207.352 178.845 207.352 L 180.045 207.352 180.045 220.405 C 180.045 227.584,180.146 233.458,180.270 233.458 C 180.394 233.459,180.460 227.618,180.417 220.480 C 180.331 206.185,180.411 206.752,178.478 206.752 C 178.009 206.752,177.561 206.920,177.482 207.127 M288.361 212.022 C 287.673 212.859,284.177 215.000,282.521 215.598 C 281.054 216.128,270.916 216.397,244.024 216.619 L 239.736 216.654 239.823 219.130 L 239.910 221.605 246.512 221.773 C 278.367 222.581,283.299 221.991,286.849 216.947 C 288.474 214.638,289.823 210.242,288.361 212.022 M108.930 212.528 C 108.934 213.391,110.173 216.061,111.186 217.389 C 112.019 218.481,114.029 220.147,114.028 219.745 C 114.027 219.613,113.605 219.235,113.090 218.905 C 111.530 217.904,108.676 212.905,109.306 212.275 C 109.371 212.210,109.953 212.605,110.601 213.154 C 111.248 213.702,112.453 214.510,113.278 214.948 C 116.608 216.719,115.698 216.654,137.172 216.654 L 156.939 216.654 156.939 219.055 L 156.939 221.455 137.509 221.488 C 125.265 221.509,118.579 221.620,119.430 221.788 C 121.328 222.163,156.573 221.942,156.962 221.552 C 157.132 221.382,157.227 220.205,157.178 218.876 L 157.089 216.504 136.834 216.354 L 116.579 216.204 114.179 215.034 C 112.858 214.391,111.247 213.412,110.599 212.859 C 109.210 211.675,108.926 211.618,108.930 212.528 M287.652 214.912 C 286.651 217.029,284.532 219.262,282.666 220.167 C 279.972 221.473,280.198 221.455,266.130 221.455 L 252.663 221.455 252.663 219.055 L 252.663 216.654 266.489 216.654 L 280.314 216.654 282.536 215.908 C 284.574 215.224,287.732 213.336,288.058 212.607 C 288.133 212.440,288.242 212.530,288.301 212.808 C 288.360 213.086,288.068 214.033,287.652 214.912 M115.104 220.521 C 115.613 220.832,116.490 221.169,117.054 221.271 C 117.983 221.439,118.009 221.426,117.329 221.132 C 116.917 220.953,116.197 220.616,115.730 220.381 C 114.488 219.758,114.023 219.862,115.104 220.521 M217.540 231.958 L 217.404 233.308 200.450 233.462 L 183.496 233.616 200.338 233.687 C 219.026 233.766,217.986 233.882,217.785 231.754 L 217.676 230.608 217.540 231.958 " stroke="none" fill="#97b6d9" fill-rule="evenodd"></path><path id="path5" d="M131.876 60.627 C 131.749 60.832,131.975 60.869,132.533 60.735 C 133.683 60.459,133.792 60.315,132.851 60.315 C 132.421 60.315,131.982 60.456,131.876 60.627 M264.066 60.432 C 264.066 60.497,264.529 60.604,265.095 60.670 C 265.661 60.736,266.058 60.683,265.978 60.552 C 265.833 60.317,264.066 60.206,264.066 60.432 M267.967 61.171 C 268.215 61.316,268.822 61.522,269.317 61.629 C 269.893 61.754,270.055 61.729,269.767 61.560 C 269.520 61.415,268.912 61.209,268.417 61.102 C 267.841 60.977,267.679 61.002,267.967 61.171 M127.982 61.515 C 127.763 61.870,128.056 61.870,128.882 61.515 C 129.461 61.267,129.459 61.257,128.825 61.236 C 128.463 61.225,128.084 61.350,127.982 61.515 M271.868 62.516 C 271.868 62.594,272.304 62.809,272.836 62.995 C 273.369 63.180,273.673 63.209,273.512 63.058 C 273.170 62.738,271.868 62.309,271.868 62.516 M166.917 64.741 C 184.535 64.784,213.365 64.784,230.983 64.741 C 248.601 64.698,234.186 64.663,198.950 64.663 C 163.713 64.663,149.299 64.698,166.917 64.741 M119.462 66.034 C 119.068 66.363,118.798 66.684,118.862 66.749 C 118.927 66.813,119.359 66.540,119.822 66.141 C 120.285 65.742,120.555 65.421,120.422 65.426 C 120.289 65.432,119.857 65.705,119.462 66.034 M278.181 66.304 C 278.752 66.793,279.340 67.198,279.486 67.205 C 279.633 67.211,279.243 66.812,278.620 66.317 C 277.158 65.155,276.825 65.145,278.181 66.304 M274.631 69.510 C 275.013 69.940,275.169 70.772,275.244 72.778 L 275.345 75.469 275.407 72.615 C 275.465 69.946,275.425 69.735,274.794 69.347 C 274.141 68.946,274.136 68.952,274.631 69.510 M113.578 69.617 C 113.359 69.972,113.653 69.972,114.479 69.617 C 115.057 69.369,115.055 69.359,114.421 69.338 C 114.060 69.327,113.680 69.452,113.578 69.617 M283.421 69.617 C 284.247 69.972,284.540 69.972,284.321 69.617 C 284.219 69.452,283.840 69.327,283.478 69.338 C 282.844 69.359,282.842 69.369,283.421 69.617 M111.478 70.131 C 110.559 70.353,110.276 70.763,111.159 70.595 C 111.587 70.513,112.010 70.327,112.100 70.182 C 112.190 70.036,112.222 69.933,112.171 69.952 C 112.120 69.971,111.808 70.052,111.478 70.131 M107.577 72.018 C 106.404 72.795,106.821 72.796,108.095 72.019 C 108.635 71.690,108.942 71.420,108.777 71.421 C 108.612 71.421,108.072 71.690,107.577 72.018 M291.373 72.995 C 291.373 73.056,291.778 73.405,292.273 73.771 C 292.768 74.137,293.173 74.327,293.173 74.192 C 293.173 74.058,292.768 73.709,292.273 73.416 C 291.778 73.124,291.373 72.934,291.373 72.995 M101.668 77.344 C 101.139 77.960,100.742 78.620,100.901 78.620 C 100.962 78.620,101.312 78.215,101.678 77.719 C 102.401 76.741,102.394 76.498,101.668 77.344 M97.974 84.321 C 97.862 84.676,97.837 85.034,97.920 85.116 C 98.002 85.199,98.162 84.976,98.275 84.621 C 98.387 84.266,98.412 83.908,98.329 83.826 C 98.247 83.743,98.087 83.966,97.974 84.321 M288.829 85.813 C 289.054 87.329,289.029 134.863,288.802 136.175 C 287.986 140.891,283.326 147.637,280.883 147.637 C 280.711 147.637,280.570 147.756,280.570 147.902 C 280.570 148.048,280.334 148.239,280.045 148.327 C 279.756 148.415,278.777 148.785,277.869 149.151 C 276.406 149.740,275.517 149.831,270.017 149.960 C 263.937 150.102,263.811 150.118,263.649 150.764 C 263.558 151.126,262.547 152.326,261.403 153.431 L 259.323 155.439 272.123 155.439 L 284.924 155.439 286.974 154.695 C 291.009 153.232,293.813 150.438,295.404 146.296 C 295.960 144.846,295.985 143.672,296.033 116.729 C 296.060 101.298,296.002 89.617,295.903 90.773 L 295.724 92.873 292.487 89.723 C 290.616 87.902,289.129 86.193,288.963 85.672 C 288.676 84.778,288.675 84.779,288.829 85.813 M97.411 86.583 C 97.309 86.851,97.246 87.836,97.272 88.772 L 97.319 90.473 97.514 88.372 C 97.722 86.120,97.705 85.818,97.411 86.583 M300.113 86.872 C 300.111 87.202,300.221 88.012,300.358 88.672 L 300.606 89.872 300.620 88.672 C 300.627 88.012,300.517 87.202,300.375 86.872 L 300.117 86.272 300.113 86.872 M97.325 93.923 C 97.325 95.161,97.378 95.668,97.443 95.049 C 97.508 94.430,97.508 93.417,97.443 92.798 C 97.378 92.179,97.325 92.686,97.325 93.923 M194.299 132.933 L 193.698 133.191 194.299 133.208 C 194.629 133.217,195.101 133.093,195.349 132.933 C 195.945 132.548,195.196 132.548,194.299 132.933 M202.251 132.920 C 202.498 133.087,202.959 133.226,203.276 133.229 C 204.044 133.235,203.804 133.063,202.701 132.816 C 202.043 132.669,201.922 132.697,202.251 132.920 M108.969 136.534 C 108.969 136.782,109.085 137.254,109.227 137.584 C 109.390 137.963,109.485 138.018,109.485 137.734 C 109.485 137.487,109.369 137.014,109.227 136.684 C 109.065 136.306,108.969 136.250,108.969 136.534 M181.829 139.160 L 180.795 140.285 181.920 139.251 C 182.968 138.288,183.184 138.035,182.955 138.035 C 182.904 138.035,182.398 138.541,181.829 139.160 M216.504 147.004 C 216.504 152.725,216.428 154.073,216.107 154.006 C 215.888 153.961,215.795 154.062,215.899 154.231 C 216.004 154.400,216.274 154.539,216.500 154.539 C 216.726 154.539,217.090 154.709,217.308 154.918 C 217.526 155.126,218.102 155.551,218.587 155.862 C 220.066 156.811,223.776 160.530,224.966 162.258 C 225.584 163.156,226.140 163.741,226.201 163.558 C 226.348 163.117,225.304 160.240,224.997 160.240 C 224.865 160.240,224.756 160.099,224.756 159.927 C 224.756 159.755,224.216 158.883,223.556 157.989 L 222.356 156.365 222.356 152.347 C 222.356 149.186,222.248 148.112,221.850 147.308 C 220.940 145.467,218.865 142.410,217.673 141.152 L 216.504 139.919 216.504 147.004 M111.864 143.286 C 112.038 143.616,112.761 144.426,113.470 145.086 C 114.743 146.272,114.336 145.759,111.683 142.836 C 111.608 142.753,111.689 142.956,111.864 143.286 M105.176 151.238 C 105.821 151.898,106.416 152.438,106.498 152.438 C 106.581 152.438,106.121 151.898,105.476 151.238 C 104.832 150.578,104.237 150.038,104.154 150.038 C 104.072 150.038,104.532 150.578,105.176 151.238 M97.253 151.538 C 97.242 152.281,97.352 153.075,97.497 153.304 C 97.659 153.560,97.705 153.156,97.617 152.254 C 97.420 150.221,97.275 149.938,97.253 151.538 M170.839 152.138 C 170.839 153.211,170.893 153.650,170.960 153.113 C 171.026 152.577,171.026 151.699,170.960 151.163 C 170.893 150.626,170.839 151.065,170.839 152.138 M300.412 151.238 C 300.387 151.485,300.292 152.026,300.200 152.438 C 300.056 153.087,300.080 153.116,300.374 152.655 C 300.561 152.361,300.657 151.821,300.586 151.454 C 300.515 151.088,300.437 150.990,300.412 151.238 M195.649 153.938 C 195.401 154.098,194.794 154.239,194.299 154.251 C 193.515 154.270,191.194 154.839,188.747 155.610 C 187.004 156.160,182.495 158.790,181.065 160.090 C 176.837 163.937,174.201 167.399,172.728 171.043 C 172.427 171.785,172.076 172.603,171.946 172.860 C 171.372 173.998,170.143 180.690,170.143 182.674 C 170.143 183.631,170.346 184.092,171.118 184.889 L 172.093 185.896 172.284 182.446 C 172.490 178.722,172.792 176.471,173.149 175.994 C 173.273 175.829,173.471 175.241,173.589 174.687 C 174.340 171.182,181.574 161.440,183.426 161.440 C 183.598 161.440,184.157 161.126,184.668 160.741 C 185.753 159.923,188.822 158.440,189.429 158.440 C 189.659 158.440,189.940 158.347,190.053 158.234 C 191.697 156.590,205.109 156.546,206.887 158.178 C 207.044 158.322,207.338 158.440,207.541 158.440 C 207.744 158.440,208.811 158.878,209.912 159.415 C 212.862 160.852,213.053 160.961,213.053 161.211 C 213.053 161.337,213.228 161.440,213.442 161.440 C 213.941 161.440,217.617 164.983,219.421 167.201 C 222.683 171.214,224.756 177.354,224.756 183.003 C 224.756 185.440,224.819 185.787,225.231 185.629 C 225.492 185.528,225.800 185.446,225.916 185.446 C 227.707 185.446,227.501 179.437,225.475 172.543 C 224.359 168.748,218.994 161.679,215.335 159.183 C 214.020 158.286,211.779 156.955,211.093 156.663 C 210.758 156.520,209.880 156.133,209.143 155.802 C 207.893 155.242,205.868 154.717,202.003 153.954 C 200.007 153.560,196.249 153.551,195.649 153.938 M299.535 155.349 C 299.348 155.959,299.244 156.508,299.305 156.569 C 299.365 156.630,299.577 156.189,299.775 155.589 C 299.973 154.989,300.076 154.440,300.005 154.369 C 299.934 154.297,299.722 154.738,299.535 155.349 M119.821 155.663 C 121.438 155.717,124.004 155.717,125.522 155.662 C 127.040 155.608,125.716 155.564,122.581 155.564 C 119.445 155.564,118.203 155.609,119.821 155.663 M137.796 155.661 C 138.903 155.719,140.794 155.719,141.997 155.662 C 143.201 155.605,142.296 155.558,139.985 155.557 C 137.674 155.557,136.690 155.604,137.796 155.661 M153.700 155.661 C 154.807 155.719,156.698 155.719,157.901 155.662 C 159.105 155.605,158.200 155.558,155.889 155.557 C 153.578 155.557,152.593 155.604,153.700 155.661 M228.732 155.657 C 229.351 155.722,230.364 155.722,230.983 155.657 C 231.602 155.593,231.095 155.540,229.857 155.540 C 228.620 155.540,228.113 155.593,228.732 155.657 M98.581 156.939 C 98.818 157.711,99.599 159.040,99.816 159.040 C 99.945 159.040,98.753 156.591,98.500 156.339 C 98.418 156.257,98.454 156.527,98.581 156.939 M297.704 159.208 C 297.357 159.795,297.209 160.192,297.376 160.089 C 297.701 159.888,298.675 158.140,298.462 158.140 C 298.391 158.140,298.050 158.620,297.704 159.208 M100.195 159.790 C 100.701 160.769,101.116 161.311,101.114 160.990 C 101.113 160.825,100.836 160.353,100.498 159.940 C 100.091 159.442,99.989 159.391,100.195 159.790 M171.815 161.941 C 171.527 162.692,172.082 163.050,172.571 162.428 C 172.963 161.929,172.952 161.923,172.425 162.338 C 171.897 162.754,171.872 162.738,172.070 162.113 C 172.316 161.337,172.102 161.192,171.815 161.941 M294.595 163.049 L 293.166 164.330 293.245 175.263 L 293.323 186.197 294.824 186.440 C 298.077 186.968,300.806 188.927,302.387 191.867 C 303.212 193.403,303.294 192.902,302.479 191.304 C 301.198 188.791,297.994 186.543,295.137 186.152 L 293.807 185.970 293.606 184.357 C 293.495 183.470,293.456 178.629,293.520 173.600 L 293.635 164.455 294.967 163.098 C 296.638 161.395,296.465 161.372,294.595 163.049 M171.146 163.704 C 170.876 164.408,171.168 164.490,171.582 163.827 C 171.814 163.456,171.834 163.241,171.636 163.241 C 171.464 163.241,171.244 163.449,171.146 163.704 M198.275 166.753 C 198.646 166.825,199.254 166.825,199.625 166.753 C 199.996 166.682,199.692 166.623,198.950 166.623 C 198.207 166.623,197.903 166.682,198.275 166.753 M117.629 170.297 C 117.629 171.372,117.751 172.486,117.899 172.772 C 118.047 173.059,118.392 173.838,118.665 174.504 C 119.102 175.566,120.390 177.111,121.842 178.313 C 123.422 179.620,123.061 179.591,138.878 179.683 L 153.974 179.771 153.881 178.483 L 153.788 177.194 144.786 177.122 C 123.122 176.948,124.232 177.066,122.200 174.724 C 121.058 173.406,120.634 172.109,120.632 169.917 L 120.630 168.342 119.130 168.342 L 117.629 168.342 117.629 170.297 M277.269 169.519 C 277.269 171.617,276.612 173.702,275.566 174.924 C 273.773 177.019,273.563 177.044,258.011 177.044 L 244.261 177.044 244.261 178.408 L 244.261 179.771 259.276 179.683 C 268.841 179.627,274.368 179.486,274.505 179.295 C 274.622 179.130,275.188 178.733,275.761 178.413 C 276.924 177.764,278.766 175.884,278.768 175.344 C 278.769 175.151,278.902 174.949,279.064 174.894 C 279.456 174.760,279.970 171.957,279.970 169.952 L 279.970 168.342 278.620 168.342 L 277.269 168.342 277.269 169.519 M191.879 169.617 L 190.998 170.593 191.973 169.711 C 192.509 169.227,192.948 168.788,192.948 168.736 C 192.948 168.504,192.701 168.708,191.879 169.617 M204.951 168.736 C 204.951 168.788,205.390 169.227,205.926 169.711 L 206.902 170.593 206.020 169.617 C 205.199 168.708,204.951 168.504,204.951 168.736 M191.073 173.055 C 191.444 173.127,192.052 173.127,192.423 173.055 C 192.794 172.983,192.491 172.925,191.748 172.925 C 191.005 172.925,190.701 172.983,191.073 173.055 M205.776 173.055 C 206.148 173.127,206.755 173.127,207.127 173.055 C 207.498 172.983,207.194 172.925,206.452 172.925 C 205.709 172.925,205.405 172.983,205.776 173.055 M200.583 173.810 C 201.210 174.705,201.183 174.847,200.225 175.750 C 199.542 176.394,199.515 176.468,200.068 176.179 C 201.335 175.518,201.497 173.143,200.276 173.143 C 200.188 173.143,200.326 173.443,200.583 173.810 M191.073 176.361 C 191.609 176.428,192.487 176.428,193.023 176.361 C 193.560 176.295,193.121 176.240,192.048 176.240 C 190.975 176.240,190.536 176.295,191.073 176.361 M204.247 176.369 C 204.170 176.493,204.924 176.547,205.922 176.490 C 207.509 176.400,207.714 176.449,207.548 176.881 C 207.437 177.171,207.482 177.300,207.655 177.192 C 207.819 177.091,207.952 176.814,207.952 176.576 C 207.952 176.111,204.526 175.920,204.247 176.369 M193.848 177.138 C 193.848 177.190,194.287 177.629,194.824 178.113 L 195.799 178.995 194.918 178.020 C 194.096 177.110,193.848 176.906,193.848 177.138 M108.991 192.273 L 109.056 195.799 109.152 192.395 C 109.241 189.228,109.283 189.019,109.763 189.394 C 110.227 189.758,110.237 189.746,109.866 189.272 C 109.075 188.265,108.928 188.771,108.991 192.273 M288.319 189.122 C 287.514 189.884,285.702 191.148,285.416 191.148 C 285.254 191.148,285.076 191.249,285.021 191.373 C 284.873 191.707,282.732 192.648,282.120 192.648 C 281.829 192.648,281.422 192.817,281.216 193.023 C 280.929 193.310,277.512 193.422,266.752 193.499 L 252.663 193.599 252.663 199.275 L 252.663 204.951 266.299 204.951 C 275.066 204.951,280.001 204.844,280.120 204.651 C 280.222 204.486,280.507 204.351,280.754 204.351 C 283.639 204.351,287.848 199.559,288.661 195.349 C 288.933 193.936,289.041 188.747,288.798 188.747 C 288.752 188.747,288.537 188.916,288.319 189.122 M114.029 197.624 L 114.029 203.148 115.304 203.707 C 116.005 204.014,116.957 204.420,117.418 204.609 C 118.017 204.853,123.795 204.951,137.599 204.951 L 156.939 204.951 156.939 202.447 C 156.939 200.283,156.854 199.865,156.308 199.372 C 155.290 198.450,154.301 196.506,154.081 194.992 L 153.876 193.586 135.528 193.492 C 122.746 193.427,116.997 193.297,116.579 193.063 C 116.249 192.879,115.540 192.587,115.004 192.414 L 114.029 192.100 114.029 197.624 M303.317 209.998 C 303.380 221.646,303.306 227.070,303.073 227.907 C 302.888 228.567,302.664 229.360,302.574 229.670 C 302.469 230.034,302.529 230.160,302.744 230.027 C 302.926 229.914,303.076 229.519,303.076 229.150 C 303.076 228.780,303.245 228.308,303.451 228.102 C 303.930 227.623,304.002 194.595,303.526 193.794 C 303.324 193.455,303.256 198.764,303.317 209.998 M161.440 212.918 L 161.440 222.985 164.190 225.596 C 165.702 227.032,168.031 229.253,169.366 230.530 L 171.793 232.854 171.943 231.881 C 172.026 231.346,172.026 225.574,171.943 219.055 L 171.793 207.202 170.593 206.880 C 168.552 206.334,167.267 205.753,164.164 203.976 C 163.084 203.357,162.029 202.851,161.820 202.851 C 161.521 202.851,161.440 204.997,161.440 212.918 M110.728 206.612 C 110.728 206.920,113.206 209.752,113.475 209.752 C 113.770 209.752,113.810 208.815,113.546 208.127 C 113.446 207.866,113.116 207.652,112.814 207.652 C 112.511 207.652,112.180 207.518,112.079 207.353 C 111.848 206.980,110.728 206.366,110.728 206.612 M177.644 221.605 L 177.644 235.859 198.950 235.859 L 220.255 235.859 220.255 221.588 L 220.255 207.317 218.980 207.410 L 217.704 207.502 217.679 220.279 C 217.665 227.306,217.553 233.218,217.431 233.416 C 217.198 233.792,184.043 233.916,181.320 233.550 L 180.045 233.379 180.045 220.366 L 180.045 207.352 178.845 207.352 L 177.644 207.352 177.644 221.605 M109.227 212.633 C 109.227 212.919,109.318 213.063,109.428 212.952 C 109.539 212.842,109.944 212.957,110.329 213.209 C 111.349 213.877,111.185 213.506,110.128 212.753 C 109.319 212.178,109.227 212.165,109.227 212.633 M288.058 212.607 C 287.732 213.336,284.574 215.224,282.536 215.908 L 280.314 216.654 266.489 216.654 L 252.663 216.654 252.663 219.055 L 252.663 221.455 266.130 221.455 C 280.198 221.455,279.972 221.473,282.666 220.167 C 285.229 218.924,288.651 214.456,288.301 212.808 C 288.242 212.530,288.133 212.440,288.058 212.607 M104.756 213.861 C 104.740 214.387,104.861 214.902,105.026 215.004 C 105.371 215.217,105.371 214.731,105.026 213.653 C 104.797 212.937,104.785 212.946,104.756 213.861 M113.976 217.579 C 114.062 219.663,114.143 219.955,114.634 219.955 C 114.942 219.955,115.267 220.074,115.357 220.219 C 116.056 221.350,117.958 221.455,137.716 221.455 L 156.939 221.455 156.939 219.055 L 156.939 216.654 137.188 216.654 C 116.826 216.654,115.667 216.593,114.179 215.436 C 113.982 215.283,113.912 216.025,113.976 217.579 M108.035 220.405 C 108.396 220.979,110.428 222.841,110.428 222.598 C 110.428 222.533,109.804 221.879,109.043 221.143 C 108.281 220.407,107.828 220.075,108.035 220.405 M111.628 223.564 C 115.019 226.705,118.608 230.004,120.151 231.403 C 121.126 232.286,122.329 233.396,122.825 233.870 C 123.763 234.766,129.252 238.260,129.723 238.260 C 129.871 238.260,130.417 238.441,130.937 238.664 C 132.364 239.273,133.849 239.704,135.184 239.897 C 136.702 240.115,135.804 239.682,133.708 239.185 C 129.099 238.092,125.355 235.780,119.782 230.586 C 115.021 226.148,112.837 224.211,111.564 223.299 L 110.578 222.592 111.628 223.564 M302.019 231.110 C 301.399 233.154,296.168 238.560,294.811 238.560 C 294.703 238.560,294.189 238.741,293.669 238.964 C 291.102 240.060,291.125 240.060,257.443 240.090 C 239.218 240.106,223.968 240.228,223.556 240.360 C 223.143 240.492,237.775 240.614,256.071 240.630 C 290.469 240.661,291.843 240.619,293.323 239.474 C 293.488 239.347,293.961 239.162,294.374 239.063 C 296.438 238.569,301.575 233.946,301.575 232.583 C 301.575 232.405,301.696 232.258,301.843 232.258 C 302.134 232.258,302.591 230.773,302.368 230.550 C 302.292 230.474,302.135 230.726,302.019 231.110 M138.935 240.375 C 140.774 240.703,174.056 240.688,173.293 240.360 C 172.963 240.218,164.794 240.110,155.139 240.119 C 145.366 240.128,138.183 240.242,138.935 240.375 " stroke="none" fill="#c6d4fb" fill-rule="evenodd"></path><path id="path6" d="M132.690 72.273 C 132.309 72.380,162.144 72.468,198.990 72.468 C 235.836 72.468,265.585 72.383,265.099 72.279 C 263.928 72.027,133.583 72.022,132.690 72.273 M129.932 72.918 L 129.182 73.158 129.990 73.188 C 130.434 73.205,130.881 73.083,130.983 72.918 C 131.194 72.577,130.998 72.577,129.932 72.918 M127.073 73.906 C 125.221 74.719,122.131 76.463,122.131 76.694 C 122.131 76.787,122.844 76.455,123.716 75.956 C 124.588 75.457,126.175 74.647,127.242 74.156 C 128.309 73.665,129.047 73.258,128.882 73.253 C 128.717 73.247,127.903 73.541,127.073 73.906 M272.093 74.879 C 273.620 75.626,274.869 76.368,274.869 76.528 C 274.869 76.688,275.038 76.815,275.244 76.809 C 276.228 76.783,270.723 73.517,269.700 73.519 C 269.489 73.520,270.566 74.132,272.093 74.879 M117.140 81.995 C 116.066 83.217,114.040 86.183,114.834 85.371 C 115.280 84.916,117.938 81.320,117.829 81.320 C 117.777 81.320,117.467 81.624,117.140 81.995 " stroke="none" fill="#557fcc" fill-rule="evenodd"></path><path id="path7" d="" stroke="none" fill="#fcb4b4" fill-rule="evenodd"></path><path id="path8" d="M166.917 71.943 C 184.700 71.986,213.800 71.986,231.583 71.943 C 249.366 71.900,234.816 71.865,199.250 71.865 C 163.683 71.865,149.134 71.900,166.917 71.943 M126.407 73.828 C 125.402 74.232,125.590 74.437,126.632 74.074 C 127.127 73.901,127.532 73.705,127.532 73.639 C 127.532 73.461,127.167 73.522,126.407 73.828 " stroke="none" fill="#557fcc" fill-rule="evenodd"></path></g></svg>